{
  "title" : "",
  "description" : "",
  "author" : "",
  "targetLoudness" : -18.0,
  "shouldApplyLoudnessNormalization" : true,
  "videoFormatFrameRate" : 30,
  "audioFormatSampleRate" : 44100,
  "allowSubFrameEditing" : false,
  "width" : 2240.0,
  "height" : 1340.0,
  "version" : "7.0",
  "editRate" : 705600000,
  "authoringClientName" :  {
    "name" : "Camtasia",
    "platform" : "Windows",
    "version" : "2023.4.3"
  },
  "sourceBin" : [
    {
      "id" : 1,
      "src" : "C:\\Users\\14044\\OneDrive\\Documents\\Camtasia\\Rec 5-9-2025-5-09-26-PM.trec",
      "rect" : [0, 0, 2240, 1340],
      "lastMod" : "20250509T210925",
      "loudnessNormalization" : true,
      "sourceTracks" : [
        {
          "range" : [0, 5067],
          "type" : 0,
          "editRate" : 30,
          "trackRect" : [0, 0, 2240, 1340],
          "sampleRate" : "289519/10000",
          "bitDepth" : 24,
          "numChannels" : 0,
          "integratedLUFS" : 100.0,
          "peakLevel" : -1.0,
          "metaData" : "Rec 5-9-2025-5-09-26-PM.trec;2b7b6a00-7a1f-11e2-83d0-0017f200be7f;2b7b6aef-7a1f-11e2-83d0-0017f200be7f;2b7b6af0-7a1f-11e2-83d0-0017f200be7f;2b7b6af1-7a1f-11e2-83d0-0017f200be7f;2b7b6af2-7a1f-11e2-83d0-0017f200be7f;2b7b6af3-7a1f-11e2-83d0-0017f200be7f;2b7b6af5-7a1f-11e2-83d0-0017f200be7f;2b7b6af6-7a1f-11e2-83d0-0017f200be7f;2b7b6af7-7a1f-11e2-83d0-0017f200be7f;2b7b6af8-7a1f-11e2-83d0-0017f200be7f;2b7b6af9-7a1f-11e2-83d0-0017f200be7f;2b7b6afa-7a1f-11e2-83d0-0017f200be7f;"
        },
        {
          "range" : [0, 7444480],
          "type" : 2,
          "editRate" : 44100,
          "trackRect" : [0, 0, 0, 0],
          "sampleRate" : 44100,
          "bitDepth" : 16,
          "numChannels" : 2,
          "integratedLUFS" : -1.79769313486232e+308,
          "peakLevel" : 0.0,
          "metaData" : "Rec 5-9-2025-5-09-26-PM.trec;"
        },
        {
          "range" : [0, 7450624],
          "type" : 2,
          "editRate" : 44100,
          "trackRect" : [0, 0, 0, 0],
          "sampleRate" : 44100,
          "bitDepth" : 16,
          "numChannels" : 2,
          "integratedLUFS" : -1.79769313486232e+308,
          "peakLevel" : 0.0,
          "metaData" : "Rec 5-9-2025-5-09-26-PM.trec;"
        }
      ],
      "metadata" : {
        "timeAdded" : "20250509T210950.941611"
      }
    },
    {
      "id" : 2,
      "src" : "C:\\ProgramData\\TechSmith\\Camtasia Studio 23\\Library 4.0\\Camtasia Libraries\\Camtasia 2023\\Dynamic Backgrounds\\4stopgradient.asset\\4stopgradient.tscshadervid",
      "rect" : [0, 0, 1920, 1080],
      "lastMod" : "20230403T170314",
      "loudnessNormalization" : true,
      "sourceTracks" : [
        {
          "range" : [0, 9223372036854775807],
          "type" : 0,
          "editRate" : 30,
          "trackRect" : [0, 0, 1920, 1080],
          "sampleRate" : 30,
          "bitDepth" : 32,
          "numChannels" : 0,
          "integratedLUFS" : 100.0,
          "peakLevel" : -1.0,
          "metaData" : "4stopgradient.tscshadervid;"
        }
      ],
      "effectDef" : [
        {
          "name" : "Pos0",
          "type" : "Position",
          "defaultValue" : [ 135, 970, 0],
          "scalingType" : 1,
          "unitType" : 0,
          "userInterfaceType" : 5
        },
        {
          "name" : "Pos1",
          "type" : "Position",
          "defaultValue" : [ 480, 730, 0],
          "scalingType" : 1,
          "unitType" : 0,
          "userInterfaceType" : 5
        },
        {
          "name" : "Pos2",
          "type" : "Position",
          "defaultValue" : [ 1440, 270, 0],
          "scalingType" : 1,
          "unitType" : 0,
          "userInterfaceType" : 5
        },
        {
          "name" : "Pos3",
          "type" : "Position",
          "defaultValue" : [ 1785, 135, 0],
          "scalingType" : 1,
          "unitType" : 0,
          "userInterfaceType" : 5
        },
        {
          "name" : "Color0",
          "type" : "Color",
          "defaultValue" : [ 1, 0.870588, 0.223529, 1],
          "scalingType" : 3,
          "unitType" : 0,
          "userInterfaceType" : 6
        },
        {
          "name" : "Color1",
          "type" : "Color",
          "defaultValue" : [ 0.929412, 0.392157, 0.172549, 1],
          "scalingType" : 3,
          "unitType" : 0,
          "userInterfaceType" : 6
        },
        {
          "name" : "Color2",
          "type" : "Color",
          "defaultValue" : [ 0.435294, 0, 1, 1],
          "scalingType" : 3,
          "unitType" : 0,
          "userInterfaceType" : 6
        },
        {
          "name" : "Color3",
          "type" : "Color",
          "defaultValue" : [ 0.0980392, 0.168627, 0.392157, 1],
          "scalingType" : 3,
          "unitType" : 0,
          "userInterfaceType" : 6
        },
        {
          "name" : "sourceFileType",
          "type" : "string",
          "defaultValue" : "tscshadervid",
          "maxValue" : "",
          "minValue" : "",
          "scalingType" : 0,
          "unitType" : 0,
          "userInterfaceType" : 0
        }    ]
,
      "metadata" : {
        "timeAdded" : "20250509T210951.642308"
      }
    },
    {
      "id" : 3,
      "src" : "C:\\Users\\14044\\Downloads\\ElevenLabs_2025-05-11T02_26_52_Cassidy_pvc_sp100_s100_sb100_se0_b_m2.mp3",
      "rect" : [0, 0, 0, 0],
      "lastMod" : "20250511T022859",
      "loudnessNormalization" : true,
      "sourceTracks" : [
        {
          "range" : [0, 1552979375],
          "type" : 2,
          "editRate" : 10000000,
          "trackRect" : [0, 0, 0, 0],
          "sampleRate" : 44100,
          "bitDepth" : 0,
          "numChannels" : 1,
          "integratedLUFS" : -22.2665935865975,
          "peakLevel" : 0.703105270862579,
          "metaData" : "ElevenLabs_2025-05-11T02_26_52_Cassidy_pvc_sp100_s100_sb100_se0_b_m2.mp3;"
        }
      ],
      "metadata" : {
        "timeAdded" : "20250511T022911.555707"
      }
    }
  ],
  "timeline" : {
    "id" : 4,
    "sceneTrack" : {
      "scenes" : [
        {
          "csml" : {
            "tracks" : [
              {
                "trackIndex" : 0,
                "medias" : [
                  {
                    "id" : 5,
                    "_type" : "AMFile",
                    "src" : 3,
                    "trackNumber" : 0,
                    "attributes" : {
                      "ident" : "ElevenLabs_2025-05-11T02_26_52_Cassidy_pvc_sp100_s100_sb100_se0_b_m2",
                      "gain" : 1.0,
                      "mixToMono" : false,
                      "loudnessNormalization" : true,
                      "sourceFileOffset" : 0
                    },
                      "channelNumber" : "0",
                    "effects" : [

                    ],
                    "start" : 0,
                    "duration" : 91469280000,
                    "mediaStart" : 0,
                    "mediaDuration" : 91469280000,
                    "scalar" : 1,
                    "metadata" : {
                      "audiateLinkedSession" : "",
                      "clipSpeedAttribute" : false
                    },
                    "animationTracks" : {

                    }
                  },
                  {
                    "id" : 6,
                    "_type" : "AMFile",
                    "src" : 3,
                    "trackNumber" : 0,
                    "attributes" : {
                      "ident" : "ElevenLabs_2025-05-11T02_26_52_Cassidy_pvc_sp100_s100_sb100_se0_b_m2",
                      "gain" : 1.0,
                      "mixToMono" : false,
                      "loudnessNormalization" : true,
                      "sourceFileOffset" : 0
                    },
                      "channelNumber" : "0",
                    "effects" : [

                    ],
                    "start" : 91469280000,
                    "duration" : 18086880000,
                    "mediaStart" : 91469280000,
                    "mediaDuration" : 18086880000,
                    "scalar" : 1,
                    "metadata" : {
                      "audiateLinkedSession" : "",
                      "clipSpeedAttribute" : false
                    },
                    "animationTracks" : {

                    }
                  }
                ]
              },
              {
                "trackIndex" : 1,
                "medias" : [
                  {
                    "id" : 7,
                    "_type" : "StitchedMedia",
                    "minMediaStart" : 0,
                    "attributes" : {
                      "ident" : "Rec 5-9-2025-5-09-26-PM",
                      "gain" : 1.0,
                      "mixToMono" : false,
                      "loudnessNormalization" : true,
                      "sourceFileOffset" : 0
                    },
                    "parameters" : {
                      "translation0" : {
                        "type" : "double",
                        "defaultValue" : 0.0,
                        "keyframes" : [
                          {
                            "endTime" : 0,
                            "time" : -705600000,
                            "value" : -9.30180796754022e-05,
                            "duration" : 705600000
                          }
                        ]
                      },
                      "translation1" : {
                        "type" : "double",
                        "defaultValue" : 0.0,
                        "keyframes" : [
                          {
                            "endTime" : 0,
                            "time" : -705600000,
                            "value" : -44.7808797842258,
                            "duration" : 705600000
                          }
                        ]
                      },
                      "scale0" : {
                        "type" : "double",
                        "defaultValue" : 1.0,
                        "keyframes" : [
                          {
                            "endTime" : 0,
                            "time" : -705600000,
                            "value" : 1.02416352335672,
                            "duration" : 705600000
                          }
                        ]
                      },
                      "scale1" : {
                        "type" : "double",
                        "defaultValue" : 1.0,
                        "keyframes" : [
                          {
                            "endTime" : 0,
                            "time" : -705600000,
                            "value" : 1.02416360345117,
                            "duration" : 705600000
                          }
                        ]
                      },
                      "geometryCrop0" : 0.0,
                      "geometryCrop1" : 18.75,
                      "geometryCrop2" : 0.0,
                      "geometryCrop3" : 18.75,
                      "volume" : 1.0,
                      "cursorOpacity" : 1.0,
                      "cursorScale" : 2.25,
                      "smoothCursorAcrossEditDuration" : 0
                    },
                    "medias" : [
                        {
                          "id" : 8,
                          "_type" : "UnifiedMedia",
                          "video" : 
                              {
                                "id" : 9,
                                "_type" : "ScreenVMFile",
                                "src" : 1,
                                "trackNumber" : 0,
                                "attributes" : {
                                  "ident" : "Rec 5-9-2025-5-09-26-PM"
                                },
                                "parameters" : {
                                  "geometryCrop0" : {
                                    "type" : "double",
                                    "defaultValue" : 0.0,
                                    "interp" : "eioe"
                                  },
                                  "geometryCrop1" : {
                                    "type" : "double",
                                    "defaultValue" : 18.75,
                                    "interp" : "eioe"
                                  },
                                  "geometryCrop2" : {
                                    "type" : "double",
                                    "defaultValue" : 0.0,
                                    "interp" : "eioe"
                                  },
                                  "geometryCrop3" : {
                                    "type" : "double",
                                    "defaultValue" : 18.75,
                                    "interp" : "eioe"
                                  },
                                  "cursorScale" : {
                                    "type" : "double",
                                    "defaultValue" : 2.25,
                                    "interp" : "linr"
                                  },
                                  "cursorOpacity" : {
                                    "type" : "double",
                                    "defaultValue" : 1.0,
                                    "interp" : "linr"
                                  },
                                  "smoothCursorAcrossEditDuration" : 0
                                },
                                "effects" : [

                                ],
                                "start" : 0,
                                "duration" : 1834560000,
                                "mediaStart" : 0,
                                "mediaDuration" : 1834560000,
                                "scalar" : 1,
                                "animationTracks" : {

                                }
                              },
                          "audio" : 
                              {
                                "id" : 10,
                                "_type" : "AMFile",
                                "src" : 1,
                                "trackNumber" : 2,
                                "attributes" : {
                                  "ident" : "",
                                  "gain" : 1.0,
                                  "mixToMono" : false,
                                  "loudnessNormalization" : true,
                                  "sourceFileOffset" : 0
                                },
                                  "channelNumber" : "0,1",
                                "effects" : [

                                ],
                                "start" : 0,
                                "duration" : 1834560000,
                                "mediaStart" : 0,
                                "mediaDuration" : 1834560000,
                                "scalar" : 1,
                                "animationTracks" : {

                                }
                              }
,
                          "start" : 0,
                          "duration" : 1834560000,
                          "mediaStart" : 0,
                          "mediaDuration" : 1834560000,
                          "scalar" : 1,
                          "metadata" : {
                            "AutoAppliedSmartFocus" : "False",
                            "audiateLinkedSession" : "",
                            "clipSpeedAttribute" : false,
                            "default-height" : 1250.4,
                            "default-rotation0" : 0.0,
                            "default-rotation1" : 0.0,
                            "default-rotation2" : 0.0,
                            "default-scale0" : 0.96,
                            "default-scale1" : 0.96,
                            "default-shear0" : 0.0,
                            "default-translation0" : 0.0,
                            "default-translation1" : 0.0,
                            "default-translation2" : 0.0,
                            "default-width" : 2150.4
                          }
                        },
                        {
                          "id" : 11,
                          "_type" : "ScreenIMFile",
                          "src" : 1,
                          "trackNumber" : 0,
                          "trimStartSum" : 0,
                          "attributes" : {
                            "ident" : "Rec 5-9-2025-5-09-26-PM",
                            "isPathEdited" : false
                          },
                          "parameters" : {
                            "geometryCrop0" : {
                              "type" : "double",
                              "defaultValue" : 0.0,
                              "interp" : "eioe"
                            },
                            "geometryCrop1" : {
                              "type" : "double",
                              "defaultValue" : 0.0,
                              "interp" : "eioe"
                            },
                            "geometryCrop2" : {
                              "type" : "double",
                              "defaultValue" : 0.0,
                              "interp" : "eioe"
                            },
                            "geometryCrop3" : {
                              "type" : "double",
                              "defaultValue" : 0.0,
                              "interp" : "eioe"
                            },
                            "cursorOpacity" : {
                              "type" : "double",
                              "defaultValue" : 0.0,
                              "interp" : "linr"
                            },
                            "cursorScale" : {
                              "type" : "double",
                              "defaultValue" : 0.0,
                              "interp" : "linr"
                            },
                            "cursorImagePath" : "2b7b6af1-7a1f-11e2-83d0-0017f200be7f/1",
                            "smoothCursorAcrossEditDuration" : 0,
                            "cursorLocation" : {
                              "type" : "point",
                              "keyframes" : [
                                {
                                  "endTime" : 0,
                                  "time" : 0,
                                  "value" : [ 860, 374, 0],
                                  "duration" : 0
                                }
                              ]
                            }
                          },
                          "effects" : [

                          ],
                          "start" : 1834560000,
                          "duration" : 8467200000,
                          "mediaStart" : 1811040000,
                          "mediaDuration" : 1,
                          "scalar" : 1,
                          "metadata" : {
                            "AutoAppliedSmartFocus" : "False",
                            "audiateLinkedSession" : ""
                          },
                          "animationTracks" : {

                          }
                        },
                        {
                          "id" : 12,
                          "_type" : "UnifiedMedia",
                          "video" : 
                              {
                                "id" : 13,
                                "_type" : "ScreenVMFile",
                                "src" : 1,
                                "trackNumber" : 0,
                                "attributes" : {
                                  "ident" : "Rec 5-9-2025-5-09-26-PM"
                                },
                                "parameters" : {
                                  "geometryCrop0" : {
                                    "type" : "double",
                                    "defaultValue" : 0.0,
                                    "interp" : "eioe"
                                  },
                                  "geometryCrop1" : {
                                    "type" : "double",
                                    "defaultValue" : 0.0,
                                    "interp" : "eioe"
                                  },
                                  "geometryCrop2" : {
                                    "type" : "double",
                                    "defaultValue" : 0.0,
                                    "interp" : "eioe"
                                  },
                                  "geometryCrop3" : {
                                    "type" : "double",
                                    "defaultValue" : 0.0,
                                    "interp" : "eioe"
                                  },
                                  "cursorScale" : {
                                    "type" : "double",
                                    "defaultValue" : 0.0,
                                    "interp" : "linr"
                                  },
                                  "cursorOpacity" : {
                                    "type" : "double",
                                    "defaultValue" : 0.0,
                                    "interp" : "linr"
                                  },
                                  "smoothCursorAcrossEditDuration" : 0
                                },
                                "effects" : [

                                ],
                                "start" : 10301760000,
                                "duration" : 117341280000,
                                "mediaStart" : 1834560000,
                                "mediaDuration" : 117341280000,
                                "scalar" : 1,
                                "animationTracks" : {

                                }
                              },
                          "audio" : 
                              {
                                "id" : 14,
                                "_type" : "AMFile",
                                "src" : 1,
                                "trackNumber" : 2,
                                "attributes" : {
                                  "ident" : "",
                                  "gain" : 1.0,
                                  "mixToMono" : false,
                                  "loudnessNormalization" : true,
                                  "sourceFileOffset" : 0
                                },
                                  "channelNumber" : "0,1",
                                "effects" : [

                                ],
                                "start" : 10301760000,
                                "duration" : 117341280000,
                                "mediaStart" : 1834560000,
                                "mediaDuration" : 117341280000,
                                "scalar" : 1,
                                "animationTracks" : {

                                }
                              }
,
                          "start" : 10301760000,
                          "duration" : 117341280000,
                          "mediaStart" : 1834560000,
                          "mediaDuration" : 117341280000,
                          "scalar" : 1,
                          "metadata" : {
                            "AutoAppliedSmartFocus" : "False",
                            "audiateLinkedSession" : "",
                            "clipSpeedAttribute" : false,
                            "default-height" : 1250.4,
                            "default-rotation0" : 0.0,
                            "default-rotation1" : 0.0,
                            "default-rotation2" : 0.0,
                            "default-scale0" : 0.96,
                            "default-scale1" : 0.96,
                            "default-shear0" : 0.0,
                            "default-translation0" : 0.0,
                            "default-translation1" : 0.0,
                            "default-translation2" : 0.0,
                            "default-width" : 2150.4
                          }
                        }
                    ],
                    "effects" : [
                        {
                          "effectName" : "RoundCorners",
                          "bypassed" : false,
                          "category" : "categoryVisualEffects",
                          "parameters" : {
                            "radius" : {
                              "type" : "double",
                              "defaultValue" : 83.75,
                              "interp" : "linr",
                              "uiHints" : {
                                "userInterfaceType" : 0,
                                "unitType" : 0
                              }
                            },
                            "top-left" : {
                              "type" : "double",
                              "defaultValue" : 1.0,
                              "interp" : "linr",
                              "uiHints" : {
                                "userInterfaceType" : 0,
                                "unitType" : 0
                              }
                            },
                            "top-right" : {
                              "type" : "double",
                              "defaultValue" : 1.0,
                              "interp" : "linr",
                              "uiHints" : {
                                "userInterfaceType" : 0,
                                "unitType" : 0
                              }
                            },
                            "bottom-left" : {
                              "type" : "double",
                              "defaultValue" : 1.0,
                              "interp" : "linr",
                              "uiHints" : {
                                "userInterfaceType" : 0,
                                "unitType" : 0
                              }
                            },
                            "bottom-right" : {
                              "type" : "double",
                              "defaultValue" : 1.0,
                              "interp" : "linr",
                              "uiHints" : {
                                "userInterfaceType" : 0,
                                "unitType" : 0
                              }
                            }
                          },
                          "metadata" : {
                            "effectIndex" : "0"
                          }
                        }
                    ],
                    "start" : 0,
                    "duration" : 11124960000,
                    "mediaStart" : 0,
                    "mediaDuration" : 11124960000,
                    "scalar" : 1,
                    "metadata" : {
                      "AutoAppliedSmartFocus" : "False",
                      "audiateLinkedSession" : "",
                      "clipSpeedAttribute" : false,
                      "default-height" : 1371.40651911614,
                      "default-rotation0" : 0.0,
                      "default-rotation1" : 0.0,
                      "default-rotation2" : 0.0,
                      "default-scale0" : 1.05290316657686,
                      "default-scale1" : 1.05290327763235,
                      "default-shear0" : 0.0,
                      "default-translation0" : -9.89360137282347e-05,
                      "default-translation1" : -64.8387623369159,
                      "default-translation2" : 0.0,
                      "default-width" : 2358.50309313216
                    },
                    "animationTracks" : {
                      "visual" : [
                        {
                          "endTime" : 0,
                          "duration" : 705600000,
                          "range" : [ -705600000, 705600000]
                        }
                      ]
                    }
                  },
                  {
                    "id" : 15,
                    "_type" : "UnifiedMedia",
                    "video" : 
                        {
                          "id" : 16,
                          "_type" : "ScreenVMFile",
                          "src" : 1,
                          "trackNumber" : 0,
                          "attributes" : {
                            "ident" : "Rec 5-9-2025-5-09-26-PM"
                          },
                          "parameters" : {
                            "translation0" : {
                              "type" : "double",
                              "defaultValue" : 0.0,
                              "interp" : "eioe",
                              "keyframes" : [
                                {
                                  "endTime" : 0,
                                  "time" : -705600000,
                                  "value" : -9.89360137282347e-05,
                                  "duration" : 705600000
                                },
                                {
                                  "endTime" : 2657760000,
                                  "time" : 2469600000,
                                  "value" : -9.26399388322787e-05,
                                  "duration" : 188160000
                                }
                              ]
                            },
                            "translation1" : {
                              "type" : "double",
                              "defaultValue" : 0.0,
                              "interp" : "eioe",
                              "keyframes" : [
                                {
                                  "endTime" : 0,
                                  "time" : -705600000,
                                  "value" : -64.8387623369159,
                                  "duration" : 705600000
                                },
                                {
                                  "endTime" : 2657760000,
                                  "time" : 2469600000,
                                  "value" : -62.8125877180849,
                                  "duration" : 188160000
                                }
                              ]
                            },
                            "scale0" : {
                              "type" : "double",
                              "defaultValue" : 0.96,
                              "interp" : "eioe",
                              "keyframes" : [
                                {
                                  "endTime" : 0,
                                  "time" : -705600000,
                                  "value" : 1.05290316657686,
                                  "duration" : 705600000
                                },
                                {
                                  "endTime" : 2657760000,
                                  "time" : 2469600000,
                                  "value" : 1.0200000538284,
                                  "duration" : 188160000
                                }
                              ]
                            },
                            "scale1" : {
                              "type" : "double",
                              "defaultValue" : 0.96,
                              "interp" : "eioe",
                              "keyframes" : [
                                {
                                  "endTime" : 0,
                                  "time" : -705600000,
                                  "value" : 1.05290327763235,
                                  "duration" : 705600000
                                },
                                {
                                  "endTime" : 2657760000,
                                  "time" : 2469600000,
                                  "value" : 1.02000013874725,
                                  "duration" : 188160000
                                }
                              ]
                            },
                            "geometryCrop0" : {
                              "type" : "double",
                              "defaultValue" : 0.0,
                              "interp" : "eioe"
                            },
                            "geometryCrop1" : {
                              "type" : "double",
                              "defaultValue" : 18.75,
                              "interp" : "eioe"
                            },
                            "geometryCrop2" : {
                              "type" : "double",
                              "defaultValue" : 0.0,
                              "interp" : "eioe"
                            },
                            "geometryCrop3" : {
                              "type" : "double",
                              "defaultValue" : 18.75,
                              "interp" : "eioe"
                            },
                            "cursorScale" : {
                              "type" : "double",
                              "defaultValue" : 2.25,
                              "interp" : "linr"
                            },
                            "cursorOpacity" : {
                              "type" : "double",
                              "defaultValue" : 1.0,
                              "interp" : "linr"
                            },
                            "smoothCursorAcrossEditDuration" : 0
                          },
                          "effects" : [
                              {
                                "effectName" : "RoundCorners",
                                "bypassed" : false,
                                "category" : "categoryVisualEffects",
                                "parameters" : {
                                  "radius" : {
                                    "type" : "double",
                                    "defaultValue" : 83.75,
                                    "interp" : "linr",
                                    "uiHints" : {
                                      "userInterfaceType" : 0,
                                      "unitType" : 0
                                    }
                                  },
                                  "top-left" : {
                                    "type" : "double",
                                    "defaultValue" : 1.0,
                                    "interp" : "linr",
                                    "uiHints" : {
                                      "userInterfaceType" : 0,
                                      "unitType" : 0
                                    }
                                  },
                                  "top-right" : {
                                    "type" : "double",
                                    "defaultValue" : 1.0,
                                    "interp" : "linr",
                                    "uiHints" : {
                                      "userInterfaceType" : 0,
                                      "unitType" : 0
                                    }
                                  },
                                  "bottom-left" : {
                                    "type" : "double",
                                    "defaultValue" : 1.0,
                                    "interp" : "linr",
                                    "uiHints" : {
                                      "userInterfaceType" : 0,
                                      "unitType" : 0
                                    }
                                  },
                                  "bottom-right" : {
                                    "type" : "double",
                                    "defaultValue" : 1.0,
                                    "interp" : "linr",
                                    "uiHints" : {
                                      "userInterfaceType" : 0,
                                      "unitType" : 0
                                    }
                                  }
                                },
                                "metadata" : {
                                  "effectIndex" : "0"
                                }
                              }
                          ],
                          "start" : 11124960000,
                          "duration" : 7220640000,
                          "mediaStart" : 2657760000,
                          "mediaDuration" : 7220640000,
                          "scalar" : 1,
                          "animationTracks" : {
                            "visual" : [
                              {
                                "endTime" : 0,
                                "duration" : 705600000,
                                "range" : [ -705600000, 705600000]
                              },
                              {
                                "endTime" : 2657760000,
                                "duration" : 188160000,
                                "range" : [ 2469600000, 188160000]
                              }
                            ]
                          }
                        },
                    "audio" : 
                        {
                          "id" : 17,
                          "_type" : "AMFile",
                          "src" : 1,
                          "trackNumber" : 2,
                          "attributes" : {
                            "ident" : "",
                            "gain" : 1.0,
                            "mixToMono" : false,
                            "loudnessNormalization" : true,
                            "sourceFileOffset" : 0
                          },
                            "channelNumber" : "0,1",
                          "effects" : [

                          ],
                          "start" : 11124960000,
                          "duration" : 7220640000,
                          "mediaStart" : 2657760000,
                          "mediaDuration" : 7220640000,
                          "scalar" : 1,
                          "animationTracks" : {

                          }
                        }
,
                    "start" : 11124960000,
                    "duration" : 7220640000,
                    "mediaStart" : 2657760000,
                    "mediaDuration" : 7220640000,
                    "scalar" : 1,
                    "metadata" : {
                      "AutoAppliedSmartFocus" : "False",
                      "audiateLinkedSession" : "",
                      "clipSpeedAttribute" : false,
                      "default-height" : 1250.4,
                      "default-rotation0" : 0.0,
                      "default-rotation1" : 0.0,
                      "default-rotation2" : 0.0,
                      "default-scale0" : 0.96,
                      "default-scale1" : 0.96,
                      "default-shear0" : 0.0,
                      "default-translation0" : 0.0,
                      "default-translation1" : 0.0,
                      "default-translation2" : 0.0,
                      "default-width" : 2150.4
                    }
                  },
                  {
                    "id" : 18,
                    "_type" : "UnifiedMedia",
                    "video" : 
                        {
                          "id" : 19,
                          "_type" : "ScreenVMFile",
                          "src" : 1,
                          "trackNumber" : 0,
                          "attributes" : {
                            "ident" : "Rec 5-9-2025-5-09-26-PM"
                          },
                          "parameters" : {
                            "translation0" : {
                              "type" : "double",
                              "defaultValue" : 0.0,
                              "interp" : "eioe",
                              "keyframes" : [
                                {
                                  "endTime" : 0,
                                  "time" : -705600000,
                                  "value" : -9.89360137282347e-05,
                                  "duration" : 705600000
                                },
                                {
                                  "endTime" : 3175200000,
                                  "time" : 2469600000,
                                  "value" : -9.26399388322787e-05,
                                  "duration" : 705600000
                                }
                              ]
                            },
                            "translation1" : {
                              "type" : "double",
                              "defaultValue" : 0.0,
                              "interp" : "eioe",
                              "keyframes" : [
                                {
                                  "endTime" : 0,
                                  "time" : -705600000,
                                  "value" : -64.8387623369159,
                                  "duration" : 705600000
                                },
                                {
                                  "endTime" : 3175200000,
                                  "time" : 2469600000,
                                  "value" : -62.8125877180849,
                                  "duration" : 705600000
                                }
                              ]
                            },
                            "scale0" : {
                              "type" : "double",
                              "defaultValue" : 0.96,
                              "interp" : "eioe",
                              "keyframes" : [
                                {
                                  "endTime" : 0,
                                  "time" : -705600000,
                                  "value" : 1.05290316657686,
                                  "duration" : 705600000
                                },
                                {
                                  "endTime" : 3175200000,
                                  "time" : 2469600000,
                                  "value" : 1.0200000538284,
                                  "duration" : 705600000
                                }
                              ]
                            },
                            "scale1" : {
                              "type" : "double",
                              "defaultValue" : 0.96,
                              "interp" : "eioe",
                              "keyframes" : [
                                {
                                  "endTime" : 0,
                                  "time" : -705600000,
                                  "value" : 1.05290327763235,
                                  "duration" : 705600000
                                },
                                {
                                  "endTime" : 3175200000,
                                  "time" : 2469600000,
                                  "value" : 1.02000013874725,
                                  "duration" : 705600000
                                }
                              ]
                            },
                            "geometryCrop0" : {
                              "type" : "double",
                              "defaultValue" : 0.0,
                              "interp" : "eioe"
                            },
                            "geometryCrop1" : {
                              "type" : "double",
                              "defaultValue" : 18.75,
                              "interp" : "eioe"
                            },
                            "geometryCrop2" : {
                              "type" : "double",
                              "defaultValue" : 0.0,
                              "interp" : "eioe"
                            },
                            "geometryCrop3" : {
                              "type" : "double",
                              "defaultValue" : 18.75,
                              "interp" : "eioe"
                            },
                            "cursorScale" : {
                              "type" : "double",
                              "defaultValue" : 2.25,
                              "interp" : "linr"
                            },
                            "cursorOpacity" : {
                              "type" : "double",
                              "defaultValue" : 1.0,
                              "interp" : "linr"
                            },
                            "smoothCursorAcrossEditDuration" : 0
                          },
                          "effects" : [
                              {
                                "effectName" : "RoundCorners",
                                "bypassed" : false,
                                "category" : "categoryVisualEffects",
                                "parameters" : {
                                  "radius" : {
                                    "type" : "double",
                                    "defaultValue" : 83.75,
                                    "interp" : "linr",
                                    "uiHints" : {
                                      "userInterfaceType" : 0,
                                      "unitType" : 0
                                    }
                                  },
                                  "top-left" : {
                                    "type" : "double",
                                    "defaultValue" : 1.0,
                                    "interp" : "linr",
                                    "uiHints" : {
                                      "userInterfaceType" : 0,
                                      "unitType" : 0
                                    }
                                  },
                                  "top-right" : {
                                    "type" : "double",
                                    "defaultValue" : 1.0,
                                    "interp" : "linr",
                                    "uiHints" : {
                                      "userInterfaceType" : 0,
                                      "unitType" : 0
                                    }
                                  },
                                  "bottom-left" : {
                                    "type" : "double",
                                    "defaultValue" : 1.0,
                                    "interp" : "linr",
                                    "uiHints" : {
                                      "userInterfaceType" : 0,
                                      "unitType" : 0
                                    }
                                  },
                                  "bottom-right" : {
                                    "type" : "double",
                                    "defaultValue" : 1.0,
                                    "interp" : "linr",
                                    "uiHints" : {
                                      "userInterfaceType" : 0,
                                      "unitType" : 0
                                    }
                                  }
                                },
                                "metadata" : {
                                  "effectIndex" : "0"
                                }
                              }
                          ],
                          "start" : 18345600000,
                          "duration" : 7526400000,
                          "mediaStart" : 9878400000,
                          "mediaDuration" : 15170400000,
                          "scalar" : "64/129",
                          "animationTracks" : {
                            "visual" : [
                              {
                                "endTime" : 0,
                                "duration" : 705600000,
                                "range" : [ -705600000, 705600000]
                              },
                              {
                                "endTime" : 3175200000,
                                "duration" : 705600000,
                                "range" : [ 2469600000, 705600000]
                              }
                            ]
                          }
                        },
                    "audio" : 
                        {
                          "id" : 20,
                          "_type" : "AMFile",
                          "src" : 1,
                          "trackNumber" : 2,
                          "attributes" : {
                            "ident" : "",
                            "gain" : 1.0,
                            "mixToMono" : false,
                            "loudnessNormalization" : true,
                            "sourceFileOffset" : 0
                          },
                            "channelNumber" : "0,1",
                          "effects" : [

                          ],
                          "start" : 18345600000,
                          "duration" : 7526400000,
                          "mediaStart" : 9878400000,
                          "mediaDuration" : 15170400000,
                          "scalar" : "64/129",
                          "animationTracks" : {

                          }
                        }
,
                    "start" : 18345600000,
                    "duration" : 7526400000,
                    "mediaStart" : 9878400000,
                    "mediaDuration" : 15170400000,
                    "scalar" : "64/129",
                    "metadata" : {
                      "AutoAppliedSmartFocus" : "False",
                      "audiateLinkedSession" : "",
                      "clipSpeedAttribute" : true,
                      "default-height" : 1250.4,
                      "default-rotation0" : 0.0,
                      "default-rotation1" : 0.0,
                      "default-rotation2" : 0.0,
                      "default-scale0" : 0.96,
                      "default-scale1" : 0.96,
                      "default-shear0" : 0.0,
                      "default-translation0" : 0.0,
                      "default-translation1" : 0.0,
                      "default-translation2" : 0.0,
                      "default-width" : 2150.4
                    }
                  },
                  {
                    "id" : 21,
                    "_type" : "UnifiedMedia",
                    "video" : 
                        {
                          "id" : 22,
                          "_type" : "ScreenVMFile",
                          "src" : 1,
                          "trackNumber" : 0,
                          "attributes" : {
                            "ident" : "Rec 5-9-2025-5-09-26-PM"
                          },
                          "parameters" : {
                            "translation0" : {
                              "type" : "double",
                              "defaultValue" : 0.0,
                              "interp" : "eioe",
                              "keyframes" : [
                                {
                                  "endTime" : 0,
                                  "time" : -705600000,
                                  "value" : -9.89360137282347e-05,
                                  "duration" : 705600000
                                },
                                {
                                  "endTime" : 3175200000,
                                  "time" : 2469600000,
                                  "value" : -9.26399388322787e-05,
                                  "duration" : 705600000
                                }
                              ]
                            },
                            "translation1" : {
                              "type" : "double",
                              "defaultValue" : 0.0,
                              "interp" : "eioe",
                              "keyframes" : [
                                {
                                  "endTime" : 0,
                                  "time" : -705600000,
                                  "value" : -64.8387623369159,
                                  "duration" : 705600000
                                },
                                {
                                  "endTime" : 3175200000,
                                  "time" : 2469600000,
                                  "value" : -62.8125877180849,
                                  "duration" : 705600000
                                }
                              ]
                            },
                            "scale0" : {
                              "type" : "double",
                              "defaultValue" : 0.96,
                              "interp" : "eioe",
                              "keyframes" : [
                                {
                                  "endTime" : 0,
                                  "time" : -705600000,
                                  "value" : 1.05290316657686,
                                  "duration" : 705600000
                                },
                                {
                                  "endTime" : 3175200000,
                                  "time" : 2469600000,
                                  "value" : 1.0200000538284,
                                  "duration" : 705600000
                                }
                              ]
                            },
                            "scale1" : {
                              "type" : "double",
                              "defaultValue" : 0.96,
                              "interp" : "eioe",
                              "keyframes" : [
                                {
                                  "endTime" : 0,
                                  "time" : -705600000,
                                  "value" : 1.05290327763235,
                                  "duration" : 705600000
                                },
                                {
                                  "endTime" : 3175200000,
                                  "time" : 2469600000,
                                  "value" : 1.02000013874725,
                                  "duration" : 705600000
                                }
                              ]
                            },
                            "geometryCrop0" : {
                              "type" : "double",
                              "defaultValue" : 0.0,
                              "interp" : "eioe"
                            },
                            "geometryCrop1" : {
                              "type" : "double",
                              "defaultValue" : 18.75,
                              "interp" : "eioe"
                            },
                            "geometryCrop2" : {
                              "type" : "double",
                              "defaultValue" : 0.0,
                              "interp" : "eioe"
                            },
                            "geometryCrop3" : {
                              "type" : "double",
                              "defaultValue" : 18.75,
                              "interp" : "eioe"
                            },
                            "cursorScale" : {
                              "type" : "double",
                              "defaultValue" : 2.25,
                              "interp" : "linr"
                            },
                            "cursorOpacity" : {
                              "type" : "double",
                              "defaultValue" : 1.0,
                              "interp" : "linr"
                            },
                            "smoothCursorAcrossEditDuration" : 0
                          },
                          "effects" : [
                              {
                                "effectName" : "RoundCorners",
                                "bypassed" : false,
                                "category" : "categoryVisualEffects",
                                "parameters" : {
                                  "radius" : {
                                    "type" : "double",
                                    "defaultValue" : 83.75,
                                    "interp" : "linr",
                                    "uiHints" : {
                                      "userInterfaceType" : 0,
                                      "unitType" : 0
                                    }
                                  },
                                  "top-left" : {
                                    "type" : "double",
                                    "defaultValue" : 1.0,
                                    "interp" : "linr",
                                    "uiHints" : {
                                      "userInterfaceType" : 0,
                                      "unitType" : 0
                                    }
                                  },
                                  "top-right" : {
                                    "type" : "double",
                                    "defaultValue" : 1.0,
                                    "interp" : "linr",
                                    "uiHints" : {
                                      "userInterfaceType" : 0,
                                      "unitType" : 0
                                    }
                                  },
                                  "bottom-left" : {
                                    "type" : "double",
                                    "defaultValue" : 1.0,
                                    "interp" : "linr",
                                    "uiHints" : {
                                      "userInterfaceType" : 0,
                                      "unitType" : 0
                                    }
                                  },
                                  "bottom-right" : {
                                    "type" : "double",
                                    "defaultValue" : 1.0,
                                    "interp" : "linr",
                                    "uiHints" : {
                                      "userInterfaceType" : 0,
                                      "unitType" : 0
                                    }
                                  }
                                },
                                "metadata" : {
                                  "effectIndex" : "0"
                                }
                              }
                          ],
                          "start" : 25872000000,
                          "duration" : 6444480000,
                          "mediaStart" : 25048800000,
                          "mediaDuration" : 6444480000,
                          "scalar" : 1,
                          "animationTracks" : {
                            "visual" : [
                              {
                                "endTime" : 0,
                                "duration" : 705600000,
                                "range" : [ -705600000, 705600000]
                              },
                              {
                                "endTime" : 3175200000,
                                "duration" : 705600000,
                                "range" : [ 2469600000, 705600000]
                              }
                            ]
                          }
                        },
                    "audio" : 
                        {
                          "id" : 23,
                          "_type" : "AMFile",
                          "src" : 1,
                          "trackNumber" : 2,
                          "attributes" : {
                            "ident" : "",
                            "gain" : 1.0,
                            "mixToMono" : false,
                            "loudnessNormalization" : true,
                            "sourceFileOffset" : 0
                          },
                            "channelNumber" : "0,1",
                          "effects" : [

                          ],
                          "start" : 25872000000,
                          "duration" : 6444480000,
                          "mediaStart" : 25048800000,
                          "mediaDuration" : 6444480000,
                          "scalar" : 1,
                          "animationTracks" : {

                          }
                        }
,
                    "start" : 25872000000,
                    "duration" : 6444480000,
                    "mediaStart" : 25048800000,
                    "mediaDuration" : 6444480000,
                    "scalar" : 1,
                    "metadata" : {
                      "AutoAppliedSmartFocus" : "False",
                      "audiateLinkedSession" : "",
                      "clipSpeedAttribute" : false,
                      "default-height" : 1250.4,
                      "default-rotation0" : 0.0,
                      "default-rotation1" : 0.0,
                      "default-rotation2" : 0.0,
                      "default-scale0" : 0.96,
                      "default-scale1" : 0.96,
                      "default-shear0" : 0.0,
                      "default-translation0" : 0.0,
                      "default-translation1" : 0.0,
                      "default-translation2" : 0.0,
                      "default-width" : 2150.4
                    }
                  },
                  {
                    "id" : 24,
                    "_type" : "StitchedMedia",
                    "minMediaStart" : -2.54016e+12,
                    "attributes" : {
                      "ident" : "Rec 5-9-2025-5-09-26-PM",
                      "gain" : 1.0,
                      "mixToMono" : false,
                      "loudnessNormalization" : true,
                      "sourceFileOffset" : 0
                    },
                    "parameters" : {
                      "translation0" : -9.26399388322787e-05,
                      "translation1" : -62.8125877180849,
                      "scale0" : 1.0200000538284,
                      "scale1" : 1.02000013874725,
                      "geometryCrop0" : 0.0,
                      "geometryCrop1" : 18.75,
                      "geometryCrop2" : 0.0,
                      "geometryCrop3" : 18.75,
                      "volume" : 1.0,
                      "cursorOpacity" : 1.0,
                      "cursorScale" : 2.25,
                      "smoothCursorAcrossEditDuration" : 0
                    },
                    "medias" : [
                        {
                          "id" : 25,
                          "_type" : "ScreenIMFile",
                          "src" : 1,
                          "trackNumber" : 0,
                          "trimStartSum" : -2540160000000,
                          "attributes" : {
                            "ident" : "Rec 5-9-2025-5-09-26-PM",
                            "isPathEdited" : false
                          },
                          "parameters" : {
                            "geometryCrop0" : {
                              "type" : "double",
                              "defaultValue" : 0.0,
                              "interp" : "eioe"
                            },
                            "geometryCrop1" : {
                              "type" : "double",
                              "defaultValue" : 0.0,
                              "interp" : "eioe"
                            },
                            "geometryCrop2" : {
                              "type" : "double",
                              "defaultValue" : 0.0,
                              "interp" : "eioe"
                            },
                            "geometryCrop3" : {
                              "type" : "double",
                              "defaultValue" : 0.0,
                              "interp" : "eioe"
                            },
                            "cursorOpacity" : {
                              "type" : "double",
                              "defaultValue" : 0.0,
                              "interp" : "linr"
                            },
                            "cursorScale" : {
                              "type" : "double",
                              "defaultValue" : 0.0,
                              "interp" : "linr"
                            },
                            "cursorImagePath" : "2b7b6af1-7a1f-11e2-83d0-0017f200be7f/0",
                            "smoothCursorAcrossEditDuration" : 0,
                            "cursorLocation" : {
                              "type" : "point",
                              "keyframes" : [
                                {
                                  "endTime" : 0,
                                  "time" : 0,
                                  "value" : [ 1119, 720, 0],
                                  "duration" : 0
                                }
                              ]
                            }
                          },
                          "effects" : [

                          ],
                          "start" : -2540160000000,
                          "duration" : 2543876160000,
                          "mediaStart" : 31493280000,
                          "mediaDuration" : 1,
                          "scalar" : 1,
                          "metadata" : {
                            "AutoAppliedSmartFocus" : "False",
                            "audiateLinkedSession" : "",
                            "clipSpeedAttribute" : false
                          },
                          "animationTracks" : {

                          }
                        },
                        {
                          "id" : 26,
                          "_type" : "UnifiedMedia",
                          "video" : 
                              {
                                "id" : 27,
                                "_type" : "ScreenVMFile",
                                "src" : 1,
                                "trackNumber" : 0,
                                "attributes" : {
                                  "ident" : "Rec 5-9-2025-5-09-26-PM"
                                },
                                "parameters" : {
                                  "geometryCrop0" : {
                                    "type" : "double",
                                    "defaultValue" : 0.0,
                                    "interp" : "eioe"
                                  },
                                  "geometryCrop1" : {
                                    "type" : "double",
                                    "defaultValue" : 0.0,
                                    "interp" : "eioe"
                                  },
                                  "geometryCrop2" : {
                                    "type" : "double",
                                    "defaultValue" : 0.0,
                                    "interp" : "eioe"
                                  },
                                  "geometryCrop3" : {
                                    "type" : "double",
                                    "defaultValue" : 0.0,
                                    "interp" : "eioe"
                                  },
                                  "cursorScale" : {
                                    "type" : "double",
                                    "defaultValue" : 0.0,
                                    "interp" : "linr"
                                  },
                                  "cursorOpacity" : {
                                    "type" : "double",
                                    "defaultValue" : 0.0,
                                    "interp" : "linr"
                                  },
                                  "smoothCursorAcrossEditDuration" : 0
                                },
                                "effects" : [

                                ],
                                "start" : 3716160000,
                                "duration" : 87682560000,
                                "mediaStart" : 31493280000,
                                "mediaDuration" : 87682560000,
                                "scalar" : 1,
                                "animationTracks" : {

                                }
                              },
                          "audio" : 
                              {
                                "id" : 28,
                                "_type" : "AMFile",
                                "src" : 1,
                                "trackNumber" : 2,
                                "attributes" : {
                                  "ident" : "",
                                  "gain" : 1.0,
                                  "mixToMono" : false,
                                  "loudnessNormalization" : true,
                                  "sourceFileOffset" : 0
                                },
                                  "channelNumber" : "0,1",
                                "effects" : [

                                ],
                                "start" : 3716160000,
                                "duration" : 87682560000,
                                "mediaStart" : 31493280000,
                                "mediaDuration" : 87682560000,
                                "scalar" : 1,
                                "animationTracks" : {

                                }
                              }
,
                          "start" : 3716160000,
                          "duration" : 87682560000,
                          "mediaStart" : 31493280000,
                          "mediaDuration" : 87682560000,
                          "scalar" : 1,
                          "metadata" : {
                            "AutoAppliedSmartFocus" : "False",
                            "audiateLinkedSession" : "",
                            "clipSpeedAttribute" : false,
                            "default-height" : 1250.4,
                            "default-rotation0" : 0.0,
                            "default-rotation1" : 0.0,
                            "default-rotation2" : 0.0,
                            "default-scale0" : 0.96,
                            "default-scale1" : 0.96,
                            "default-shear0" : 0.0,
                            "default-translation0" : 0.0,
                            "default-translation1" : 0.0,
                            "default-translation2" : 0.0,
                            "default-width" : 2150.4
                          }
                        }
                    ],
                    "effects" : [
                        {
                          "effectName" : "RoundCorners",
                          "bypassed" : false,
                          "category" : "categoryVisualEffects",
                          "parameters" : {
                            "radius" : {
                              "type" : "double",
                              "defaultValue" : 83.75,
                              "interp" : "linr",
                              "uiHints" : {
                                "userInterfaceType" : 0,
                                "unitType" : 0
                              }
                            },
                            "top-left" : {
                              "type" : "double",
                              "defaultValue" : 1.0,
                              "interp" : "linr",
                              "uiHints" : {
                                "userInterfaceType" : 0,
                                "unitType" : 0
                              }
                            },
                            "top-right" : {
                              "type" : "double",
                              "defaultValue" : 1.0,
                              "interp" : "linr",
                              "uiHints" : {
                                "userInterfaceType" : 0,
                                "unitType" : 0
                              }
                            },
                            "bottom-left" : {
                              "type" : "double",
                              "defaultValue" : 1.0,
                              "interp" : "linr",
                              "uiHints" : {
                                "userInterfaceType" : 0,
                                "unitType" : 0
                              }
                            },
                            "bottom-right" : {
                              "type" : "double",
                              "defaultValue" : 1.0,
                              "interp" : "linr",
                              "uiHints" : {
                                "userInterfaceType" : 0,
                                "unitType" : 0
                              }
                            }
                          },
                          "metadata" : {
                            "effectIndex" : "0"
                          }
                        }
                    ],
                    "start" : 32316480000,
                    "duration" : 4845120000,
                    "mediaStart" : 0,
                    "mediaDuration" : 4845120000,
                    "scalar" : 1,
                    "metadata" : {
                      "AutoAppliedSmartFocus" : "False",
                      "audiateLinkedSession" : "",
                      "clipSpeedAttribute" : false
                    },
                    "animationTracks" : {

                    }
                  },
                  {
                    "id" : 29,
                    "_type" : "UnifiedMedia",
                    "video" : 
                        {
                          "id" : 30,
                          "_type" : "ScreenVMFile",
                          "src" : 1,
                          "trackNumber" : 0,
                          "attributes" : {
                            "ident" : "Rec 5-9-2025-5-09-26-PM"
                          },
                          "parameters" : {
                            "translation0" : {
                              "type" : "double",
                              "defaultValue" : 0.0,
                              "interp" : "eioe",
                              "keyframes" : [
                                {
                                  "endTime" : 0,
                                  "time" : -705600000,
                                  "value" : -9.89360137282347e-05,
                                  "duration" : 705600000
                                }
                              ]
                            },
                            "translation1" : {
                              "type" : "double",
                              "defaultValue" : 0.0,
                              "interp" : "eioe",
                              "keyframes" : [
                                {
                                  "endTime" : 0,
                                  "time" : -705600000,
                                  "value" : -64.8387623369159,
                                  "duration" : 705600000
                                }
                              ]
                            },
                            "scale0" : {
                              "type" : "double",
                              "defaultValue" : 0.96,
                              "interp" : "eioe",
                              "keyframes" : [
                                {
                                  "endTime" : 0,
                                  "time" : -705600000,
                                  "value" : 1.05290316657686,
                                  "duration" : 705600000
                                }
                              ]
                            },
                            "scale1" : {
                              "type" : "double",
                              "defaultValue" : 0.96,
                              "interp" : "eioe",
                              "keyframes" : [
                                {
                                  "endTime" : 0,
                                  "time" : -705600000,
                                  "value" : 1.05290327763235,
                                  "duration" : 705600000
                                }
                              ]
                            },
                            "geometryCrop0" : {
                              "type" : "double",
                              "defaultValue" : 0.0,
                              "interp" : "eioe"
                            },
                            "geometryCrop1" : {
                              "type" : "double",
                              "defaultValue" : 18.75,
                              "interp" : "eioe"
                            },
                            "geometryCrop2" : {
                              "type" : "double",
                              "defaultValue" : 0.0,
                              "interp" : "eioe"
                            },
                            "geometryCrop3" : {
                              "type" : "double",
                              "defaultValue" : 18.75,
                              "interp" : "eioe"
                            },
                            "cursorScale" : {
                              "type" : "double",
                              "defaultValue" : 2.25,
                              "interp" : "linr"
                            },
                            "cursorOpacity" : {
                              "type" : "double",
                              "defaultValue" : 1.0,
                              "interp" : "linr"
                            },
                            "smoothCursorAcrossEditDuration" : 0
                          },
                          "effects" : [
                              {
                                "effectName" : "RoundCorners",
                                "bypassed" : false,
                                "category" : "categoryVisualEffects",
                                "parameters" : {
                                  "radius" : {
                                    "type" : "double",
                                    "defaultValue" : 83.75,
                                    "interp" : "linr",
                                    "uiHints" : {
                                      "userInterfaceType" : 0,
                                      "unitType" : 0
                                    }
                                  },
                                  "top-left" : {
                                    "type" : "double",
                                    "defaultValue" : 1.0,
                                    "interp" : "linr",
                                    "uiHints" : {
                                      "userInterfaceType" : 0,
                                      "unitType" : 0
                                    }
                                  },
                                  "top-right" : {
                                    "type" : "double",
                                    "defaultValue" : 1.0,
                                    "interp" : "linr",
                                    "uiHints" : {
                                      "userInterfaceType" : 0,
                                      "unitType" : 0
                                    }
                                  },
                                  "bottom-left" : {
                                    "type" : "double",
                                    "defaultValue" : 1.0,
                                    "interp" : "linr",
                                    "uiHints" : {
                                      "userInterfaceType" : 0,
                                      "unitType" : 0
                                    }
                                  },
                                  "bottom-right" : {
                                    "type" : "double",
                                    "defaultValue" : 1.0,
                                    "interp" : "linr",
                                    "uiHints" : {
                                      "userInterfaceType" : 0,
                                      "unitType" : 0
                                    }
                                  }
                                },
                                "metadata" : {
                                  "effectIndex" : "0"
                                }
                              }
                          ],
                          "start" : 37161600000,
                          "duration" : 3151680000,
                          "mediaStart" : 39184320000,
                          "mediaDuration" : 3151680000,
                          "scalar" : 1,
                          "animationTracks" : {
                            "visual" : [
                              {
                                "endTime" : 0,
                                "duration" : 705600000,
                                "range" : [ -705600000, 705600000]
                              }
                            ]
                          }
                        },
                    "audio" : 
                        {
                          "id" : 31,
                          "_type" : "AMFile",
                          "src" : 1,
                          "trackNumber" : 2,
                          "attributes" : {
                            "ident" : "",
                            "gain" : 1.0,
                            "mixToMono" : false,
                            "loudnessNormalization" : true,
                            "sourceFileOffset" : 0
                          },
                            "channelNumber" : "0,1",
                          "effects" : [

                          ],
                          "start" : 37161600000,
                          "duration" : 3151680000,
                          "mediaStart" : 39184320000,
                          "mediaDuration" : 3151680000,
                          "scalar" : 1,
                          "animationTracks" : {

                          }
                        }
,
                    "start" : 37161600000,
                    "duration" : 3151680000,
                    "mediaStart" : 39184320000,
                    "mediaDuration" : 3151680000,
                    "scalar" : 1,
                    "metadata" : {
                      "AutoAppliedSmartFocus" : "False",
                      "audiateLinkedSession" : "",
                      "clipSpeedAttribute" : false,
                      "default-height" : 1250.4,
                      "default-rotation0" : 0.0,
                      "default-rotation1" : 0.0,
                      "default-rotation2" : 0.0,
                      "default-scale0" : 0.96,
                      "default-scale1" : 0.96,
                      "default-shear0" : 0.0,
                      "default-translation0" : 0.0,
                      "default-translation1" : 0.0,
                      "default-translation2" : 0.0,
                      "default-width" : 2150.4
                    }
                  },
                  {
                    "id" : 32,
                    "_type" : "UnifiedMedia",
                    "video" : 
                        {
                          "id" : 33,
                          "_type" : "ScreenVMFile",
                          "src" : 1,
                          "trackNumber" : 0,
                          "attributes" : {
                            "ident" : "Rec 5-9-2025-5-09-26-PM"
                          },
                          "parameters" : {
                            "translation0" : {
                              "type" : "double",
                              "defaultValue" : 0.0,
                              "interp" : "eioe",
                              "keyframes" : [
                                {
                                  "endTime" : 0,
                                  "time" : -705600000,
                                  "value" : -9.89360137282347e-05,
                                  "duration" : 705600000
                                }
                              ]
                            },
                            "translation1" : {
                              "type" : "double",
                              "defaultValue" : 0.0,
                              "interp" : "eioe",
                              "keyframes" : [
                                {
                                  "endTime" : 0,
                                  "time" : -705600000,
                                  "value" : -64.8387623369159,
                                  "duration" : 705600000
                                }
                              ]
                            },
                            "scale0" : {
                              "type" : "double",
                              "defaultValue" : 0.96,
                              "interp" : "eioe",
                              "keyframes" : [
                                {
                                  "endTime" : 0,
                                  "time" : -705600000,
                                  "value" : 1.05290316657686,
                                  "duration" : 705600000
                                }
                              ]
                            },
                            "scale1" : {
                              "type" : "double",
                              "defaultValue" : 0.96,
                              "interp" : "eioe",
                              "keyframes" : [
                                {
                                  "endTime" : 0,
                                  "time" : -705600000,
                                  "value" : 1.05290327763235,
                                  "duration" : 705600000
                                }
                              ]
                            },
                            "geometryCrop0" : {
                              "type" : "double",
                              "defaultValue" : 0.0,
                              "interp" : "eioe"
                            },
                            "geometryCrop1" : {
                              "type" : "double",
                              "defaultValue" : 18.75,
                              "interp" : "eioe"
                            },
                            "geometryCrop2" : {
                              "type" : "double",
                              "defaultValue" : 0.0,
                              "interp" : "eioe"
                            },
                            "geometryCrop3" : {
                              "type" : "double",
                              "defaultValue" : 18.75,
                              "interp" : "eioe"
                            },
                            "cursorScale" : {
                              "type" : "double",
                              "defaultValue" : 2.25,
                              "interp" : "linr"
                            },
                            "cursorOpacity" : {
                              "type" : "double",
                              "defaultValue" : 1.0,
                              "interp" : "linr"
                            },
                            "smoothCursorAcrossEditDuration" : 0
                          },
                          "effects" : [
                              {
                                "effectName" : "RoundCorners",
                                "bypassed" : false,
                                "category" : "categoryVisualEffects",
                                "parameters" : {
                                  "radius" : {
                                    "type" : "double",
                                    "defaultValue" : 83.75,
                                    "interp" : "linr",
                                    "uiHints" : {
                                      "userInterfaceType" : 0,
                                      "unitType" : 0
                                    }
                                  },
                                  "top-left" : {
                                    "type" : "double",
                                    "defaultValue" : 1.0,
                                    "interp" : "linr",
                                    "uiHints" : {
                                      "userInterfaceType" : 0,
                                      "unitType" : 0
                                    }
                                  },
                                  "top-right" : {
                                    "type" : "double",
                                    "defaultValue" : 1.0,
                                    "interp" : "linr",
                                    "uiHints" : {
                                      "userInterfaceType" : 0,
                                      "unitType" : 0
                                    }
                                  },
                                  "bottom-left" : {
                                    "type" : "double",
                                    "defaultValue" : 1.0,
                                    "interp" : "linr",
                                    "uiHints" : {
                                      "userInterfaceType" : 0,
                                      "unitType" : 0
                                    }
                                  },
                                  "bottom-right" : {
                                    "type" : "double",
                                    "defaultValue" : 1.0,
                                    "interp" : "linr",
                                    "uiHints" : {
                                      "userInterfaceType" : 0,
                                      "unitType" : 0
                                    }
                                  }
                                },
                                "metadata" : {
                                  "effectIndex" : "0"
                                }
                              }
                          ],
                          "start" : 40313280000,
                          "duration" : 1552320000,
                          "mediaStart" : 47510400000,
                          "mediaDuration" : 3198720000,
                          "scalar" : "33/68",
                          "animationTracks" : {
                            "visual" : [
                              {
                                "endTime" : 0,
                                "duration" : 705600000,
                                "range" : [ -705600000, 705600000]
                              }
                            ]
                          }
                        },
                    "audio" : 
                        {
                          "id" : 34,
                          "_type" : "AMFile",
                          "src" : 1,
                          "trackNumber" : 2,
                          "attributes" : {
                            "ident" : "",
                            "gain" : 1.0,
                            "mixToMono" : false,
                            "loudnessNormalization" : true,
                            "sourceFileOffset" : 0
                          },
                            "channelNumber" : "0,1",
                          "effects" : [

                          ],
                          "start" : 40313280000,
                          "duration" : 1552320000,
                          "mediaStart" : 47510400000,
                          "mediaDuration" : 3198720000,
                          "scalar" : "33/68",
                          "animationTracks" : {

                          }
                        }
,
                    "start" : 40313280000,
                    "duration" : 1552320000,
                    "mediaStart" : 47510400000,
                    "mediaDuration" : 3198720000,
                    "scalar" : "33/68",
                    "metadata" : {
                      "AutoAppliedSmartFocus" : "False",
                      "audiateLinkedSession" : "",
                      "clipSpeedAttribute" : true,
                      "default-height" : 1250.4,
                      "default-rotation0" : 0.0,
                      "default-rotation1" : 0.0,
                      "default-rotation2" : 0.0,
                      "default-scale0" : 0.96,
                      "default-scale1" : 0.96,
                      "default-shear0" : 0.0,
                      "default-translation0" : 0.0,
                      "default-translation1" : 0.0,
                      "default-translation2" : 0.0,
                      "default-width" : 2150.4
                    }
                  },
                  {
                    "id" : 35,
                    "_type" : "UnifiedMedia",
                    "video" : 
                        {
                          "id" : 36,
                          "_type" : "ScreenVMFile",
                          "src" : 1,
                          "trackNumber" : 0,
                          "attributes" : {
                            "ident" : "Rec 5-9-2025-5-09-26-PM"
                          },
                          "parameters" : {
                            "translation0" : {
                              "type" : "double",
                              "defaultValue" : 0.0,
                              "interp" : "eioe",
                              "keyframes" : [
                                {
                                  "endTime" : 0,
                                  "time" : -705600000,
                                  "value" : -9.89360137282347e-05,
                                  "duration" : 705600000
                                }
                              ]
                            },
                            "translation1" : {
                              "type" : "double",
                              "defaultValue" : 0.0,
                              "interp" : "eioe",
                              "keyframes" : [
                                {
                                  "endTime" : 0,
                                  "time" : -705600000,
                                  "value" : -64.8387623369159,
                                  "duration" : 705600000
                                }
                              ]
                            },
                            "scale0" : {
                              "type" : "double",
                              "defaultValue" : 0.96,
                              "interp" : "eioe",
                              "keyframes" : [
                                {
                                  "endTime" : 0,
                                  "time" : -705600000,
                                  "value" : 1.05290316657686,
                                  "duration" : 705600000
                                }
                              ]
                            },
                            "scale1" : {
                              "type" : "double",
                              "defaultValue" : 0.96,
                              "interp" : "eioe",
                              "keyframes" : [
                                {
                                  "endTime" : 0,
                                  "time" : -705600000,
                                  "value" : 1.05290327763235,
                                  "duration" : 705600000
                                }
                              ]
                            },
                            "geometryCrop0" : {
                              "type" : "double",
                              "defaultValue" : 0.0,
                              "interp" : "eioe"
                            },
                            "geometryCrop1" : {
                              "type" : "double",
                              "defaultValue" : 18.75,
                              "interp" : "eioe"
                            },
                            "geometryCrop2" : {
                              "type" : "double",
                              "defaultValue" : 0.0,
                              "interp" : "eioe"
                            },
                            "geometryCrop3" : {
                              "type" : "double",
                              "defaultValue" : 18.75,
                              "interp" : "eioe"
                            },
                            "cursorScale" : {
                              "type" : "double",
                              "defaultValue" : 2.25,
                              "interp" : "linr"
                            },
                            "cursorOpacity" : {
                              "type" : "double",
                              "defaultValue" : 1.0,
                              "interp" : "linr"
                            },
                            "smoothCursorAcrossEditDuration" : 0
                          },
                          "effects" : [
                              {
                                "effectName" : "RoundCorners",
                                "bypassed" : false,
                                "category" : "categoryVisualEffects",
                                "parameters" : {
                                  "radius" : {
                                    "type" : "double",
                                    "defaultValue" : 83.75,
                                    "interp" : "linr",
                                    "uiHints" : {
                                      "userInterfaceType" : 0,
                                      "unitType" : 0
                                    }
                                  },
                                  "top-left" : {
                                    "type" : "double",
                                    "defaultValue" : 1.0,
                                    "interp" : "linr",
                                    "uiHints" : {
                                      "userInterfaceType" : 0,
                                      "unitType" : 0
                                    }
                                  },
                                  "top-right" : {
                                    "type" : "double",
                                    "defaultValue" : 1.0,
                                    "interp" : "linr",
                                    "uiHints" : {
                                      "userInterfaceType" : 0,
                                      "unitType" : 0
                                    }
                                  },
                                  "bottom-left" : {
                                    "type" : "double",
                                    "defaultValue" : 1.0,
                                    "interp" : "linr",
                                    "uiHints" : {
                                      "userInterfaceType" : 0,
                                      "unitType" : 0
                                    }
                                  },
                                  "bottom-right" : {
                                    "type" : "double",
                                    "defaultValue" : 1.0,
                                    "interp" : "linr",
                                    "uiHints" : {
                                      "userInterfaceType" : 0,
                                      "unitType" : 0
                                    }
                                  }
                                },
                                "metadata" : {
                                  "effectIndex" : "0"
                                }
                              }
                          ],
                          "start" : 41865600000,
                          "duration" : 5762400000,
                          "mediaStart" : 50709120000,
                          "mediaDuration" : 5762400000,
                          "scalar" : 1,
                          "animationTracks" : {
                            "visual" : [
                              {
                                "endTime" : 0,
                                "duration" : 705600000,
                                "range" : [ -705600000, 705600000]
                              }
                            ]
                          }
                        },
                    "audio" : 
                        {
                          "id" : 37,
                          "_type" : "AMFile",
                          "src" : 1,
                          "trackNumber" : 2,
                          "attributes" : {
                            "ident" : "",
                            "gain" : 1.0,
                            "mixToMono" : false,
                            "loudnessNormalization" : true,
                            "sourceFileOffset" : 0
                          },
                            "channelNumber" : "0,1",
                          "effects" : [

                          ],
                          "start" : 41865600000,
                          "duration" : 5762400000,
                          "mediaStart" : 50709120000,
                          "mediaDuration" : 5762400000,
                          "scalar" : 1,
                          "animationTracks" : {

                          }
                        }
,
                    "start" : 41865600000,
                    "duration" : 5762400000,
                    "mediaStart" : 50709120000,
                    "mediaDuration" : 5762400000,
                    "scalar" : 1,
                    "metadata" : {
                      "AutoAppliedSmartFocus" : "False",
                      "audiateLinkedSession" : "",
                      "clipSpeedAttribute" : false,
                      "default-height" : 1250.4,
                      "default-rotation0" : 0.0,
                      "default-rotation1" : 0.0,
                      "default-rotation2" : 0.0,
                      "default-scale0" : 0.96,
                      "default-scale1" : 0.96,
                      "default-shear0" : 0.0,
                      "default-translation0" : 0.0,
                      "default-translation1" : 0.0,
                      "default-translation2" : 0.0,
                      "default-width" : 2150.4
                    }
                  },
                  {
                    "id" : 38,
                    "_type" : "StitchedMedia",
                    "minMediaStart" : 0,
                    "attributes" : {
                      "ident" : "Rec 5-9-2025-5-09-26-PM",
                      "gain" : 1.0,
                      "mixToMono" : false,
                      "loudnessNormalization" : true,
                      "sourceFileOffset" : 0
                    },
                    "parameters" : {
                      "translation0" : {
                        "type" : "double",
                        "defaultValue" : 0.0,
                        "keyframes" : [
                          {
                            "endTime" : 0,
                            "time" : -705600000,
                            "value" : -9.89360137282347e-05,
                            "duration" : 705600000
                          }
                        ]
                      },
                      "translation1" : {
                        "type" : "double",
                        "defaultValue" : 0.0,
                        "keyframes" : [
                          {
                            "endTime" : 0,
                            "time" : -705600000,
                            "value" : -64.8387623369159,
                            "duration" : 705600000
                          }
                        ]
                      },
                      "scale0" : {
                        "type" : "double",
                        "defaultValue" : 1.0,
                        "keyframes" : [
                          {
                            "endTime" : 0,
                            "time" : -705600000,
                            "value" : 1.05290316657686,
                            "duration" : 705600000
                          }
                        ]
                      },
                      "scale1" : {
                        "type" : "double",
                        "defaultValue" : 1.0,
                        "keyframes" : [
                          {
                            "endTime" : 0,
                            "time" : -705600000,
                            "value" : 1.05290327763235,
                            "duration" : 705600000
                          }
                        ]
                      },
                      "geometryCrop0" : 0.0,
                      "geometryCrop1" : 18.75,
                      "geometryCrop2" : 0.0,
                      "geometryCrop3" : 18.75,
                      "volume" : 1.0,
                      "cursorOpacity" : 1.0,
                      "cursorScale" : 2.25,
                      "smoothCursorAcrossEditDuration" : 0
                    },
                    "medias" : [
                        {
                          "id" : 39,
                          "_type" : "UnifiedMedia",
                          "video" : 
                              {
                                "id" : 40,
                                "_type" : "ScreenVMFile",
                                "src" : 1,
                                "trackNumber" : 0,
                                "attributes" : {
                                  "ident" : "Rec 5-9-2025-5-09-26-PM"
                                },
                                "parameters" : {
                                  "geometryCrop0" : {
                                    "type" : "double",
                                    "defaultValue" : 0.0,
                                    "interp" : "eioe"
                                  },
                                  "geometryCrop1" : {
                                    "type" : "double",
                                    "defaultValue" : 18.75,
                                    "interp" : "eioe"
                                  },
                                  "geometryCrop2" : {
                                    "type" : "double",
                                    "defaultValue" : 0.0,
                                    "interp" : "eioe"
                                  },
                                  "geometryCrop3" : {
                                    "type" : "double",
                                    "defaultValue" : 18.75,
                                    "interp" : "eioe"
                                  },
                                  "cursorScale" : {
                                    "type" : "double",
                                    "defaultValue" : 2.25,
                                    "interp" : "linr"
                                  },
                                  "cursorOpacity" : {
                                    "type" : "double",
                                    "defaultValue" : 1.0,
                                    "interp" : "linr"
                                  },
                                  "smoothCursorAcrossEditDuration" : 0
                                },
                                "effects" : [

                                ],
                                "start" : 0,
                                "duration" : 57271200000,
                                "mediaStart" : 0,
                                "mediaDuration" : 57271200000,
                                "scalar" : 1,
                                "animationTracks" : {

                                }
                              },
                          "audio" : 
                              {
                                "id" : 41,
                                "_type" : "AMFile",
                                "src" : 1,
                                "trackNumber" : 2,
                                "attributes" : {
                                  "ident" : "",
                                  "gain" : 1.0,
                                  "mixToMono" : false,
                                  "loudnessNormalization" : true,
                                  "sourceFileOffset" : 0
                                },
                                  "channelNumber" : "0,1",
                                "effects" : [

                                ],
                                "start" : 0,
                                "duration" : 57271200000,
                                "mediaStart" : 0,
                                "mediaDuration" : 57271200000,
                                "scalar" : 1,
                                "animationTracks" : {

                                }
                              }
,
                          "start" : 0,
                          "duration" : 57271200000,
                          "mediaStart" : 0,
                          "mediaDuration" : 57271200000,
                          "scalar" : 1,
                          "metadata" : {
                            "AutoAppliedSmartFocus" : "False",
                            "audiateLinkedSession" : "",
                            "clipSpeedAttribute" : false,
                            "default-height" : 1250.4,
                            "default-rotation0" : 0.0,
                            "default-rotation1" : 0.0,
                            "default-rotation2" : 0.0,
                            "default-scale0" : 0.96,
                            "default-scale1" : 0.96,
                            "default-shear0" : 0.0,
                            "default-translation0" : 0.0,
                            "default-translation1" : 0.0,
                            "default-translation2" : 0.0,
                            "default-width" : 2150.4
                          }
                        },
                        {
                          "id" : 42,
                          "_type" : "ScreenIMFile",
                          "src" : 1,
                          "trackNumber" : 0,
                          "trimStartSum" : 0,
                          "attributes" : {
                            "ident" : "Rec 5-9-2025-5-09-26-PM",
                            "isPathEdited" : false
                          },
                          "parameters" : {
                            "geometryCrop0" : {
                              "type" : "double",
                              "defaultValue" : 0.0,
                              "interp" : "eioe"
                            },
                            "geometryCrop1" : {
                              "type" : "double",
                              "defaultValue" : 0.0,
                              "interp" : "eioe"
                            },
                            "geometryCrop2" : {
                              "type" : "double",
                              "defaultValue" : 0.0,
                              "interp" : "eioe"
                            },
                            "geometryCrop3" : {
                              "type" : "double",
                              "defaultValue" : 0.0,
                              "interp" : "eioe"
                            },
                            "cursorOpacity" : {
                              "type" : "double",
                              "defaultValue" : 0.0,
                              "interp" : "linr"
                            },
                            "cursorScale" : {
                              "type" : "double",
                              "defaultValue" : 0.0,
                              "interp" : "linr"
                            },
                            "cursorImagePath" : "2b7b6af1-7a1f-11e2-83d0-0017f200be7f/2",
                            "smoothCursorAcrossEditDuration" : 0,
                            "cursorLocation" : {
                              "type" : "point",
                              "keyframes" : [
                                {
                                  "endTime" : 0,
                                  "time" : 0,
                                  "value" : [ 1088, 1290, 0],
                                  "duration" : 0
                                }
                              ]
                            }
                          },
                          "effects" : [

                          ],
                          "start" : 57271200000,
                          "duration" : 7408800000,
                          "mediaStart" : 57247680000,
                          "mediaDuration" : 1,
                          "scalar" : 1,
                          "metadata" : {
                            "AutoAppliedSmartFocus" : "False",
                            "audiateLinkedSession" : ""
                          },
                          "animationTracks" : {

                          }
                        },
                        {
                          "id" : 43,
                          "_type" : "UnifiedMedia",
                          "video" : 
                              {
                                "id" : 44,
                                "_type" : "ScreenVMFile",
                                "src" : 1,
                                "trackNumber" : 0,
                                "attributes" : {
                                  "ident" : "Rec 5-9-2025-5-09-26-PM"
                                },
                                "parameters" : {
                                  "geometryCrop0" : {
                                    "type" : "double",
                                    "defaultValue" : 0.0,
                                    "interp" : "eioe"
                                  },
                                  "geometryCrop1" : {
                                    "type" : "double",
                                    "defaultValue" : 0.0,
                                    "interp" : "eioe"
                                  },
                                  "geometryCrop2" : {
                                    "type" : "double",
                                    "defaultValue" : 0.0,
                                    "interp" : "eioe"
                                  },
                                  "geometryCrop3" : {
                                    "type" : "double",
                                    "defaultValue" : 0.0,
                                    "interp" : "eioe"
                                  },
                                  "cursorScale" : {
                                    "type" : "double",
                                    "defaultValue" : 0.0,
                                    "interp" : "linr"
                                  },
                                  "cursorOpacity" : {
                                    "type" : "double",
                                    "defaultValue" : 0.0,
                                    "interp" : "linr"
                                  },
                                  "smoothCursorAcrossEditDuration" : 0
                                },
                                "effects" : [

                                ],
                                "start" : 64680000000,
                                "duration" : 61904640000,
                                "mediaStart" : 57271200000,
                                "mediaDuration" : 61904640000,
                                "scalar" : 1,
                                "animationTracks" : {

                                }
                              },
                          "audio" : 
                              {
                                "id" : 45,
                                "_type" : "AMFile",
                                "src" : 1,
                                "trackNumber" : 2,
                                "attributes" : {
                                  "ident" : "",
                                  "gain" : 1.0,
                                  "mixToMono" : false,
                                  "loudnessNormalization" : true,
                                  "sourceFileOffset" : 0
                                },
                                  "channelNumber" : "0,1",
                                "effects" : [

                                ],
                                "start" : 64680000000,
                                "duration" : 61904640000,
                                "mediaStart" : 57271200000,
                                "mediaDuration" : 61904640000,
                                "scalar" : 1,
                                "animationTracks" : {

                                }
                              }
,
                          "start" : 64680000000,
                          "duration" : 61904640000,
                          "mediaStart" : 57271200000,
                          "mediaDuration" : 61904640000,
                          "scalar" : 1,
                          "metadata" : {
                            "AutoAppliedSmartFocus" : "False",
                            "audiateLinkedSession" : "",
                            "clipSpeedAttribute" : false,
                            "default-height" : 1250.4,
                            "default-rotation0" : 0.0,
                            "default-rotation1" : 0.0,
                            "default-rotation2" : 0.0,
                            "default-scale0" : 0.96,
                            "default-scale1" : 0.96,
                            "default-shear0" : 0.0,
                            "default-translation0" : 0.0,
                            "default-translation1" : 0.0,
                            "default-translation2" : 0.0,
                            "default-width" : 2150.4
                          }
                        }
                    ],
                    "effects" : [
                        {
                          "effectName" : "RoundCorners",
                          "bypassed" : false,
                          "category" : "categoryVisualEffects",
                          "parameters" : {
                            "radius" : {
                              "type" : "double",
                              "defaultValue" : 83.75,
                              "interp" : "linr",
                              "uiHints" : {
                                "userInterfaceType" : 0,
                                "unitType" : 0
                              }
                            },
                            "top-left" : {
                              "type" : "double",
                              "defaultValue" : 1.0,
                              "interp" : "linr",
                              "uiHints" : {
                                "userInterfaceType" : 0,
                                "unitType" : 0
                              }
                            },
                            "top-right" : {
                              "type" : "double",
                              "defaultValue" : 1.0,
                              "interp" : "linr",
                              "uiHints" : {
                                "userInterfaceType" : 0,
                                "unitType" : 0
                              }
                            },
                            "bottom-left" : {
                              "type" : "double",
                              "defaultValue" : 1.0,
                              "interp" : "linr",
                              "uiHints" : {
                                "userInterfaceType" : 0,
                                "unitType" : 0
                              }
                            },
                            "bottom-right" : {
                              "type" : "double",
                              "defaultValue" : 1.0,
                              "interp" : "linr",
                              "uiHints" : {
                                "userInterfaceType" : 0,
                                "unitType" : 0
                              }
                            }
                          },
                          "metadata" : {
                            "effectIndex" : "0"
                          }
                        }
                    ],
                    "start" : 47628000000,
                    "duration" : 7596960000,
                    "mediaStart" : 56471520000,
                    "mediaDuration" : 7596960000,
                    "scalar" : 1,
                    "metadata" : {
                      "AutoAppliedSmartFocus" : "False",
                      "audiateLinkedSession" : "",
                      "clipSpeedAttribute" : false
                    },
                    "animationTracks" : {
                      "visual" : [
                        {
                          "endTime" : 0,
                          "duration" : 705600000,
                          "range" : [ -705600000, 705600000]
                        }
                      ]
                    }
                  },
                  {
                    "id" : 46,
                    "_type" : "UnifiedMedia",
                    "video" : 
                        {
                          "id" : 47,
                          "_type" : "ScreenVMFile",
                          "src" : 1,
                          "trackNumber" : 0,
                          "attributes" : {
                            "ident" : "Rec 5-9-2025-5-09-26-PM"
                          },
                          "parameters" : {
                            "translation0" : {
                              "type" : "double",
                              "defaultValue" : 0.0,
                              "interp" : "eioe",
                              "keyframes" : [
                                {
                                  "endTime" : 0,
                                  "time" : -705600000,
                                  "value" : -9.89360137282347e-05,
                                  "duration" : 705600000
                                }
                              ]
                            },
                            "translation1" : {
                              "type" : "double",
                              "defaultValue" : 0.0,
                              "interp" : "eioe",
                              "keyframes" : [
                                {
                                  "endTime" : 0,
                                  "time" : -705600000,
                                  "value" : -64.8387623369159,
                                  "duration" : 705600000
                                }
                              ]
                            },
                            "scale0" : {
                              "type" : "double",
                              "defaultValue" : 0.96,
                              "interp" : "eioe",
                              "keyframes" : [
                                {
                                  "endTime" : 0,
                                  "time" : -705600000,
                                  "value" : 1.05290316657686,
                                  "duration" : 705600000
                                }
                              ]
                            },
                            "scale1" : {
                              "type" : "double",
                              "defaultValue" : 0.96,
                              "interp" : "eioe",
                              "keyframes" : [
                                {
                                  "endTime" : 0,
                                  "time" : -705600000,
                                  "value" : 1.05290327763235,
                                  "duration" : 705600000
                                }
                              ]
                            },
                            "geometryCrop0" : {
                              "type" : "double",
                              "defaultValue" : 0.0,
                              "interp" : "eioe"
                            },
                            "geometryCrop1" : {
                              "type" : "double",
                              "defaultValue" : 18.75,
                              "interp" : "eioe"
                            },
                            "geometryCrop2" : {
                              "type" : "double",
                              "defaultValue" : 0.0,
                              "interp" : "eioe"
                            },
                            "geometryCrop3" : {
                              "type" : "double",
                              "defaultValue" : 18.75,
                              "interp" : "eioe"
                            },
                            "cursorScale" : {
                              "type" : "double",
                              "defaultValue" : 2.25,
                              "interp" : "linr"
                            },
                            "cursorOpacity" : {
                              "type" : "double",
                              "defaultValue" : 1.0,
                              "interp" : "linr"
                            },
                            "smoothCursorAcrossEditDuration" : 0
                          },
                          "effects" : [
                              {
                                "effectName" : "RoundCorners",
                                "bypassed" : false,
                                "category" : "categoryVisualEffects",
                                "parameters" : {
                                  "radius" : {
                                    "type" : "double",
                                    "defaultValue" : 83.75,
                                    "interp" : "linr",
                                    "uiHints" : {
                                      "userInterfaceType" : 0,
                                      "unitType" : 0
                                    }
                                  },
                                  "top-left" : {
                                    "type" : "double",
                                    "defaultValue" : 1.0,
                                    "interp" : "linr",
                                    "uiHints" : {
                                      "userInterfaceType" : 0,
                                      "unitType" : 0
                                    }
                                  },
                                  "top-right" : {
                                    "type" : "double",
                                    "defaultValue" : 1.0,
                                    "interp" : "linr",
                                    "uiHints" : {
                                      "userInterfaceType" : 0,
                                      "unitType" : 0
                                    }
                                  },
                                  "bottom-left" : {
                                    "type" : "double",
                                    "defaultValue" : 1.0,
                                    "interp" : "linr",
                                    "uiHints" : {
                                      "userInterfaceType" : 0,
                                      "unitType" : 0
                                    }
                                  },
                                  "bottom-right" : {
                                    "type" : "double",
                                    "defaultValue" : 1.0,
                                    "interp" : "linr",
                                    "uiHints" : {
                                      "userInterfaceType" : 0,
                                      "unitType" : 0
                                    }
                                  }
                                },
                                "metadata" : {
                                  "effectIndex" : "0"
                                }
                              }
                          ],
                          "start" : 55224960000,
                          "duration" : 14841120000,
                          "mediaStart" : 57835680000,
                          "mediaDuration" : 14841120000,
                          "scalar" : 1,
                          "animationTracks" : {
                            "visual" : [
                              {
                                "endTime" : 0,
                                "duration" : 705600000,
                                "range" : [ -705600000, 705600000]
                              }
                            ]
                          }
                        },
                    "audio" : 
                        {
                          "id" : 48,
                          "_type" : "AMFile",
                          "src" : 1,
                          "trackNumber" : 2,
                          "attributes" : {
                            "ident" : "",
                            "gain" : 1.0,
                            "mixToMono" : false,
                            "loudnessNormalization" : true,
                            "sourceFileOffset" : 0
                          },
                            "channelNumber" : "0,1",
                          "effects" : [

                          ],
                          "start" : 55224960000,
                          "duration" : 14841120000,
                          "mediaStart" : 57835680000,
                          "mediaDuration" : 14841120000,
                          "scalar" : 1,
                          "animationTracks" : {

                          }
                        }
,
                    "start" : 55224960000,
                    "duration" : 14841120000,
                    "mediaStart" : 57835680000,
                    "mediaDuration" : 14841120000,
                    "scalar" : 1,
                    "metadata" : {
                      "AutoAppliedSmartFocus" : "False",
                      "audiateLinkedSession" : "",
                      "clipSpeedAttribute" : false,
                      "default-height" : 1250.4,
                      "default-rotation0" : 0.0,
                      "default-rotation1" : 0.0,
                      "default-rotation2" : 0.0,
                      "default-scale0" : 0.96,
                      "default-scale1" : 0.96,
                      "default-shear0" : 0.0,
                      "default-translation0" : 0.0,
                      "default-translation1" : 0.0,
                      "default-translation2" : 0.0,
                      "default-width" : 2150.4
                    }
                  },
                  {
                    "id" : 49,
                    "_type" : "StitchedMedia",
                    "minMediaStart" : 0,
                    "attributes" : {
                      "ident" : "Rec 5-9-2025-5-09-26-PM",
                      "gain" : 1.0,
                      "mixToMono" : false,
                      "loudnessNormalization" : true,
                      "sourceFileOffset" : 0
                    },
                    "parameters" : {
                      "translation0" : {
                        "type" : "double",
                        "defaultValue" : 0.0,
                        "keyframes" : [
                          {
                            "endTime" : 0,
                            "time" : -705600000,
                            "value" : -9.89360137282347e-05,
                            "duration" : 705600000
                          }
                        ]
                      },
                      "translation1" : {
                        "type" : "double",
                        "defaultValue" : 0.0,
                        "keyframes" : [
                          {
                            "endTime" : 0,
                            "time" : -705600000,
                            "value" : -64.8387623369159,
                            "duration" : 705600000
                          }
                        ]
                      },
                      "scale0" : {
                        "type" : "double",
                        "defaultValue" : 1.0,
                        "keyframes" : [
                          {
                            "endTime" : 0,
                            "time" : -705600000,
                            "value" : 1.05290316657686,
                            "duration" : 705600000
                          }
                        ]
                      },
                      "scale1" : {
                        "type" : "double",
                        "defaultValue" : 1.0,
                        "keyframes" : [
                          {
                            "endTime" : 0,
                            "time" : -705600000,
                            "value" : 1.05290327763235,
                            "duration" : 705600000
                          }
                        ]
                      },
                      "geometryCrop0" : 0.0,
                      "geometryCrop1" : 18.75,
                      "geometryCrop2" : 0.0,
                      "geometryCrop3" : 18.75,
                      "volume" : 1.0,
                      "cursorOpacity" : 1.0,
                      "cursorScale" : 2.25,
                      "smoothCursorAcrossEditDuration" : 0
                    },
                    "medias" : [
                        {
                          "id" : 50,
                          "_type" : "UnifiedMedia",
                          "video" : 
                              {
                                "id" : 51,
                                "_type" : "ScreenVMFile",
                                "src" : 1,
                                "trackNumber" : 0,
                                "attributes" : {
                                  "ident" : "Rec 5-9-2025-5-09-26-PM"
                                },
                                "parameters" : {
                                  "geometryCrop0" : {
                                    "type" : "double",
                                    "defaultValue" : 0.0,
                                    "interp" : "eioe"
                                  },
                                  "geometryCrop1" : {
                                    "type" : "double",
                                    "defaultValue" : 18.75,
                                    "interp" : "eioe"
                                  },
                                  "geometryCrop2" : {
                                    "type" : "double",
                                    "defaultValue" : 0.0,
                                    "interp" : "eioe"
                                  },
                                  "geometryCrop3" : {
                                    "type" : "double",
                                    "defaultValue" : 18.75,
                                    "interp" : "eioe"
                                  },
                                  "cursorScale" : {
                                    "type" : "double",
                                    "defaultValue" : 2.25,
                                    "interp" : "linr"
                                  },
                                  "cursorOpacity" : {
                                    "type" : "double",
                                    "defaultValue" : 1.0,
                                    "interp" : "linr"
                                  },
                                  "smoothCursorAcrossEditDuration" : 0
                                },
                                "effects" : [

                                ],
                                "start" : 0,
                                "duration" : 73264800000,
                                "mediaStart" : 0,
                                "mediaDuration" : 73264800000,
                                "scalar" : 1,
                                "animationTracks" : {

                                }
                              },
                          "audio" : 
                              {
                                "id" : 52,
                                "_type" : "AMFile",
                                "src" : 1,
                                "trackNumber" : 2,
                                "attributes" : {
                                  "ident" : "",
                                  "gain" : 1.0,
                                  "mixToMono" : false,
                                  "loudnessNormalization" : true,
                                  "sourceFileOffset" : 0
                                },
                                  "channelNumber" : "0,1",
                                "effects" : [

                                ],
                                "start" : 0,
                                "duration" : 73264800000,
                                "mediaStart" : 0,
                                "mediaDuration" : 73264800000,
                                "scalar" : 1,
                                "animationTracks" : {

                                }
                              }
,
                          "start" : 0,
                          "duration" : 73264800000,
                          "mediaStart" : 0,
                          "mediaDuration" : 73264800000,
                          "scalar" : 1,
                          "metadata" : {
                            "AutoAppliedSmartFocus" : "False",
                            "audiateLinkedSession" : "",
                            "clipSpeedAttribute" : false,
                            "default-height" : 1250.4,
                            "default-rotation0" : 0.0,
                            "default-rotation1" : 0.0,
                            "default-rotation2" : 0.0,
                            "default-scale0" : 0.96,
                            "default-scale1" : 0.96,
                            "default-shear0" : 0.0,
                            "default-translation0" : 0.0,
                            "default-translation1" : 0.0,
                            "default-translation2" : 0.0,
                            "default-width" : 2150.4
                          }
                        },
                        {
                          "id" : 53,
                          "_type" : "ScreenIMFile",
                          "src" : 1,
                          "trackNumber" : 0,
                          "trimStartSum" : 0,
                          "attributes" : {
                            "ident" : "Rec 5-9-2025-5-09-26-PM",
                            "isPathEdited" : false
                          },
                          "parameters" : {
                            "geometryCrop0" : {
                              "type" : "double",
                              "defaultValue" : 0.0,
                              "interp" : "eioe"
                            },
                            "geometryCrop1" : {
                              "type" : "double",
                              "defaultValue" : 0.0,
                              "interp" : "eioe"
                            },
                            "geometryCrop2" : {
                              "type" : "double",
                              "defaultValue" : 0.0,
                              "interp" : "eioe"
                            },
                            "geometryCrop3" : {
                              "type" : "double",
                              "defaultValue" : 0.0,
                              "interp" : "eioe"
                            },
                            "cursorOpacity" : {
                              "type" : "double",
                              "defaultValue" : 0.0,
                              "interp" : "linr"
                            },
                            "cursorScale" : {
                              "type" : "double",
                              "defaultValue" : 0.0,
                              "interp" : "linr"
                            },
                            "cursorImagePath" : "2b7b6af1-7a1f-11e2-83d0-0017f200be7f/2",
                            "smoothCursorAcrossEditDuration" : 0,
                            "cursorLocation" : {
                              "type" : "point",
                              "keyframes" : [
                                {
                                  "endTime" : 0,
                                  "time" : 0,
                                  "value" : [ 1503, 566, 0],
                                  "duration" : 0
                                }
                              ]
                            }
                          },
                          "effects" : [

                          ],
                          "start" : 73264800000,
                          "duration" : 2681280000,
                          "mediaStart" : 73241280000,
                          "mediaDuration" : 1,
                          "scalar" : 1,
                          "metadata" : {
                            "AutoAppliedSmartFocus" : "False",
                            "audiateLinkedSession" : ""
                          },
                          "animationTracks" : {

                          }
                        },
                        {
                          "id" : 54,
                          "_type" : "UnifiedMedia",
                          "video" : 
                              {
                                "id" : 55,
                                "_type" : "ScreenVMFile",
                                "src" : 1,
                                "trackNumber" : 0,
                                "attributes" : {
                                  "ident" : "Rec 5-9-2025-5-09-26-PM"
                                },
                                "parameters" : {
                                  "geometryCrop0" : {
                                    "type" : "double",
                                    "defaultValue" : 0.0,
                                    "interp" : "eioe"
                                  },
                                  "geometryCrop1" : {
                                    "type" : "double",
                                    "defaultValue" : 0.0,
                                    "interp" : "eioe"
                                  },
                                  "geometryCrop2" : {
                                    "type" : "double",
                                    "defaultValue" : 0.0,
                                    "interp" : "eioe"
                                  },
                                  "geometryCrop3" : {
                                    "type" : "double",
                                    "defaultValue" : 0.0,
                                    "interp" : "eioe"
                                  },
                                  "cursorScale" : {
                                    "type" : "double",
                                    "defaultValue" : 0.0,
                                    "interp" : "linr"
                                  },
                                  "cursorOpacity" : {
                                    "type" : "double",
                                    "defaultValue" : 0.0,
                                    "interp" : "linr"
                                  },
                                  "smoothCursorAcrossEditDuration" : 0
                                },
                                "effects" : [

                                ],
                                "start" : 75946080000,
                                "duration" : 45911040000,
                                "mediaStart" : 73264800000,
                                "mediaDuration" : 45911040000,
                                "scalar" : 1,
                                "animationTracks" : {

                                }
                              },
                          "audio" : 
                              {
                                "id" : 56,
                                "_type" : "AMFile",
                                "src" : 1,
                                "trackNumber" : 2,
                                "attributes" : {
                                  "ident" : "",
                                  "gain" : 1.0,
                                  "mixToMono" : false,
                                  "loudnessNormalization" : true,
                                  "sourceFileOffset" : 0
                                },
                                  "channelNumber" : "0,1",
                                "effects" : [

                                ],
                                "start" : 75946080000,
                                "duration" : 45911040000,
                                "mediaStart" : 73264800000,
                                "mediaDuration" : 45911040000,
                                "scalar" : 1,
                                "animationTracks" : {

                                }
                              }
,
                          "start" : 75946080000,
                          "duration" : 45911040000,
                          "mediaStart" : 73264800000,
                          "mediaDuration" : 45911040000,
                          "scalar" : 1,
                          "metadata" : {
                            "AutoAppliedSmartFocus" : "False",
                            "audiateLinkedSession" : "",
                            "clipSpeedAttribute" : false,
                            "default-height" : 1250.4,
                            "default-rotation0" : 0.0,
                            "default-rotation1" : 0.0,
                            "default-rotation2" : 0.0,
                            "default-scale0" : 0.96,
                            "default-scale1" : 0.96,
                            "default-shear0" : 0.0,
                            "default-translation0" : 0.0,
                            "default-translation1" : 0.0,
                            "default-translation2" : 0.0,
                            "default-width" : 2150.4
                          }
                        }
                    ],
                    "effects" : [
                        {
                          "effectName" : "RoundCorners",
                          "bypassed" : false,
                          "category" : "categoryVisualEffects",
                          "parameters" : {
                            "radius" : {
                              "type" : "double",
                              "defaultValue" : 83.75,
                              "interp" : "linr",
                              "uiHints" : {
                                "userInterfaceType" : 0,
                                "unitType" : 0
                              }
                            },
                            "top-left" : {
                              "type" : "double",
                              "defaultValue" : 1.0,
                              "interp" : "linr",
                              "uiHints" : {
                                "userInterfaceType" : 0,
                                "unitType" : 0
                              }
                            },
                            "top-right" : {
                              "type" : "double",
                              "defaultValue" : 1.0,
                              "interp" : "linr",
                              "uiHints" : {
                                "userInterfaceType" : 0,
                                "unitType" : 0
                              }
                            },
                            "bottom-left" : {
                              "type" : "double",
                              "defaultValue" : 1.0,
                              "interp" : "linr",
                              "uiHints" : {
                                "userInterfaceType" : 0,
                                "unitType" : 0
                              }
                            },
                            "bottom-right" : {
                              "type" : "double",
                              "defaultValue" : 1.0,
                              "interp" : "linr",
                              "uiHints" : {
                                "userInterfaceType" : 0,
                                "unitType" : 0
                              }
                            }
                          },
                          "metadata" : {
                            "effectIndex" : "0"
                          }
                        }
                    ],
                    "start" : 70066080000,
                    "duration" : 3692640000,
                    "mediaStart" : 72676800000,
                    "mediaDuration" : 3692640000,
                    "scalar" : 1,
                    "metadata" : {
                      "AutoAppliedSmartFocus" : "False",
                      "audiateLinkedSession" : "",
                      "clipSpeedAttribute" : false
                    },
                    "animationTracks" : {
                      "visual" : [
                        {
                          "endTime" : 0,
                          "duration" : 705600000,
                          "range" : [ -705600000, 705600000]
                        }
                      ]
                    }
                  },
                  {
                    "id" : 57,
                    "_type" : "UnifiedMedia",
                    "video" : 
                        {
                          "id" : 58,
                          "_type" : "ScreenVMFile",
                          "src" : 1,
                          "trackNumber" : 0,
                          "attributes" : {
                            "ident" : "Rec 5-9-2025-5-09-26-PM"
                          },
                          "parameters" : {
                            "translation0" : {
                              "type" : "double",
                              "defaultValue" : 0.0,
                              "interp" : "eioe",
                              "keyframes" : [
                                {
                                  "endTime" : 0,
                                  "time" : -705600000,
                                  "value" : -9.89360137282347e-05,
                                  "duration" : 705600000
                                }
                              ]
                            },
                            "translation1" : {
                              "type" : "double",
                              "defaultValue" : 0.0,
                              "interp" : "eioe",
                              "keyframes" : [
                                {
                                  "endTime" : 0,
                                  "time" : -705600000,
                                  "value" : -64.8387623369159,
                                  "duration" : 705600000
                                }
                              ]
                            },
                            "scale0" : {
                              "type" : "double",
                              "defaultValue" : 0.96,
                              "interp" : "eioe",
                              "keyframes" : [
                                {
                                  "endTime" : 0,
                                  "time" : -705600000,
                                  "value" : 1.05290316657686,
                                  "duration" : 705600000
                                }
                              ]
                            },
                            "scale1" : {
                              "type" : "double",
                              "defaultValue" : 0.96,
                              "interp" : "eioe",
                              "keyframes" : [
                                {
                                  "endTime" : 0,
                                  "time" : -705600000,
                                  "value" : 1.05290327763235,
                                  "duration" : 705600000
                                }
                              ]
                            },
                            "geometryCrop0" : {
                              "type" : "double",
                              "defaultValue" : 0.0,
                              "interp" : "eioe"
                            },
                            "geometryCrop1" : {
                              "type" : "double",
                              "defaultValue" : 18.75,
                              "interp" : "eioe"
                            },
                            "geometryCrop2" : {
                              "type" : "double",
                              "defaultValue" : 0.0,
                              "interp" : "eioe"
                            },
                            "geometryCrop3" : {
                              "type" : "double",
                              "defaultValue" : 18.75,
                              "interp" : "eioe"
                            },
                            "cursorScale" : {
                              "type" : "double",
                              "defaultValue" : 2.25,
                              "interp" : "linr"
                            },
                            "cursorOpacity" : {
                              "type" : "double",
                              "defaultValue" : 1.0,
                              "interp" : "linr"
                            },
                            "smoothCursorAcrossEditDuration" : 0
                          },
                          "effects" : [
                              {
                                "effectName" : "RoundCorners",
                                "bypassed" : false,
                                "category" : "categoryVisualEffects",
                                "parameters" : {
                                  "radius" : {
                                    "type" : "double",
                                    "defaultValue" : 83.75,
                                    "interp" : "linr",
                                    "uiHints" : {
                                      "userInterfaceType" : 0,
                                      "unitType" : 0
                                    }
                                  },
                                  "top-left" : {
                                    "type" : "double",
                                    "defaultValue" : 1.0,
                                    "interp" : "linr",
                                    "uiHints" : {
                                      "userInterfaceType" : 0,
                                      "unitType" : 0
                                    }
                                  },
                                  "top-right" : {
                                    "type" : "double",
                                    "defaultValue" : 1.0,
                                    "interp" : "linr",
                                    "uiHints" : {
                                      "userInterfaceType" : 0,
                                      "unitType" : 0
                                    }
                                  },
                                  "bottom-left" : {
                                    "type" : "double",
                                    "defaultValue" : 1.0,
                                    "interp" : "linr",
                                    "uiHints" : {
                                      "userInterfaceType" : 0,
                                      "unitType" : 0
                                    }
                                  },
                                  "bottom-right" : {
                                    "type" : "double",
                                    "defaultValue" : 1.0,
                                    "interp" : "linr",
                                    "uiHints" : {
                                      "userInterfaceType" : 0,
                                      "unitType" : 0
                                    }
                                  }
                                },
                                "metadata" : {
                                  "effectIndex" : "0"
                                }
                              }
                          ],
                          "start" : 73758720000,
                          "duration" : 3692640000,
                          "mediaStart" : 73688160000,
                          "mediaDuration" : 3692640000,
                          "scalar" : 1,
                          "animationTracks" : {
                            "visual" : [
                              {
                                "endTime" : 0,
                                "duration" : 705600000,
                                "range" : [ -705600000, 705600000]
                              }
                            ]
                          }
                        },
                    "audio" : 
                        {
                          "id" : 59,
                          "_type" : "AMFile",
                          "src" : 1,
                          "trackNumber" : 2,
                          "attributes" : {
                            "ident" : "",
                            "gain" : 1.0,
                            "mixToMono" : false,
                            "loudnessNormalization" : true,
                            "sourceFileOffset" : 0
                          },
                            "channelNumber" : "0,1",
                          "effects" : [

                          ],
                          "start" : 73758720000,
                          "duration" : 3692640000,
                          "mediaStart" : 73688160000,
                          "mediaDuration" : 3692640000,
                          "scalar" : 1,
                          "animationTracks" : {

                          }
                        }
,
                    "start" : 73758720000,
                    "duration" : 3692640000,
                    "mediaStart" : 73688160000,
                    "mediaDuration" : 3692640000,
                    "scalar" : 1,
                    "metadata" : {
                      "AutoAppliedSmartFocus" : "False",
                      "audiateLinkedSession" : "",
                      "clipSpeedAttribute" : false,
                      "default-height" : 1250.4,
                      "default-rotation0" : 0.0,
                      "default-rotation1" : 0.0,
                      "default-rotation2" : 0.0,
                      "default-scale0" : 0.96,
                      "default-scale1" : 0.96,
                      "default-shear0" : 0.0,
                      "default-translation0" : 0.0,
                      "default-translation1" : 0.0,
                      "default-translation2" : 0.0,
                      "default-width" : 2150.4
                    }
                  },
                  {
                    "id" : 60,
                    "_type" : "StitchedMedia",
                    "minMediaStart" : 0,
                    "attributes" : {
                      "ident" : "Rec 5-9-2025-5-09-26-PM",
                      "gain" : 1.0,
                      "mixToMono" : false,
                      "loudnessNormalization" : true,
                      "sourceFileOffset" : 0
                    },
                    "parameters" : {
                      "translation0" : {
                        "type" : "double",
                        "defaultValue" : 0.0,
                        "keyframes" : [
                          {
                            "endTime" : 0,
                            "time" : -705600000,
                            "value" : -9.89360137282347e-05,
                            "duration" : 705600000
                          },
                          {
                            "endTime" : 85706880000,
                            "time" : 83942880000,
                            "value" : 544.621830396268,
                            "duration" : 1764000000
                          }
                        ]
                      },
                      "translation1" : {
                        "type" : "double",
                        "defaultValue" : 0.0,
                        "keyframes" : [
                          {
                            "endTime" : 0,
                            "time" : -705600000,
                            "value" : -64.8387623369159,
                            "duration" : 705600000
                          },
                          {
                            "endTime" : 85706880000,
                            "time" : 83942880000,
                            "value" : -233.071403369,
                            "duration" : 1764000000
                          }
                        ]
                      },
                      "scale0" : {
                        "type" : "double",
                        "defaultValue" : 1.0,
                        "keyframes" : [
                          {
                            "endTime" : 0,
                            "time" : -705600000,
                            "value" : 1.05290316657686,
                            "duration" : 705600000
                          },
                          {
                            "endTime" : 85706880000,
                            "time" : 83942880000,
                            "value" : 1.48626953006493,
                            "duration" : 1764000000
                          }
                        ]
                      },
                      "scale1" : {
                        "type" : "double",
                        "defaultValue" : 1.0,
                        "keyframes" : [
                          {
                            "endTime" : 0,
                            "time" : -705600000,
                            "value" : 1.05290327763235,
                            "duration" : 705600000
                          },
                          {
                            "endTime" : 85706880000,
                            "time" : 83942880000,
                            "value" : 1.48627028565731,
                            "duration" : 1764000000
                          }
                        ]
                      },
                      "geometryCrop0" : 0.0,
                      "geometryCrop1" : 18.75,
                      "geometryCrop2" : 0.0,
                      "geometryCrop3" : 18.75,
                      "volume" : 1.0,
                      "cursorOpacity" : 1.0,
                      "cursorScale" : 2.25,
                      "smoothCursorAcrossEditDuration" : 0
                    },
                    "medias" : [
                        {
                          "id" : 61,
                          "_type" : "UnifiedMedia",
                          "video" : 
                              {
                                "id" : 62,
                                "_type" : "ScreenVMFile",
                                "src" : 1,
                                "trackNumber" : 0,
                                "attributes" : {
                                  "ident" : "Rec 5-9-2025-5-09-26-PM"
                                },
                                "parameters" : {
                                  "geometryCrop0" : {
                                    "type" : "double",
                                    "defaultValue" : 0.0,
                                    "interp" : "eioe"
                                  },
                                  "geometryCrop1" : {
                                    "type" : "double",
                                    "defaultValue" : 18.75,
                                    "interp" : "eioe"
                                  },
                                  "geometryCrop2" : {
                                    "type" : "double",
                                    "defaultValue" : 0.0,
                                    "interp" : "eioe"
                                  },
                                  "geometryCrop3" : {
                                    "type" : "double",
                                    "defaultValue" : 18.75,
                                    "interp" : "eioe"
                                  },
                                  "cursorScale" : {
                                    "type" : "double",
                                    "defaultValue" : 2.25,
                                    "interp" : "linr"
                                  },
                                  "cursorOpacity" : {
                                    "type" : "double",
                                    "defaultValue" : 1.0,
                                    "interp" : "linr"
                                  },
                                  "smoothCursorAcrossEditDuration" : 0
                                },
                                "effects" : [

                                ],
                                "start" : 0,
                                "duration" : 78227520000,
                                "mediaStart" : 0,
                                "mediaDuration" : 78227520000,
                                "scalar" : 1,
                                "animationTracks" : {

                                }
                              },
                          "audio" : 
                              {
                                "id" : 63,
                                "_type" : "AMFile",
                                "src" : 1,
                                "trackNumber" : 2,
                                "attributes" : {
                                  "ident" : "",
                                  "gain" : 1.0,
                                  "mixToMono" : false,
                                  "loudnessNormalization" : true,
                                  "sourceFileOffset" : 0
                                },
                                  "channelNumber" : "0,1",
                                "effects" : [

                                ],
                                "start" : 0,
                                "duration" : 78227520000,
                                "mediaStart" : 0,
                                "mediaDuration" : 78227520000,
                                "scalar" : 1,
                                "animationTracks" : {

                                }
                              }
,
                          "start" : 0,
                          "duration" : 78227520000,
                          "mediaStart" : 0,
                          "mediaDuration" : 78227520000,
                          "scalar" : 1,
                          "metadata" : {
                            "AutoAppliedSmartFocus" : "False",
                            "audiateLinkedSession" : "",
                            "clipSpeedAttribute" : false,
                            "default-height" : 1250.4,
                            "default-rotation0" : 0.0,
                            "default-rotation1" : 0.0,
                            "default-rotation2" : 0.0,
                            "default-scale0" : 0.96,
                            "default-scale1" : 0.96,
                            "default-shear0" : 0.0,
                            "default-translation0" : 0.0,
                            "default-translation1" : 0.0,
                            "default-translation2" : 0.0,
                            "default-width" : 2150.4
                          }
                        },
                        {
                          "id" : 64,
                          "_type" : "ScreenIMFile",
                          "src" : 1,
                          "trackNumber" : 0,
                          "trimStartSum" : 0,
                          "attributes" : {
                            "ident" : "Rec 5-9-2025-5-09-26-PM",
                            "isPathEdited" : false
                          },
                          "parameters" : {
                            "geometryCrop0" : {
                              "type" : "double",
                              "defaultValue" : 0.0,
                              "interp" : "eioe"
                            },
                            "geometryCrop1" : {
                              "type" : "double",
                              "defaultValue" : 0.0,
                              "interp" : "eioe"
                            },
                            "geometryCrop2" : {
                              "type" : "double",
                              "defaultValue" : 0.0,
                              "interp" : "eioe"
                            },
                            "geometryCrop3" : {
                              "type" : "double",
                              "defaultValue" : 0.0,
                              "interp" : "eioe"
                            },
                            "cursorOpacity" : {
                              "type" : "double",
                              "defaultValue" : 0.0,
                              "interp" : "linr"
                            },
                            "cursorScale" : {
                              "type" : "double",
                              "defaultValue" : 0.0,
                              "interp" : "linr"
                            },
                            "cursorImagePath" : "2b7b6af1-7a1f-11e2-83d0-0017f200be7f/0",
                            "smoothCursorAcrossEditDuration" : 0,
                            "cursorLocation" : {
                              "type" : "point",
                              "keyframes" : [
                                {
                                  "endTime" : 0,
                                  "time" : 0,
                                  "value" : [ 848, 728, 0],
                                  "duration" : 0
                                }
                              ]
                            }
                          },
                          "effects" : [

                          ],
                          "start" : 78227520000,
                          "duration" : 10278240000,
                          "mediaStart" : 78204000000,
                          "mediaDuration" : 1,
                          "scalar" : 1,
                          "metadata" : {
                            "AutoAppliedSmartFocus" : "False",
                            "audiateLinkedSession" : ""
                          },
                          "animationTracks" : {

                          }
                        },
                        {
                          "id" : 65,
                          "_type" : "UnifiedMedia",
                          "video" : 
                              {
                                "id" : 66,
                                "_type" : "ScreenVMFile",
                                "src" : 1,
                                "trackNumber" : 0,
                                "attributes" : {
                                  "ident" : "Rec 5-9-2025-5-09-26-PM"
                                },
                                "parameters" : {
                                  "geometryCrop0" : {
                                    "type" : "double",
                                    "defaultValue" : 0.0,
                                    "interp" : "eioe"
                                  },
                                  "geometryCrop1" : {
                                    "type" : "double",
                                    "defaultValue" : 0.0,
                                    "interp" : "eioe"
                                  },
                                  "geometryCrop2" : {
                                    "type" : "double",
                                    "defaultValue" : 0.0,
                                    "interp" : "eioe"
                                  },
                                  "geometryCrop3" : {
                                    "type" : "double",
                                    "defaultValue" : 0.0,
                                    "interp" : "eioe"
                                  },
                                  "cursorScale" : {
                                    "type" : "double",
                                    "defaultValue" : 0.0,
                                    "interp" : "linr"
                                  },
                                  "cursorOpacity" : {
                                    "type" : "double",
                                    "defaultValue" : 0.0,
                                    "interp" : "linr"
                                  },
                                  "smoothCursorAcrossEditDuration" : 0
                                },
                                "effects" : [

                                ],
                                "start" : 88505760000,
                                "duration" : 40948320000,
                                "mediaStart" : 78227520000,
                                "mediaDuration" : 40948320000,
                                "scalar" : 1,
                                "animationTracks" : {

                                }
                              },
                          "audio" : 
                              {
                                "id" : 67,
                                "_type" : "AMFile",
                                "src" : 1,
                                "trackNumber" : 2,
                                "attributes" : {
                                  "ident" : "",
                                  "gain" : 1.0,
                                  "mixToMono" : false,
                                  "loudnessNormalization" : true,
                                  "sourceFileOffset" : 0
                                },
                                  "channelNumber" : "0,1",
                                "effects" : [

                                ],
                                "start" : 88505760000,
                                "duration" : 40948320000,
                                "mediaStart" : 78227520000,
                                "mediaDuration" : 40948320000,
                                "scalar" : 1,
                                "animationTracks" : {

                                }
                              }
,
                          "start" : 88505760000,
                          "duration" : 40948320000,
                          "mediaStart" : 78227520000,
                          "mediaDuration" : 40948320000,
                          "scalar" : 1,
                          "metadata" : {
                            "AutoAppliedSmartFocus" : "False",
                            "audiateLinkedSession" : "",
                            "clipSpeedAttribute" : false,
                            "default-height" : 1250.4,
                            "default-rotation0" : 0.0,
                            "default-rotation1" : 0.0,
                            "default-rotation2" : 0.0,
                            "default-scale0" : 0.96,
                            "default-scale1" : 0.96,
                            "default-shear0" : 0.0,
                            "default-translation0" : 0.0,
                            "default-translation1" : 0.0,
                            "default-translation2" : 0.0,
                            "default-width" : 2150.4
                          }
                        }
                    ],
                    "effects" : [
                        {
                          "effectName" : "RoundCorners",
                          "bypassed" : false,
                          "category" : "categoryVisualEffects",
                          "parameters" : {
                            "radius" : {
                              "type" : "double",
                              "defaultValue" : 83.75,
                              "interp" : "linr",
                              "uiHints" : {
                                "userInterfaceType" : 0,
                                "unitType" : 0
                              }
                            },
                            "top-left" : {
                              "type" : "double",
                              "defaultValue" : 1.0,
                              "interp" : "linr",
                              "uiHints" : {
                                "userInterfaceType" : 0,
                                "unitType" : 0
                              }
                            },
                            "top-right" : {
                              "type" : "double",
                              "defaultValue" : 1.0,
                              "interp" : "linr",
                              "uiHints" : {
                                "userInterfaceType" : 0,
                                "unitType" : 0
                              }
                            },
                            "bottom-left" : {
                              "type" : "double",
                              "defaultValue" : 1.0,
                              "interp" : "linr",
                              "uiHints" : {
                                "userInterfaceType" : 0,
                                "unitType" : 0
                              }
                            },
                            "bottom-right" : {
                              "type" : "double",
                              "defaultValue" : 1.0,
                              "interp" : "linr",
                              "uiHints" : {
                                "userInterfaceType" : 0,
                                "unitType" : 0
                              }
                            }
                          },
                          "metadata" : {
                            "effectIndex" : "0"
                          }
                        }
                    ],
                    "start" : 77451360000,
                    "duration" : 11830560000,
                    "mediaStart" : 77380800000,
                    "mediaDuration" : 11830560000,
                    "scalar" : 1,
                    "metadata" : {
                      "AutoAppliedSmartFocus" : "False",
                      "audiateLinkedSession" : "",
                      "clipSpeedAttribute" : false,
                      "default-height" : 1371.40651911614,
                      "default-rotation0" : 0.0,
                      "default-rotation1" : 0.0,
                      "default-rotation2" : 0.0,
                      "default-scale0" : 1.05290316657686,
                      "default-scale1" : 1.05290327763235,
                      "default-shear0" : 0.0,
                      "default-translation0" : -9.89360137282347e-05,
                      "default-translation1" : -64.8387623369159,
                      "default-translation2" : 0.0,
                      "default-width" : 2358.50309313216
                    },
                    "animationTracks" : {
                      "visual" : [
                        {
                          "endTime" : 0,
                          "duration" : 705600000,
                          "range" : [ -705600000, 705600000]
                        },
                        {
                          "endTime" : 85706880000,
                          "duration" : 1764000000,
                          "range" : [ 83942880000, 1764000000]
                        }
                      ]
                    }
                  },
                  {
                    "id" : 68,
                    "_type" : "UnifiedMedia",
                    "video" : 
                        {
                          "id" : 69,
                          "_type" : "ScreenVMFile",
                          "src" : 1,
                          "trackNumber" : 0,
                          "attributes" : {
                            "ident" : "Rec 5-9-2025-5-09-26-PM"
                          },
                          "parameters" : {
                            "translation0" : {
                              "type" : "double",
                              "defaultValue" : 0.0,
                              "interp" : "eioe",
                              "keyframes" : [
                                {
                                  "endTime" : 0,
                                  "time" : -705600000,
                                  "value" : -9.89360137282347e-05,
                                  "duration" : 705600000
                                }
                              ]
                            },
                            "translation1" : {
                              "type" : "double",
                              "defaultValue" : 0.0,
                              "interp" : "eioe",
                              "keyframes" : [
                                {
                                  "endTime" : 0,
                                  "time" : -705600000,
                                  "value" : -64.8387623369159,
                                  "duration" : 705600000
                                }
                              ]
                            },
                            "scale0" : {
                              "type" : "double",
                              "defaultValue" : 0.96,
                              "interp" : "eioe",
                              "keyframes" : [
                                {
                                  "endTime" : 0,
                                  "time" : -705600000,
                                  "value" : 1.05290316657686,
                                  "duration" : 705600000
                                }
                              ]
                            },
                            "scale1" : {
                              "type" : "double",
                              "defaultValue" : 0.96,
                              "interp" : "eioe",
                              "keyframes" : [
                                {
                                  "endTime" : 0,
                                  "time" : -705600000,
                                  "value" : 1.05290327763235,
                                  "duration" : 705600000
                                }
                              ]
                            },
                            "geometryCrop0" : {
                              "type" : "double",
                              "defaultValue" : 0.0,
                              "interp" : "eioe"
                            },
                            "geometryCrop1" : {
                              "type" : "double",
                              "defaultValue" : 18.75,
                              "interp" : "eioe"
                            },
                            "geometryCrop2" : {
                              "type" : "double",
                              "defaultValue" : 0.0,
                              "interp" : "eioe"
                            },
                            "geometryCrop3" : {
                              "type" : "double",
                              "defaultValue" : 18.75,
                              "interp" : "eioe"
                            },
                            "cursorScale" : {
                              "type" : "double",
                              "defaultValue" : 2.25,
                              "interp" : "linr"
                            },
                            "cursorOpacity" : {
                              "type" : "double",
                              "defaultValue" : 1.0,
                              "interp" : "linr"
                            },
                            "smoothCursorAcrossEditDuration" : 0
                          },
                          "effects" : [
                              {
                                "effectName" : "RoundCorners",
                                "bypassed" : false,
                                "category" : "categoryVisualEffects",
                                "parameters" : {
                                  "radius" : {
                                    "type" : "double",
                                    "defaultValue" : 83.75,
                                    "interp" : "linr",
                                    "uiHints" : {
                                      "userInterfaceType" : 0,
                                      "unitType" : 0
                                    }
                                  },
                                  "top-left" : {
                                    "type" : "double",
                                    "defaultValue" : 1.0,
                                    "interp" : "linr",
                                    "uiHints" : {
                                      "userInterfaceType" : 0,
                                      "unitType" : 0
                                    }
                                  },
                                  "top-right" : {
                                    "type" : "double",
                                    "defaultValue" : 1.0,
                                    "interp" : "linr",
                                    "uiHints" : {
                                      "userInterfaceType" : 0,
                                      "unitType" : 0
                                    }
                                  },
                                  "bottom-left" : {
                                    "type" : "double",
                                    "defaultValue" : 1.0,
                                    "interp" : "linr",
                                    "uiHints" : {
                                      "userInterfaceType" : 0,
                                      "unitType" : 0
                                    }
                                  },
                                  "bottom-right" : {
                                    "type" : "double",
                                    "defaultValue" : 1.0,
                                    "interp" : "linr",
                                    "uiHints" : {
                                      "userInterfaceType" : 0,
                                      "unitType" : 0
                                    }
                                  }
                                },
                                "metadata" : {
                                  "effectIndex" : "0"
                                }
                              }
                          ],
                          "start" : 89281920000,
                          "duration" : 1952160000,
                          "mediaStart" : 78933120000,
                          "mediaDuration" : 1952160000,
                          "scalar" : 1,
                          "animationTracks" : {
                            "visual" : [
                              {
                                "endTime" : 0,
                                "duration" : 705600000,
                                "range" : [ -705600000, 705600000]
                              }
                            ]
                          }
                        },
                    "audio" : 
                        {
                          "id" : 70,
                          "_type" : "AMFile",
                          "src" : 1,
                          "trackNumber" : 2,
                          "attributes" : {
                            "ident" : "",
                            "gain" : 1.0,
                            "mixToMono" : false,
                            "loudnessNormalization" : true,
                            "sourceFileOffset" : 0
                          },
                            "channelNumber" : "0,1",
                          "effects" : [

                          ],
                          "start" : 89281920000,
                          "duration" : 1952160000,
                          "mediaStart" : 78933120000,
                          "mediaDuration" : 1952160000,
                          "scalar" : 1,
                          "animationTracks" : {

                          }
                        }
,
                    "start" : 89281920000,
                    "duration" : 1952160000,
                    "mediaStart" : 78933120000,
                    "mediaDuration" : 1952160000,
                    "scalar" : 1,
                    "metadata" : {
                      "AutoAppliedSmartFocus" : "False",
                      "audiateLinkedSession" : "",
                      "clipSpeedAttribute" : false,
                      "default-height" : 1250.4,
                      "default-rotation0" : 0.0,
                      "default-rotation1" : 0.0,
                      "default-rotation2" : 0.0,
                      "default-scale0" : 0.96,
                      "default-scale1" : 0.96,
                      "default-shear0" : 0.0,
                      "default-translation0" : 0.0,
                      "default-translation1" : 0.0,
                      "default-translation2" : 0.0,
                      "default-width" : 2150.4
                    }
                  },
                  {
                    "id" : 71,
                    "_type" : "UnifiedMedia",
                    "video" : 
                        {
                          "id" : 72,
                          "_type" : "ScreenVMFile",
                          "src" : 1,
                          "trackNumber" : 0,
                          "attributes" : {
                            "ident" : "Rec 5-9-2025-5-09-26-PM"
                          },
                          "parameters" : {
                            "translation0" : {
                              "type" : "double",
                              "defaultValue" : 0.0,
                              "interp" : "eioe",
                              "keyframes" : [
                                {
                                  "endTime" : 0,
                                  "time" : -705600000,
                                  "value" : -9.89360137282347e-05,
                                  "duration" : 705600000
                                }
                              ]
                            },
                            "translation1" : {
                              "type" : "double",
                              "defaultValue" : 0.0,
                              "interp" : "eioe",
                              "keyframes" : [
                                {
                                  "endTime" : 0,
                                  "time" : -705600000,
                                  "value" : -64.8387623369159,
                                  "duration" : 705600000
                                }
                              ]
                            },
                            "scale0" : {
                              "type" : "double",
                              "defaultValue" : 0.96,
                              "interp" : "eioe",
                              "keyframes" : [
                                {
                                  "endTime" : 0,
                                  "time" : -705600000,
                                  "value" : 1.05290316657686,
                                  "duration" : 705600000
                                }
                              ]
                            },
                            "scale1" : {
                              "type" : "double",
                              "defaultValue" : 0.96,
                              "interp" : "eioe",
                              "keyframes" : [
                                {
                                  "endTime" : 0,
                                  "time" : -705600000,
                                  "value" : 1.05290327763235,
                                  "duration" : 705600000
                                }
                              ]
                            },
                            "geometryCrop0" : {
                              "type" : "double",
                              "defaultValue" : 0.0,
                              "interp" : "eioe"
                            },
                            "geometryCrop1" : {
                              "type" : "double",
                              "defaultValue" : 18.75,
                              "interp" : "eioe"
                            },
                            "geometryCrop2" : {
                              "type" : "double",
                              "defaultValue" : 0.0,
                              "interp" : "eioe"
                            },
                            "geometryCrop3" : {
                              "type" : "double",
                              "defaultValue" : 18.75,
                              "interp" : "eioe"
                            },
                            "cursorScale" : {
                              "type" : "double",
                              "defaultValue" : 2.25,
                              "interp" : "linr"
                            },
                            "cursorOpacity" : {
                              "type" : "double",
                              "defaultValue" : 1.0,
                              "interp" : "linr"
                            },
                            "smoothCursorAcrossEditDuration" : 0
                          },
                          "effects" : [
                              {
                                "effectName" : "RoundCorners",
                                "bypassed" : false,
                                "category" : "categoryVisualEffects",
                                "parameters" : {
                                  "radius" : {
                                    "type" : "double",
                                    "defaultValue" : 83.75,
                                    "interp" : "linr",
                                    "uiHints" : {
                                      "userInterfaceType" : 0,
                                      "unitType" : 0
                                    }
                                  },
                                  "top-left" : {
                                    "type" : "double",
                                    "defaultValue" : 1.0,
                                    "interp" : "linr",
                                    "uiHints" : {
                                      "userInterfaceType" : 0,
                                      "unitType" : 0
                                    }
                                  },
                                  "top-right" : {
                                    "type" : "double",
                                    "defaultValue" : 1.0,
                                    "interp" : "linr",
                                    "uiHints" : {
                                      "userInterfaceType" : 0,
                                      "unitType" : 0
                                    }
                                  },
                                  "bottom-left" : {
                                    "type" : "double",
                                    "defaultValue" : 1.0,
                                    "interp" : "linr",
                                    "uiHints" : {
                                      "userInterfaceType" : 0,
                                      "unitType" : 0
                                    }
                                  },
                                  "bottom-right" : {
                                    "type" : "double",
                                    "defaultValue" : 1.0,
                                    "interp" : "linr",
                                    "uiHints" : {
                                      "userInterfaceType" : 0,
                                      "unitType" : 0
                                    }
                                  }
                                },
                                "metadata" : {
                                  "effectIndex" : "0"
                                }
                              }
                          ],
                          "start" : 91234080000,
                          "duration" : 2916480000,
                          "mediaStart" : 80885280000,
                          "mediaDuration" : 3716160000,
                          "scalar" : "62/79",
                          "animationTracks" : {
                            "visual" : [
                              {
                                "endTime" : 0,
                                "duration" : 705600000,
                                "range" : [ -705600000, 705600000]
                              }
                            ]
                          }
                        },
                    "audio" : 
                        {
                          "id" : 73,
                          "_type" : "AMFile",
                          "src" : 1,
                          "trackNumber" : 2,
                          "attributes" : {
                            "ident" : "",
                            "gain" : 1.0,
                            "mixToMono" : false,
                            "loudnessNormalization" : true,
                            "sourceFileOffset" : 0
                          },
                            "channelNumber" : "0,1",
                          "effects" : [

                          ],
                          "start" : 91234080000,
                          "duration" : 2916480000,
                          "mediaStart" : 80885280000,
                          "mediaDuration" : 3716160000,
                          "scalar" : "62/79",
                          "animationTracks" : {

                          }
                        }
,
                    "start" : 91234080000,
                    "duration" : 2916480000,
                    "mediaStart" : 80885280000,
                    "mediaDuration" : 3716160000,
                    "scalar" : "62/79",
                    "metadata" : {
                      "AutoAppliedSmartFocus" : "False",
                      "audiateLinkedSession" : "",
                      "clipSpeedAttribute" : true,
                      "default-height" : 1250.4,
                      "default-rotation0" : 0.0,
                      "default-rotation1" : 0.0,
                      "default-rotation2" : 0.0,
                      "default-scale0" : 0.96,
                      "default-scale1" : 0.96,
                      "default-shear0" : 0.0,
                      "default-translation0" : 0.0,
                      "default-translation1" : 0.0,
                      "default-translation2" : 0.0,
                      "default-width" : 2150.4
                    }
                  },
                  {
                    "id" : 74,
                    "_type" : "UnifiedMedia",
                    "video" : 
                        {
                          "id" : 75,
                          "_type" : "ScreenVMFile",
                          "src" : 1,
                          "trackNumber" : 0,
                          "attributes" : {
                            "ident" : "Rec 5-9-2025-5-09-26-PM"
                          },
                          "parameters" : {
                            "translation0" : {
                              "type" : "double",
                              "defaultValue" : 0.0,
                              "interp" : "eioe",
                              "keyframes" : [
                                {
                                  "endTime" : 0,
                                  "time" : -705600000,
                                  "value" : -9.89360137282347e-05,
                                  "duration" : 705600000
                                }
                              ]
                            },
                            "translation1" : {
                              "type" : "double",
                              "defaultValue" : 0.0,
                              "interp" : "eioe",
                              "keyframes" : [
                                {
                                  "endTime" : 0,
                                  "time" : -705600000,
                                  "value" : -64.8387623369159,
                                  "duration" : 705600000
                                }
                              ]
                            },
                            "scale0" : {
                              "type" : "double",
                              "defaultValue" : 0.96,
                              "interp" : "eioe",
                              "keyframes" : [
                                {
                                  "endTime" : 0,
                                  "time" : -705600000,
                                  "value" : 1.05290316657686,
                                  "duration" : 705600000
                                }
                              ]
                            },
                            "scale1" : {
                              "type" : "double",
                              "defaultValue" : 0.96,
                              "interp" : "eioe",
                              "keyframes" : [
                                {
                                  "endTime" : 0,
                                  "time" : -705600000,
                                  "value" : 1.05290327763235,
                                  "duration" : 705600000
                                }
                              ]
                            },
                            "geometryCrop0" : {
                              "type" : "double",
                              "defaultValue" : 0.0,
                              "interp" : "eioe"
                            },
                            "geometryCrop1" : {
                              "type" : "double",
                              "defaultValue" : 18.75,
                              "interp" : "eioe"
                            },
                            "geometryCrop2" : {
                              "type" : "double",
                              "defaultValue" : 0.0,
                              "interp" : "eioe"
                            },
                            "geometryCrop3" : {
                              "type" : "double",
                              "defaultValue" : 18.75,
                              "interp" : "eioe"
                            },
                            "cursorScale" : {
                              "type" : "double",
                              "defaultValue" : 2.25,
                              "interp" : "linr"
                            },
                            "cursorOpacity" : {
                              "type" : "double",
                              "defaultValue" : 1.0,
                              "interp" : "linr"
                            },
                            "smoothCursorAcrossEditDuration" : 0
                          },
                          "effects" : [
                              {
                                "effectName" : "RoundCorners",
                                "bypassed" : false,
                                "category" : "categoryVisualEffects",
                                "parameters" : {
                                  "radius" : {
                                    "type" : "double",
                                    "defaultValue" : 83.75,
                                    "interp" : "linr",
                                    "uiHints" : {
                                      "userInterfaceType" : 0,
                                      "unitType" : 0
                                    }
                                  },
                                  "top-left" : {
                                    "type" : "double",
                                    "defaultValue" : 1.0,
                                    "interp" : "linr",
                                    "uiHints" : {
                                      "userInterfaceType" : 0,
                                      "unitType" : 0
                                    }
                                  },
                                  "top-right" : {
                                    "type" : "double",
                                    "defaultValue" : 1.0,
                                    "interp" : "linr",
                                    "uiHints" : {
                                      "userInterfaceType" : 0,
                                      "unitType" : 0
                                    }
                                  },
                                  "bottom-left" : {
                                    "type" : "double",
                                    "defaultValue" : 1.0,
                                    "interp" : "linr",
                                    "uiHints" : {
                                      "userInterfaceType" : 0,
                                      "unitType" : 0
                                    }
                                  },
                                  "bottom-right" : {
                                    "type" : "double",
                                    "defaultValue" : 1.0,
                                    "interp" : "linr",
                                    "uiHints" : {
                                      "userInterfaceType" : 0,
                                      "unitType" : 0
                                    }
                                  }
                                },
                                "metadata" : {
                                  "effectIndex" : "0"
                                }
                              }
                          ],
                          "start" : 94150560000,
                          "duration" : 2140320000,
                          "mediaStart" : 84601440000,
                          "mediaDuration" : 2140320000,
                          "scalar" : 1,
                          "animationTracks" : {
                            "visual" : [
                              {
                                "endTime" : 0,
                                "duration" : 705600000,
                                "range" : [ -705600000, 705600000]
                              }
                            ]
                          }
                        },
                    "audio" : 
                        {
                          "id" : 76,
                          "_type" : "AMFile",
                          "src" : 1,
                          "trackNumber" : 2,
                          "attributes" : {
                            "ident" : "",
                            "gain" : 1.0,
                            "mixToMono" : false,
                            "loudnessNormalization" : true,
                            "sourceFileOffset" : 0
                          },
                            "channelNumber" : "0,1",
                          "effects" : [

                          ],
                          "start" : 94150560000,
                          "duration" : 2140320000,
                          "mediaStart" : 84601440000,
                          "mediaDuration" : 2140320000,
                          "scalar" : 1,
                          "animationTracks" : {

                          }
                        }
,
                    "start" : 94150560000,
                    "duration" : 2140320000,
                    "mediaStart" : 84601440000,
                    "mediaDuration" : 2140320000,
                    "scalar" : 1,
                    "metadata" : {
                      "AutoAppliedSmartFocus" : "False",
                      "audiateLinkedSession" : "",
                      "clipSpeedAttribute" : false,
                      "default-height" : 1250.4,
                      "default-rotation0" : 0.0,
                      "default-rotation1" : 0.0,
                      "default-rotation2" : 0.0,
                      "default-scale0" : 0.96,
                      "default-scale1" : 0.96,
                      "default-shear0" : 0.0,
                      "default-translation0" : 0.0,
                      "default-translation1" : 0.0,
                      "default-translation2" : 0.0,
                      "default-width" : 2150.4
                    }
                  },
                  {
                    "id" : 77,
                    "_type" : "UnifiedMedia",
                    "video" : 
                        {
                          "id" : 78,
                          "_type" : "ScreenVMFile",
                          "src" : 1,
                          "trackNumber" : 0,
                          "attributes" : {
                            "ident" : "Rec 5-9-2025-5-09-26-PM"
                          },
                          "parameters" : {
                            "translation0" : {
                              "type" : "double",
                              "defaultValue" : 0.0,
                              "interp" : "eioe",
                              "keyframes" : [
                                {
                                  "endTime" : 0,
                                  "time" : -705600000,
                                  "value" : -9.89360137282347e-05,
                                  "duration" : 705600000
                                }
                              ]
                            },
                            "translation1" : {
                              "type" : "double",
                              "defaultValue" : 0.0,
                              "interp" : "eioe",
                              "keyframes" : [
                                {
                                  "endTime" : 0,
                                  "time" : -705600000,
                                  "value" : -64.8387623369159,
                                  "duration" : 705600000
                                }
                              ]
                            },
                            "scale0" : {
                              "type" : "double",
                              "defaultValue" : 0.96,
                              "interp" : "eioe",
                              "keyframes" : [
                                {
                                  "endTime" : 0,
                                  "time" : -705600000,
                                  "value" : 1.05290316657686,
                                  "duration" : 705600000
                                }
                              ]
                            },
                            "scale1" : {
                              "type" : "double",
                              "defaultValue" : 0.96,
                              "interp" : "eioe",
                              "keyframes" : [
                                {
                                  "endTime" : 0,
                                  "time" : -705600000,
                                  "value" : 1.05290327763235,
                                  "duration" : 705600000
                                }
                              ]
                            },
                            "geometryCrop0" : {
                              "type" : "double",
                              "defaultValue" : 0.0,
                              "interp" : "eioe"
                            },
                            "geometryCrop1" : {
                              "type" : "double",
                              "defaultValue" : 18.75,
                              "interp" : "eioe"
                            },
                            "geometryCrop2" : {
                              "type" : "double",
                              "defaultValue" : 0.0,
                              "interp" : "eioe"
                            },
                            "geometryCrop3" : {
                              "type" : "double",
                              "defaultValue" : 18.75,
                              "interp" : "eioe"
                            },
                            "cursorScale" : {
                              "type" : "double",
                              "defaultValue" : 2.25,
                              "interp" : "linr"
                            },
                            "cursorOpacity" : {
                              "type" : "double",
                              "defaultValue" : 1.0,
                              "interp" : "linr"
                            },
                            "smoothCursorAcrossEditDuration" : 0
                          },
                          "effects" : [
                              {
                                "effectName" : "RoundCorners",
                                "bypassed" : false,
                                "category" : "categoryVisualEffects",
                                "parameters" : {
                                  "radius" : {
                                    "type" : "double",
                                    "defaultValue" : 83.75,
                                    "interp" : "linr",
                                    "uiHints" : {
                                      "userInterfaceType" : 0,
                                      "unitType" : 0
                                    }
                                  },
                                  "top-left" : {
                                    "type" : "double",
                                    "defaultValue" : 1.0,
                                    "interp" : "linr",
                                    "uiHints" : {
                                      "userInterfaceType" : 0,
                                      "unitType" : 0
                                    }
                                  },
                                  "top-right" : {
                                    "type" : "double",
                                    "defaultValue" : 1.0,
                                    "interp" : "linr",
                                    "uiHints" : {
                                      "userInterfaceType" : 0,
                                      "unitType" : 0
                                    }
                                  },
                                  "bottom-left" : {
                                    "type" : "double",
                                    "defaultValue" : 1.0,
                                    "interp" : "linr",
                                    "uiHints" : {
                                      "userInterfaceType" : 0,
                                      "unitType" : 0
                                    }
                                  },
                                  "bottom-right" : {
                                    "type" : "double",
                                    "defaultValue" : 1.0,
                                    "interp" : "linr",
                                    "uiHints" : {
                                      "userInterfaceType" : 0,
                                      "unitType" : 0
                                    }
                                  }
                                },
                                "metadata" : {
                                  "effectIndex" : "0"
                                }
                              }
                          ],
                          "start" : 96290880000,
                          "duration" : 493920000,
                          "mediaStart" : 87823680000,
                          "mediaDuration" : 493920000,
                          "scalar" : 1,
                          "animationTracks" : {
                            "visual" : [
                              {
                                "endTime" : 0,
                                "duration" : 705600000,
                                "range" : [ -705600000, 705600000]
                              }
                            ]
                          }
                        },
                    "audio" : 
                        {
                          "id" : 79,
                          "_type" : "AMFile",
                          "src" : 1,
                          "trackNumber" : 2,
                          "attributes" : {
                            "ident" : "",
                            "gain" : 1.0,
                            "mixToMono" : false,
                            "loudnessNormalization" : true,
                            "sourceFileOffset" : 0
                          },
                            "channelNumber" : "0,1",
                          "effects" : [

                          ],
                          "start" : 96290880000,
                          "duration" : 493920000,
                          "mediaStart" : 87823680000,
                          "mediaDuration" : 493920000,
                          "scalar" : 1,
                          "animationTracks" : {

                          }
                        }
,
                    "start" : 96290880000,
                    "duration" : 493920000,
                    "mediaStart" : 87823680000,
                    "mediaDuration" : 493920000,
                    "scalar" : 1,
                    "metadata" : {
                      "AutoAppliedSmartFocus" : "False",
                      "audiateLinkedSession" : "",
                      "clipSpeedAttribute" : false,
                      "default-height" : 1250.4,
                      "default-rotation0" : 0.0,
                      "default-rotation1" : 0.0,
                      "default-rotation2" : 0.0,
                      "default-scale0" : 0.96,
                      "default-scale1" : 0.96,
                      "default-shear0" : 0.0,
                      "default-translation0" : 0.0,
                      "default-translation1" : 0.0,
                      "default-translation2" : 0.0,
                      "default-width" : 2150.4
                    }
                  },
                  {
                    "id" : 80,
                    "_type" : "UnifiedMedia",
                    "video" : 
                        {
                          "id" : 81,
                          "_type" : "ScreenVMFile",
                          "src" : 1,
                          "trackNumber" : 0,
                          "attributes" : {
                            "ident" : "Rec 5-9-2025-5-09-26-PM"
                          },
                          "parameters" : {
                            "translation0" : {
                              "type" : "double",
                              "defaultValue" : 0.0,
                              "interp" : "eioe",
                              "keyframes" : [
                                {
                                  "endTime" : 0,
                                  "time" : -705600000,
                                  "value" : -9.89360137282347e-05,
                                  "duration" : 705600000
                                }
                              ]
                            },
                            "translation1" : {
                              "type" : "double",
                              "defaultValue" : 0.0,
                              "interp" : "eioe",
                              "keyframes" : [
                                {
                                  "endTime" : 0,
                                  "time" : -705600000,
                                  "value" : -64.8387623369159,
                                  "duration" : 705600000
                                }
                              ]
                            },
                            "scale0" : {
                              "type" : "double",
                              "defaultValue" : 0.96,
                              "interp" : "eioe",
                              "keyframes" : [
                                {
                                  "endTime" : 0,
                                  "time" : -705600000,
                                  "value" : 1.05290316657686,
                                  "duration" : 705600000
                                }
                              ]
                            },
                            "scale1" : {
                              "type" : "double",
                              "defaultValue" : 0.96,
                              "interp" : "eioe",
                              "keyframes" : [
                                {
                                  "endTime" : 0,
                                  "time" : -705600000,
                                  "value" : 1.05290327763235,
                                  "duration" : 705600000
                                }
                              ]
                            },
                            "geometryCrop0" : {
                              "type" : "double",
                              "defaultValue" : 0.0,
                              "interp" : "eioe"
                            },
                            "geometryCrop1" : {
                              "type" : "double",
                              "defaultValue" : 18.75,
                              "interp" : "eioe"
                            },
                            "geometryCrop2" : {
                              "type" : "double",
                              "defaultValue" : 0.0,
                              "interp" : "eioe"
                            },
                            "geometryCrop3" : {
                              "type" : "double",
                              "defaultValue" : 18.75,
                              "interp" : "eioe"
                            },
                            "cursorScale" : {
                              "type" : "double",
                              "defaultValue" : 2.25,
                              "interp" : "linr"
                            },
                            "cursorOpacity" : {
                              "type" : "double",
                              "defaultValue" : 1.0,
                              "interp" : "linr"
                            },
                            "smoothCursorAcrossEditDuration" : 0
                          },
                          "effects" : [
                              {
                                "effectName" : "RoundCorners",
                                "bypassed" : false,
                                "category" : "categoryVisualEffects",
                                "parameters" : {
                                  "radius" : {
                                    "type" : "double",
                                    "defaultValue" : 83.75,
                                    "interp" : "linr",
                                    "uiHints" : {
                                      "userInterfaceType" : 0,
                                      "unitType" : 0
                                    }
                                  },
                                  "top-left" : {
                                    "type" : "double",
                                    "defaultValue" : 1.0,
                                    "interp" : "linr",
                                    "uiHints" : {
                                      "userInterfaceType" : 0,
                                      "unitType" : 0
                                    }
                                  },
                                  "top-right" : {
                                    "type" : "double",
                                    "defaultValue" : 1.0,
                                    "interp" : "linr",
                                    "uiHints" : {
                                      "userInterfaceType" : 0,
                                      "unitType" : 0
                                    }
                                  },
                                  "bottom-left" : {
                                    "type" : "double",
                                    "defaultValue" : 1.0,
                                    "interp" : "linr",
                                    "uiHints" : {
                                      "userInterfaceType" : 0,
                                      "unitType" : 0
                                    }
                                  },
                                  "bottom-right" : {
                                    "type" : "double",
                                    "defaultValue" : 1.0,
                                    "interp" : "linr",
                                    "uiHints" : {
                                      "userInterfaceType" : 0,
                                      "unitType" : 0
                                    }
                                  }
                                },
                                "metadata" : {
                                  "effectIndex" : "0"
                                }
                              }
                          ],
                          "start" : 96784800000,
                          "duration" : 164640000,
                          "mediaStart" : 97819680000,
                          "mediaDuration" : 164640000,
                          "scalar" : 1,
                          "animationTracks" : {
                            "visual" : [
                              {
                                "endTime" : 0,
                                "duration" : 705600000,
                                "range" : [ -705600000, 705600000]
                              }
                            ]
                          }
                        },
                    "audio" : 
                        {
                          "id" : 82,
                          "_type" : "AMFile",
                          "src" : 1,
                          "trackNumber" : 2,
                          "attributes" : {
                            "ident" : "",
                            "gain" : 1.0,
                            "mixToMono" : false,
                            "loudnessNormalization" : true,
                            "sourceFileOffset" : 0
                          },
                            "channelNumber" : "0,1",
                          "effects" : [

                          ],
                          "start" : 96784800000,
                          "duration" : 164640000,
                          "mediaStart" : 97819680000,
                          "mediaDuration" : 164640000,
                          "scalar" : 1,
                          "animationTracks" : {

                          }
                        }
,
                    "start" : 96784800000,
                    "duration" : 164640000,
                    "mediaStart" : 97819680000,
                    "mediaDuration" : 164640000,
                    "scalar" : 1,
                    "metadata" : {
                      "AutoAppliedSmartFocus" : "False",
                      "audiateLinkedSession" : "",
                      "clipSpeedAttribute" : false,
                      "default-height" : 1250.4,
                      "default-rotation0" : 0.0,
                      "default-rotation1" : 0.0,
                      "default-rotation2" : 0.0,
                      "default-scale0" : 0.96,
                      "default-scale1" : 0.96,
                      "default-shear0" : 0.0,
                      "default-translation0" : 0.0,
                      "default-translation1" : 0.0,
                      "default-translation2" : 0.0,
                      "default-width" : 2150.4
                    }
                  },
                  {
                    "id" : 83,
                    "_type" : "UnifiedMedia",
                    "video" : 
                        {
                          "id" : 84,
                          "_type" : "ScreenVMFile",
                          "src" : 1,
                          "trackNumber" : 0,
                          "attributes" : {
                            "ident" : "Rec 5-9-2025-5-09-26-PM"
                          },
                          "parameters" : {
                            "translation0" : {
                              "type" : "double",
                              "defaultValue" : 0.0,
                              "interp" : "eioe",
                              "keyframes" : [
                                {
                                  "endTime" : 0,
                                  "time" : -705600000,
                                  "value" : -9.89360137282347e-05,
                                  "duration" : 705600000
                                }
                              ]
                            },
                            "translation1" : {
                              "type" : "double",
                              "defaultValue" : 0.0,
                              "interp" : "eioe",
                              "keyframes" : [
                                {
                                  "endTime" : 0,
                                  "time" : -705600000,
                                  "value" : -64.8387623369159,
                                  "duration" : 705600000
                                }
                              ]
                            },
                            "scale0" : {
                              "type" : "double",
                              "defaultValue" : 0.96,
                              "interp" : "eioe",
                              "keyframes" : [
                                {
                                  "endTime" : 0,
                                  "time" : -705600000,
                                  "value" : 1.05290316657686,
                                  "duration" : 705600000
                                }
                              ]
                            },
                            "scale1" : {
                              "type" : "double",
                              "defaultValue" : 0.96,
                              "interp" : "eioe",
                              "keyframes" : [
                                {
                                  "endTime" : 0,
                                  "time" : -705600000,
                                  "value" : 1.05290327763235,
                                  "duration" : 705600000
                                }
                              ]
                            },
                            "geometryCrop0" : {
                              "type" : "double",
                              "defaultValue" : 0.0,
                              "interp" : "eioe"
                            },
                            "geometryCrop1" : {
                              "type" : "double",
                              "defaultValue" : 18.75,
                              "interp" : "eioe"
                            },
                            "geometryCrop2" : {
                              "type" : "double",
                              "defaultValue" : 0.0,
                              "interp" : "eioe"
                            },
                            "geometryCrop3" : {
                              "type" : "double",
                              "defaultValue" : 18.75,
                              "interp" : "eioe"
                            },
                            "cursorScale" : {
                              "type" : "double",
                              "defaultValue" : 2.25,
                              "interp" : "linr"
                            },
                            "cursorOpacity" : {
                              "type" : "double",
                              "defaultValue" : 1.0,
                              "interp" : "linr"
                            },
                            "smoothCursorAcrossEditDuration" : 0
                          },
                          "effects" : [
                              {
                                "effectName" : "RoundCorners",
                                "bypassed" : false,
                                "category" : "categoryVisualEffects",
                                "parameters" : {
                                  "radius" : {
                                    "type" : "double",
                                    "defaultValue" : 83.75,
                                    "interp" : "linr",
                                    "uiHints" : {
                                      "userInterfaceType" : 0,
                                      "unitType" : 0
                                    }
                                  },
                                  "top-left" : {
                                    "type" : "double",
                                    "defaultValue" : 1.0,
                                    "interp" : "linr",
                                    "uiHints" : {
                                      "userInterfaceType" : 0,
                                      "unitType" : 0
                                    }
                                  },
                                  "top-right" : {
                                    "type" : "double",
                                    "defaultValue" : 1.0,
                                    "interp" : "linr",
                                    "uiHints" : {
                                      "userInterfaceType" : 0,
                                      "unitType" : 0
                                    }
                                  },
                                  "bottom-left" : {
                                    "type" : "double",
                                    "defaultValue" : 1.0,
                                    "interp" : "linr",
                                    "uiHints" : {
                                      "userInterfaceType" : 0,
                                      "unitType" : 0
                                    }
                                  },
                                  "bottom-right" : {
                                    "type" : "double",
                                    "defaultValue" : 1.0,
                                    "interp" : "linr",
                                    "uiHints" : {
                                      "userInterfaceType" : 0,
                                      "unitType" : 0
                                    }
                                  }
                                },
                                "metadata" : {
                                  "effectIndex" : "0"
                                }
                              }
                          ],
                          "start" : 96949440000,
                          "duration" : 5244960000,
                          "mediaStart" : 97984320000,
                          "mediaDuration" : 2704800000,
                          "scalar" : "223/115",
                          "animationTracks" : {
                            "visual" : [
                              {
                                "endTime" : 0,
                                "duration" : 705600000,
                                "range" : [ -705600000, 705600000]
                              }
                            ]
                          }
                        },
                    "audio" : 
                        {
                          "id" : 85,
                          "_type" : "AMFile",
                          "src" : 1,
                          "trackNumber" : 2,
                          "attributes" : {
                            "ident" : "",
                            "gain" : 1.0,
                            "mixToMono" : false,
                            "loudnessNormalization" : true,
                            "sourceFileOffset" : 0
                          },
                            "channelNumber" : "0,1",
                          "effects" : [

                          ],
                          "start" : 96949440000,
                          "duration" : 5244960000,
                          "mediaStart" : 97984320000,
                          "mediaDuration" : 2704800000,
                          "scalar" : "223/115",
                          "animationTracks" : {

                          }
                        }
,
                    "start" : 96949440000,
                    "duration" : 5244960000,
                    "mediaStart" : 97984320000,
                    "mediaDuration" : 2704800000,
                    "scalar" : "223/115",
                    "metadata" : {
                      "AutoAppliedSmartFocus" : "False",
                      "audiateLinkedSession" : "",
                      "clipSpeedAttribute" : true,
                      "default-height" : 1250.4,
                      "default-rotation0" : 0.0,
                      "default-rotation1" : 0.0,
                      "default-rotation2" : 0.0,
                      "default-scale0" : 0.96,
                      "default-scale1" : 0.96,
                      "default-shear0" : 0.0,
                      "default-translation0" : 0.0,
                      "default-translation1" : 0.0,
                      "default-translation2" : 0.0,
                      "default-width" : 2150.4
                    }
                  },
                  {
                    "id" : 86,
                    "_type" : "UnifiedMedia",
                    "video" : 
                        {
                          "id" : 87,
                          "_type" : "ScreenVMFile",
                          "src" : 1,
                          "trackNumber" : 0,
                          "attributes" : {
                            "ident" : "Rec 5-9-2025-5-09-26-PM"
                          },
                          "parameters" : {
                            "translation0" : {
                              "type" : "double",
                              "defaultValue" : 0.0,
                              "interp" : "eioe",
                              "keyframes" : [
                                {
                                  "endTime" : 0,
                                  "time" : -705600000,
                                  "value" : -9.89360137282347e-05,
                                  "duration" : 705600000
                                }
                              ]
                            },
                            "translation1" : {
                              "type" : "double",
                              "defaultValue" : 0.0,
                              "interp" : "eioe",
                              "keyframes" : [
                                {
                                  "endTime" : 0,
                                  "time" : -705600000,
                                  "value" : -64.8387623369159,
                                  "duration" : 705600000
                                }
                              ]
                            },
                            "scale0" : {
                              "type" : "double",
                              "defaultValue" : 0.96,
                              "interp" : "eioe",
                              "keyframes" : [
                                {
                                  "endTime" : 0,
                                  "time" : -705600000,
                                  "value" : 1.05290316657686,
                                  "duration" : 705600000
                                }
                              ]
                            },
                            "scale1" : {
                              "type" : "double",
                              "defaultValue" : 0.96,
                              "interp" : "eioe",
                              "keyframes" : [
                                {
                                  "endTime" : 0,
                                  "time" : -705600000,
                                  "value" : 1.05290327763235,
                                  "duration" : 705600000
                                }
                              ]
                            },
                            "geometryCrop0" : {
                              "type" : "double",
                              "defaultValue" : 0.0,
                              "interp" : "eioe"
                            },
                            "geometryCrop1" : {
                              "type" : "double",
                              "defaultValue" : 18.75,
                              "interp" : "eioe"
                            },
                            "geometryCrop2" : {
                              "type" : "double",
                              "defaultValue" : 0.0,
                              "interp" : "eioe"
                            },
                            "geometryCrop3" : {
                              "type" : "double",
                              "defaultValue" : 18.75,
                              "interp" : "eioe"
                            },
                            "cursorScale" : {
                              "type" : "double",
                              "defaultValue" : 2.25,
                              "interp" : "linr"
                            },
                            "cursorOpacity" : {
                              "type" : "double",
                              "defaultValue" : 1.0,
                              "interp" : "linr"
                            },
                            "smoothCursorAcrossEditDuration" : 0
                          },
                          "effects" : [
                              {
                                "effectName" : "RoundCorners",
                                "bypassed" : false,
                                "category" : "categoryVisualEffects",
                                "parameters" : {
                                  "radius" : {
                                    "type" : "double",
                                    "defaultValue" : 83.75,
                                    "interp" : "linr",
                                    "uiHints" : {
                                      "userInterfaceType" : 0,
                                      "unitType" : 0
                                    }
                                  },
                                  "top-left" : {
                                    "type" : "double",
                                    "defaultValue" : 1.0,
                                    "interp" : "linr",
                                    "uiHints" : {
                                      "userInterfaceType" : 0,
                                      "unitType" : 0
                                    }
                                  },
                                  "top-right" : {
                                    "type" : "double",
                                    "defaultValue" : 1.0,
                                    "interp" : "linr",
                                    "uiHints" : {
                                      "userInterfaceType" : 0,
                                      "unitType" : 0
                                    }
                                  },
                                  "bottom-left" : {
                                    "type" : "double",
                                    "defaultValue" : 1.0,
                                    "interp" : "linr",
                                    "uiHints" : {
                                      "userInterfaceType" : 0,
                                      "unitType" : 0
                                    }
                                  },
                                  "bottom-right" : {
                                    "type" : "double",
                                    "defaultValue" : 1.0,
                                    "interp" : "linr",
                                    "uiHints" : {
                                      "userInterfaceType" : 0,
                                      "unitType" : 0
                                    }
                                  }
                                },
                                "metadata" : {
                                  "effectIndex" : "0"
                                }
                              }
                          ],
                          "start" : 102194400000,
                          "duration" : 1387680000,
                          "mediaStart" : 100689120000,
                          "mediaDuration" : 1387680000,
                          "scalar" : 1,
                          "animationTracks" : {
                            "visual" : [
                              {
                                "endTime" : 0,
                                "duration" : 705600000,
                                "range" : [ -705600000, 705600000]
                              }
                            ]
                          }
                        },
                    "audio" : 
                        {
                          "id" : 88,
                          "_type" : "AMFile",
                          "src" : 1,
                          "trackNumber" : 2,
                          "attributes" : {
                            "ident" : "",
                            "gain" : 1.0,
                            "mixToMono" : false,
                            "loudnessNormalization" : true,
                            "sourceFileOffset" : 0
                          },
                            "channelNumber" : "0,1",
                          "effects" : [

                          ],
                          "start" : 102194400000,
                          "duration" : 1387680000,
                          "mediaStart" : 100689120000,
                          "mediaDuration" : 1387680000,
                          "scalar" : 1,
                          "animationTracks" : {

                          }
                        }
,
                    "start" : 102194400000,
                    "duration" : 1387680000,
                    "mediaStart" : 100689120000,
                    "mediaDuration" : 1387680000,
                    "scalar" : 1,
                    "metadata" : {
                      "AutoAppliedSmartFocus" : "False",
                      "audiateLinkedSession" : "",
                      "clipSpeedAttribute" : false,
                      "default-height" : 1250.4,
                      "default-rotation0" : 0.0,
                      "default-rotation1" : 0.0,
                      "default-rotation2" : 0.0,
                      "default-scale0" : 0.96,
                      "default-scale1" : 0.96,
                      "default-shear0" : 0.0,
                      "default-translation0" : 0.0,
                      "default-translation1" : 0.0,
                      "default-translation2" : 0.0,
                      "default-width" : 2150.4
                    }
                  },
                  {
                    "id" : 89,
                    "_type" : "UnifiedMedia",
                    "video" : 
                        {
                          "id" : 90,
                          "_type" : "ScreenVMFile",
                          "src" : 1,
                          "trackNumber" : 0,
                          "attributes" : {
                            "ident" : "Rec 5-9-2025-5-09-26-PM"
                          },
                          "parameters" : {
                            "translation0" : {
                              "type" : "double",
                              "defaultValue" : 0.0,
                              "interp" : "eioe",
                              "keyframes" : [
                                {
                                  "endTime" : 0,
                                  "time" : -705600000,
                                  "value" : -9.89360137282347e-05,
                                  "duration" : 705600000
                                },
                                {
                                  "endTime" : 107345280000,
                                  "time" : 105722400000,
                                  "value" : -0.000287133349561894,
                                  "duration" : 1622880000
                                }
                              ]
                            },
                            "translation1" : {
                              "type" : "double",
                              "defaultValue" : 0.0,
                              "interp" : "eioe",
                              "keyframes" : [
                                {
                                  "endTime" : 0,
                                  "time" : -705600000,
                                  "value" : -64.8387623369159,
                                  "duration" : 705600000
                                },
                                {
                                  "endTime" : 107345280000,
                                  "time" : 105722400000,
                                  "value" : -136.062352266379,
                                  "duration" : 1622880000
                                }
                              ]
                            },
                            "scale0" : {
                              "type" : "double",
                              "defaultValue" : 0.96,
                              "interp" : "eioe",
                              "keyframes" : [
                                {
                                  "endTime" : 0,
                                  "time" : -705600000,
                                  "value" : 1.05290316657686,
                                  "duration" : 705600000
                                },
                                {
                                  "endTime" : 107345280000,
                                  "time" : 105722400000,
                                  "value" : 2.1076294121074,
                                  "duration" : 1622880000
                                }
                              ]
                            },
                            "scale1" : {
                              "type" : "double",
                              "defaultValue" : 0.96,
                              "interp" : "eioe",
                              "keyframes" : [
                                {
                                  "endTime" : 0,
                                  "time" : -705600000,
                                  "value" : 1.05290327763235,
                                  "duration" : 705600000
                                },
                                {
                                  "endTime" : 107345280000,
                                  "time" : 105722400000,
                                  "value" : 2.10762969964066,
                                  "duration" : 1622880000
                                }
                              ]
                            },
                            "geometryCrop0" : {
                              "type" : "double",
                              "defaultValue" : 0.0,
                              "interp" : "eioe"
                            },
                            "geometryCrop1" : {
                              "type" : "double",
                              "defaultValue" : 18.75,
                              "interp" : "eioe"
                            },
                            "geometryCrop2" : {
                              "type" : "double",
                              "defaultValue" : 0.0,
                              "interp" : "eioe"
                            },
                            "geometryCrop3" : {
                              "type" : "double",
                              "defaultValue" : 18.75,
                              "interp" : "eioe"
                            },
                            "cursorScale" : {
                              "type" : "double",
                              "defaultValue" : 2.25,
                              "interp" : "linr"
                            },
                            "cursorOpacity" : {
                              "type" : "double",
                              "defaultValue" : 1.0,
                              "interp" : "linr"
                            },
                            "smoothCursorAcrossEditDuration" : 0
                          },
                          "effects" : [
                              {
                                "effectName" : "RoundCorners",
                                "bypassed" : false,
                                "category" : "categoryVisualEffects",
                                "parameters" : {
                                  "radius" : {
                                    "type" : "double",
                                    "defaultValue" : 83.75,
                                    "interp" : "linr",
                                    "uiHints" : {
                                      "userInterfaceType" : 0,
                                      "unitType" : 0
                                    }
                                  },
                                  "top-left" : {
                                    "type" : "double",
                                    "defaultValue" : 1.0,
                                    "interp" : "linr",
                                    "uiHints" : {
                                      "userInterfaceType" : 0,
                                      "unitType" : 0
                                    }
                                  },
                                  "top-right" : {
                                    "type" : "double",
                                    "defaultValue" : 1.0,
                                    "interp" : "linr",
                                    "uiHints" : {
                                      "userInterfaceType" : 0,
                                      "unitType" : 0
                                    }
                                  },
                                  "bottom-left" : {
                                    "type" : "double",
                                    "defaultValue" : 1.0,
                                    "interp" : "linr",
                                    "uiHints" : {
                                      "userInterfaceType" : 0,
                                      "unitType" : 0
                                    }
                                  },
                                  "bottom-right" : {
                                    "type" : "double",
                                    "defaultValue" : 1.0,
                                    "interp" : "linr",
                                    "uiHints" : {
                                      "userInterfaceType" : 0,
                                      "unitType" : 0
                                    }
                                  }
                                },
                                "metadata" : {
                                  "effectIndex" : "0"
                                }
                              }
                          ],
                          "start" : 103582080000,
                          "duration" : 6938400000,
                          "mediaStart" : 103511520000,
                          "mediaDuration" : 6938400000,
                          "scalar" : 1,
                          "animationTracks" : {
                            "visual" : [
                              {
                                "endTime" : 0,
                                "duration" : 705600000,
                                "range" : [ -705600000, 705600000]
                              },
                              {
                                "endTime" : 107345280000,
                                "duration" : 1622880000,
                                "range" : [ 105722400000, 1622880000]
                              }
                            ]
                          }
                        },
                    "audio" : 
                        {
                          "id" : 91,
                          "_type" : "AMFile",
                          "src" : 1,
                          "trackNumber" : 2,
                          "attributes" : {
                            "ident" : "",
                            "gain" : 1.0,
                            "mixToMono" : false,
                            "loudnessNormalization" : true,
                            "sourceFileOffset" : 0
                          },
                            "channelNumber" : "0,1",
                          "effects" : [

                          ],
                          "start" : 103582080000,
                          "duration" : 6938400000,
                          "mediaStart" : 103511520000,
                          "mediaDuration" : 6938400000,
                          "scalar" : 1,
                          "animationTracks" : {

                          }
                        }
,
                    "start" : 103582080000,
                    "duration" : 6938400000,
                    "mediaStart" : 103511520000,
                    "mediaDuration" : 6938400000,
                    "scalar" : 1,
                    "metadata" : {
                      "AutoAppliedSmartFocus" : "False",
                      "audiateLinkedSession" : "",
                      "clipSpeedAttribute" : false,
                      "default-height" : 1250.4,
                      "default-rotation0" : 0.0,
                      "default-rotation1" : 0.0,
                      "default-rotation2" : 0.0,
                      "default-scale0" : 0.96,
                      "default-scale1" : 0.96,
                      "default-shear0" : 0.0,
                      "default-translation0" : 0.0,
                      "default-translation1" : 0.0,
                      "default-translation2" : 0.0,
                      "default-width" : 2150.4
                    }
                  }
                ],
                "transitions" : [
                  {
                    "name" : "FadeThroughBlack",
                    "duration" : 964320000,
                    "leftMedia" : 89,
                    "attributes" : {
                      "Color-blue" : 0.0,
                      "Color-green" : 0.0,
                      "Color-red" : 0.0,
                      "bypass" : false,
                      "reverse" : false,
                      "trivial" : false,
                      "useAudioPreRoll" : true,
                      "useVisualPreRoll" : true
                    }

                  }
                ]
              },
              {
                "trackIndex" : 2,
                "medias" : [
                  {
                    "id" : 92,
                    "_type" : "Callout",
                    "def" : {
                        "kind" : "TypeWinSpotlight",
                        "shape" : "",
                        "style" : "",
                        "height" : {
                          "type" : "double",
                          "defaultValue" : 335.0,
                          "interp" : "linr"
                        },
                        "intensity" : {
                          "type" : "double",
                          "defaultValue" : 0.5,
                          "interp" : "linr"
                        },
                        "width" : {
                          "type" : "double",
                          "defaultValue" : 560.0,
                          "interp" : "linr"
                        },
                        "filename" : "C:\\Users\\14044\\AppData\\Local\\TechSmith\\Camtasia Studio\\23.0\\Features\\Tools\\Annotations\\Defaults\\ReverseHighlight_100x100.xml",
                        "name" : "",
                        "xmlContent" : "﻿<?xml version=\"1.0\"?>\n\n<Overlay version=\"1.0.1\">\n\n<Overlay_Filename>ReverseHighlight_100x100.png</Overlay_Filename>\n<Overlay_Name>Spotlight</Overlay_Name>\n<Text_Top>0</Text_Top>\n<Text_Left>0</Text_Left>\n<Text_Bottom>0</Text_Bottom>\n<Text_Right>0</Text_Right>\n<Fill_Color>0</Fill_Color>\n<Border_Color>0</Border_Color>\n</Overlay>"
                    },
                    "attributes" : {
                      "ident" : "",
                      "autoRotateText" : true
                    },
                    "parameters" : {
                      "translation0" : {
                        "type" : "double",
                        "defaultValue" : -72.9999999999999,
                        "interp" : "eioe"
                      },
                      "translation1" : {
                        "type" : "double",
                        "defaultValue" : 402.0,
                        "interp" : "eioe"
                      },
                      "scale0" : {
                        "type" : "double",
                        "defaultValue" : 0.846428571428574,
                        "interp" : "eioe"
                      },
                      "scale1" : {
                        "type" : "double",
                        "defaultValue" : 0.331343283582089,
                        "interp" : "eioe"
                      },
                      "scale2" : {
                        "type" : "double",
                        "defaultValue" : 1.0,
                        "interp" : "eioe"
                      },
                      "geometryCrop0" : {
                        "type" : "double",
                        "defaultValue" : 0.0,
                        "interp" : "eioe"
                      },
                      "geometryCrop1" : {
                        "type" : "double",
                        "defaultValue" : 0.0,
                        "interp" : "eioe"
                      },
                      "geometryCrop2" : {
                        "type" : "double",
                        "defaultValue" : 0.0,
                        "interp" : "eioe"
                      },
                      "geometryCrop3" : {
                        "type" : "double",
                        "defaultValue" : 0.0,
                        "interp" : "eioe"
                      }
                    },
                    "effects" : [

                    ],
                    "start" : 11360160000,
                    "duration" : 2516640000,
                    "mediaStart" : -658560000,
                    "mediaDuration" : 2516640000,
                    "scalar" : 1,
                    "metadata" : {
                      "audiateLinkedSession" : "",
                      "clipSpeedAttribute" : false,
                      "default-anchor0" : 0.0,
                      "default-anchor1" : 0.0,
                      "default-anchor2" : 0.0,
                      "default-height" : 167.0,
                      "default-rotation0" : 0.0,
                      "default-rotation1" : 0.0,
                      "default-rotation2" : 0.0,
                      "default-scale0" : 1.68214285714286,
                      "default-scale1" : 0.498507462686567,
                      "default-scale2" : 1.0,
                      "default-shear0" : 0.0,
                      "default-shear1" : 0.0,
                      "default-shear2" : 0.0,
                      "default-translation0" : -285.0,
                      "default-translation1" : 404.0,
                      "default-translation2" : 0.0,
                      "default-width" : 942.000000000002
                    },
                    "animationTracks" : {

                    }
                  },
                  {
                    "id" : 93,
                    "_type" : "Callout",
                    "def" : {
                        "kind" : "TypeWinSpotlight",
                        "shape" : "",
                        "style" : "",
                        "height" : {
                          "type" : "double",
                          "defaultValue" : 335.0,
                          "interp" : "linr"
                        },
                        "intensity" : {
                          "type" : "double",
                          "defaultValue" : 0.5,
                          "interp" : "linr"
                        },
                        "width" : {
                          "type" : "double",
                          "defaultValue" : 560.0,
                          "interp" : "linr"
                        },
                        "filename" : "C:\\Users\\14044\\AppData\\Local\\TechSmith\\Camtasia Studio\\23.0\\Features\\Tools\\Annotations\\Defaults\\ReverseHighlight_100x100.xml",
                        "name" : "",
                        "xmlContent" : "﻿<?xml version=\"1.0\"?>\n\n<Overlay version=\"1.0.1\">\n\n<Overlay_Filename>ReverseHighlight_100x100.png</Overlay_Filename>\n<Overlay_Name>Spotlight</Overlay_Name>\n<Text_Top>0</Text_Top>\n<Text_Left>0</Text_Left>\n<Text_Bottom>0</Text_Bottom>\n<Text_Right>0</Text_Right>\n<Fill_Color>0</Fill_Color>\n<Border_Color>0</Border_Color>\n</Overlay>"
                    },
                    "attributes" : {
                      "ident" : "",
                      "autoRotateText" : true
                    },
                    "parameters" : {
                      "translation0" : {
                        "type" : "double",
                        "defaultValue" : 1.99999999999898,
                        "interp" : "eioe"
                      },
                      "translation1" : {
                        "type" : "double",
                        "defaultValue" : -89.5845072373933,
                        "interp" : "eioe"
                      },
                      "scale0" : {
                        "type" : "double",
                        "defaultValue" : 1.52142857142857,
                        "interp" : "eioe"
                      },
                      "scale1" : {
                        "type" : "double",
                        "defaultValue" : 0.159832355339155,
                        "interp" : "eioe"
                      },
                      "geometryCrop0" : {
                        "type" : "double",
                        "defaultValue" : 0.0,
                        "interp" : "eioe"
                      },
                      "geometryCrop1" : {
                        "type" : "double",
                        "defaultValue" : 0.0,
                        "interp" : "eioe"
                      },
                      "geometryCrop2" : {
                        "type" : "double",
                        "defaultValue" : 0.0,
                        "interp" : "eioe"
                      },
                      "geometryCrop3" : {
                        "type" : "double",
                        "defaultValue" : 0.0,
                        "interp" : "eioe"
                      }
                    },
                    "effects" : [

                    ],
                    "start" : 21026880000,
                    "duration" : 1575840000,
                    "mediaStart" : -776160000,
                    "mediaDuration" : 1575840000,
                    "scalar" : 1,
                    "metadata" : {
                      "audiateLinkedSession" : "",
                      "clipSpeedAttribute" : false,
                      "default-anchor0" : 0.0,
                      "default-anchor1" : 0.0,
                      "default-anchor2" : 0.0,
                      "default-height" : 167.0,
                      "default-rotation0" : 0.0,
                      "default-rotation1" : 0.0,
                      "default-rotation2" : 0.0,
                      "default-scale0" : 1.68214285714286,
                      "default-scale1" : 0.498507462686567,
                      "default-scale2" : 1.0,
                      "default-shear0" : 0.0,
                      "default-shear1" : 0.0,
                      "default-shear2" : 0.0,
                      "default-translation0" : -285.0,
                      "default-translation1" : 404.0,
                      "default-translation2" : 0.0,
                      "default-width" : 942.000000000002
                    },
                    "animationTracks" : {

                    }
                  },
                  {
                    "id" : 94,
                    "_type" : "Callout",
                    "def" : {
                        "kind" : "TypeWinSpotlight",
                        "shape" : "",
                        "style" : "",
                        "height" : {
                          "type" : "double",
                          "defaultValue" : 335.0,
                          "interp" : "linr"
                        },
                        "intensity" : {
                          "type" : "double",
                          "defaultValue" : 0.5,
                          "interp" : "linr"
                        },
                        "width" : {
                          "type" : "double",
                          "defaultValue" : 560.0,
                          "interp" : "linr"
                        },
                        "filename" : "C:\\Users\\14044\\AppData\\Local\\TechSmith\\Camtasia Studio\\23.0\\Features\\Tools\\Annotations\\Defaults\\ReverseHighlight_100x100.xml",
                        "name" : "",
                        "xmlContent" : "﻿<?xml version=\"1.0\"?>\n\n<Overlay version=\"1.0.1\">\n\n<Overlay_Filename>ReverseHighlight_100x100.png</Overlay_Filename>\n<Overlay_Name>Spotlight</Overlay_Name>\n<Text_Top>0</Text_Top>\n<Text_Left>0</Text_Left>\n<Text_Bottom>0</Text_Bottom>\n<Text_Right>0</Text_Right>\n<Fill_Color>0</Fill_Color>\n<Border_Color>0</Border_Color>\n</Overlay>"
                    },
                    "attributes" : {
                      "ident" : "",
                      "autoRotateText" : true
                    },
                    "parameters" : {
                      "translation0" : {
                        "type" : "double",
                        "defaultValue" : -4.00009263993883,
                        "interp" : "eioe"
                      },
                      "translation1" : {
                        "type" : "double",
                        "defaultValue" : -14.0,
                        "interp" : "eioe"
                      },
                      "scale0" : {
                        "type" : "double",
                        "defaultValue" : 1.49642857142857,
                        "interp" : "eioe"
                      },
                      "scale1" : {
                        "type" : "double",
                        "defaultValue" : 0.414925373134328,
                        "interp" : "eioe"
                      },
                      "scale2" : {
                        "type" : "double",
                        "defaultValue" : 1.0,
                        "interp" : "eioe"
                      },
                      "geometryCrop0" : {
                        "type" : "double",
                        "defaultValue" : 0.0,
                        "interp" : "eioe"
                      },
                      "geometryCrop1" : {
                        "type" : "double",
                        "defaultValue" : 0.0,
                        "interp" : "eioe"
                      },
                      "geometryCrop2" : {
                        "type" : "double",
                        "defaultValue" : 0.0,
                        "interp" : "eioe"
                      },
                      "geometryCrop3" : {
                        "type" : "double",
                        "defaultValue" : 0.0,
                        "interp" : "eioe"
                      }
                    },
                    "effects" : [

                    ],
                    "start" : 27236160000,
                    "duration" : 2704800000,
                    "mediaStart" : 0,
                    "mediaDuration" : 2704800000,
                    "scalar" : 1,
                    "metadata" : {
                      "audiateLinkedSession" : "",
                      "clipSpeedAttribute" : false,
                      "default-anchor0" : 0.0,
                      "default-anchor1" : 0.0,
                      "default-anchor2" : 0.0,
                      "default-height" : 167.0,
                      "default-rotation0" : 0.0,
                      "default-rotation1" : 0.0,
                      "default-rotation2" : 0.0,
                      "default-scale0" : 1.68214285714286,
                      "default-scale1" : 0.498507462686567,
                      "default-scale2" : 1.0,
                      "default-shear0" : 0.0,
                      "default-shear1" : 0.0,
                      "default-shear2" : 0.0,
                      "default-translation0" : -285.0,
                      "default-translation1" : 404.0,
                      "default-translation2" : 0.0,
                      "default-width" : 942.000000000002
                    },
                    "animationTracks" : {

                    }
                  },
                  {
                    "id" : 95,
                    "_type" : "Callout",
                    "def" : {
                        "kind" : "TypeWinSpotlight",
                        "shape" : "",
                        "style" : "",
                        "height" : {
                          "type" : "double",
                          "defaultValue" : 335.0,
                          "interp" : "linr"
                        },
                        "intensity" : {
                          "type" : "double",
                          "defaultValue" : 0.5,
                          "interp" : "linr"
                        },
                        "width" : {
                          "type" : "double",
                          "defaultValue" : 560.0,
                          "interp" : "linr"
                        },
                        "filename" : "C:\\Users\\14044\\AppData\\Local\\TechSmith\\Camtasia Studio\\23.0\\Features\\Tools\\Annotations\\Defaults\\ReverseHighlight_100x100.xml",
                        "name" : "",
                        "xmlContent" : "﻿<?xml version=\"1.0\"?>\n\n<Overlay version=\"1.0.1\">\n\n<Overlay_Filename>ReverseHighlight_100x100.png</Overlay_Filename>\n<Overlay_Name>Spotlight</Overlay_Name>\n<Text_Top>0</Text_Top>\n<Text_Left>0</Text_Left>\n<Text_Bottom>0</Text_Bottom>\n<Text_Right>0</Text_Right>\n<Fill_Color>0</Fill_Color>\n<Border_Color>0</Border_Color>\n</Overlay>"
                    },
                    "attributes" : {
                      "ident" : "",
                      "autoRotateText" : true
                    },
                    "parameters" : {
                      "translation0" : {
                        "type" : "double",
                        "defaultValue" : 5.99990736006128,
                        "interp" : "eioe"
                      },
                      "translation1" : {
                        "type" : "double",
                        "defaultValue" : -305.0,
                        "interp" : "eioe"
                      },
                      "scale0" : {
                        "type" : "double",
                        "defaultValue" : 1.43214285714286,
                        "interp" : "eioe"
                      },
                      "scale1" : {
                        "type" : "double",
                        "defaultValue" : 0.277611940298507,
                        "interp" : "eioe"
                      },
                      "geometryCrop0" : {
                        "type" : "double",
                        "defaultValue" : 0.0,
                        "interp" : "eioe"
                      },
                      "geometryCrop1" : {
                        "type" : "double",
                        "defaultValue" : 0.0,
                        "interp" : "eioe"
                      },
                      "geometryCrop2" : {
                        "type" : "double",
                        "defaultValue" : 0.0,
                        "interp" : "eioe"
                      },
                      "geometryCrop3" : {
                        "type" : "double",
                        "defaultValue" : 0.0,
                        "interp" : "eioe"
                      }
                    },
                    "effects" : [

                    ],
                    "start" : 34644960000,
                    "duration" : 2704800000,
                    "mediaStart" : 0,
                    "mediaDuration" : 2704800000,
                    "scalar" : 1,
                    "metadata" : {
                      "audiateLinkedSession" : "",
                      "clipSpeedAttribute" : false,
                      "default-anchor0" : 0.0,
                      "default-anchor1" : 0.0,
                      "default-anchor2" : 0.0,
                      "default-height" : 167.0,
                      "default-rotation0" : 0.0,
                      "default-rotation1" : 0.0,
                      "default-rotation2" : 0.0,
                      "default-scale0" : 1.68214285714286,
                      "default-scale1" : 0.498507462686567,
                      "default-scale2" : 1.0,
                      "default-shear0" : 0.0,
                      "default-shear1" : 0.0,
                      "default-shear2" : 0.0,
                      "default-translation0" : -285.0,
                      "default-translation1" : 404.0,
                      "default-translation2" : 0.0,
                      "default-width" : 942.000000000002
                    },
                    "animationTracks" : {

                    }
                  },
                  {
                    "id" : 96,
                    "_type" : "Callout",
                    "def" : {
                        "kind" : "TypeWinSpotlight",
                        "shape" : "",
                        "style" : "",
                        "height" : {
                          "type" : "double",
                          "defaultValue" : 335.0,
                          "interp" : "linr"
                        },
                        "intensity" : {
                          "type" : "double",
                          "defaultValue" : 0.5,
                          "interp" : "linr"
                        },
                        "width" : {
                          "type" : "double",
                          "defaultValue" : 560.0,
                          "interp" : "linr"
                        },
                        "filename" : "C:\\Users\\14044\\AppData\\Local\\TechSmith\\Camtasia Studio\\23.0\\Features\\Tools\\Annotations\\Defaults\\ReverseHighlight_100x100.xml",
                        "name" : "",
                        "xmlContent" : "﻿<?xml version=\"1.0\"?>\n\n<Overlay version=\"1.0.1\">\n\n<Overlay_Filename>ReverseHighlight_100x100.png</Overlay_Filename>\n<Overlay_Name>Spotlight</Overlay_Name>\n<Text_Top>0</Text_Top>\n<Text_Left>0</Text_Left>\n<Text_Bottom>0</Text_Bottom>\n<Text_Right>0</Text_Right>\n<Fill_Color>0</Fill_Color>\n<Border_Color>0</Border_Color>\n</Overlay>"
                    },
                    "attributes" : {
                      "ident" : "",
                      "autoRotateText" : true
                    },
                    "parameters" : {
                      "translation0" : {
                        "type" : "double",
                        "defaultValue" : 1.99990736006146,
                        "interp" : "eioe"
                      },
                      "translation1" : {
                        "type" : "double",
                        "defaultValue" : -62.0000000000003,
                        "interp" : "eioe"
                      },
                      "scale0" : {
                        "type" : "double",
                        "defaultValue" : 1.06785714285715,
                        "interp" : "eioe"
                      },
                      "scale1" : {
                        "type" : "double",
                        "defaultValue" : 0.892537313432836,
                        "interp" : "eioe"
                      },
                      "geometryCrop0" : {
                        "type" : "double",
                        "defaultValue" : 0.0,
                        "interp" : "eioe"
                      },
                      "geometryCrop1" : {
                        "type" : "double",
                        "defaultValue" : 0.0,
                        "interp" : "eioe"
                      },
                      "geometryCrop2" : {
                        "type" : "double",
                        "defaultValue" : 0.0,
                        "interp" : "eioe"
                      },
                      "geometryCrop3" : {
                        "type" : "double",
                        "defaultValue" : 0.0,
                        "interp" : "eioe"
                      }
                    },
                    "effects" : [

                    ],
                    "start" : 55224960000,
                    "duration" : 2210880000,
                    "mediaStart" : -493920000,
                    "mediaDuration" : 2210880000,
                    "scalar" : 1,
                    "metadata" : {
                      "audiateLinkedSession" : "",
                      "clipSpeedAttribute" : false,
                      "default-anchor0" : 0.0,
                      "default-anchor1" : 0.0,
                      "default-anchor2" : 0.0,
                      "default-height" : 167.0,
                      "default-rotation0" : 0.0,
                      "default-rotation1" : 0.0,
                      "default-rotation2" : 0.0,
                      "default-scale0" : 1.68214285714286,
                      "default-scale1" : 0.498507462686567,
                      "default-scale2" : 1.0,
                      "default-shear0" : 0.0,
                      "default-shear1" : 0.0,
                      "default-shear2" : 0.0,
                      "default-translation0" : -285.0,
                      "default-translation1" : 404.0,
                      "default-translation2" : 0.0,
                      "default-width" : 942.000000000002
                    },
                    "animationTracks" : {

                    }
                  },
                  {
                    "id" : 97,
                    "_type" : "Callout",
                    "def" : {
                        "kind" : "TypeWinSpotlight",
                        "shape" : "",
                        "style" : "",
                        "height" : {
                          "type" : "double",
                          "defaultValue" : 335.0,
                          "interp" : "linr"
                        },
                        "intensity" : {
                          "type" : "double",
                          "defaultValue" : 0.5,
                          "interp" : "linr"
                        },
                        "width" : {
                          "type" : "double",
                          "defaultValue" : 560.0,
                          "interp" : "linr"
                        },
                        "filename" : "C:\\Users\\14044\\AppData\\Local\\TechSmith\\Camtasia Studio\\23.0\\Features\\Tools\\Annotations\\Defaults\\ReverseHighlight_100x100.xml",
                        "name" : "",
                        "xmlContent" : "﻿<?xml version=\"1.0\"?>\n\n<Overlay version=\"1.0.1\">\n\n<Overlay_Filename>ReverseHighlight_100x100.png</Overlay_Filename>\n<Overlay_Name>Spotlight</Overlay_Name>\n<Text_Top>0</Text_Top>\n<Text_Left>0</Text_Left>\n<Text_Bottom>0</Text_Bottom>\n<Text_Right>0</Text_Right>\n<Fill_Color>0</Fill_Color>\n<Border_Color>0</Border_Color>\n</Overlay>"
                    },
                    "attributes" : {
                      "ident" : "",
                      "autoRotateText" : true
                    },
                    "parameters" : {
                      "translation0" : {
                        "type" : "double",
                        "defaultValue" : 988.999999999999,
                        "interp" : "eioe"
                      },
                      "translation1" : {
                        "type" : "double",
                        "defaultValue" : 230.5,
                        "interp" : "eioe"
                      },
                      "scale0" : {
                        "type" : "double",
                        "defaultValue" : 0.467857142857145,
                        "interp" : "eioe"
                      },
                      "scale1" : {
                        "type" : "double",
                        "defaultValue" : 0.241791044776119,
                        "interp" : "eioe"
                      },
                      "scale2" : {
                        "type" : "double",
                        "defaultValue" : 1.0,
                        "interp" : "eioe"
                      },
                      "geometryCrop0" : {
                        "type" : "double",
                        "defaultValue" : 0.0,
                        "interp" : "eioe"
                      },
                      "geometryCrop1" : {
                        "type" : "double",
                        "defaultValue" : 0.0,
                        "interp" : "eioe"
                      },
                      "geometryCrop2" : {
                        "type" : "double",
                        "defaultValue" : 0.0,
                        "interp" : "eioe"
                      },
                      "geometryCrop3" : {
                        "type" : "double",
                        "defaultValue" : 0.0,
                        "interp" : "eioe"
                      }
                    },
                    "effects" : [

                    ],
                    "start" : 59905440000,
                    "duration" : 1740480000,
                    "mediaStart" : -823200000,
                    "mediaDuration" : 1740480000,
                    "scalar" : 1,
                    "metadata" : {
                      "audiateLinkedSession" : "",
                      "clipSpeedAttribute" : false,
                      "default-anchor0" : 0.0,
                      "default-anchor1" : 0.0,
                      "default-anchor2" : 0.0,
                      "default-height" : 167.0,
                      "default-rotation0" : 0.0,
                      "default-rotation1" : 0.0,
                      "default-rotation2" : 0.0,
                      "default-scale0" : 1.68214285714286,
                      "default-scale1" : 0.498507462686567,
                      "default-scale2" : 1.0,
                      "default-shear0" : 0.0,
                      "default-shear1" : 0.0,
                      "default-shear2" : 0.0,
                      "default-translation0" : -285.0,
                      "default-translation1" : 404.0,
                      "default-translation2" : 0.0,
                      "default-width" : 942.000000000002
                    },
                    "animationTracks" : {

                    }
                  },
                  {
                    "id" : 98,
                    "_type" : "Callout",
                    "def" : {
                        "kind" : "TypeWinSpotlight",
                        "shape" : "",
                        "style" : "",
                        "height" : {
                          "type" : "double",
                          "defaultValue" : 335.0,
                          "interp" : "linr"
                        },
                        "intensity" : {
                          "type" : "double",
                          "defaultValue" : 0.5,
                          "interp" : "linr"
                        },
                        "width" : {
                          "type" : "double",
                          "defaultValue" : 560.0,
                          "interp" : "linr"
                        },
                        "filename" : "C:\\Users\\14044\\AppData\\Local\\TechSmith\\Camtasia Studio\\23.0\\Features\\Tools\\Annotations\\Defaults\\ReverseHighlight_100x100.xml",
                        "name" : "",
                        "xmlContent" : "﻿<?xml version=\"1.0\"?>\n\n<Overlay version=\"1.0.1\">\n\n<Overlay_Filename>ReverseHighlight_100x100.png</Overlay_Filename>\n<Overlay_Name>Spotlight</Overlay_Name>\n<Text_Top>0</Text_Top>\n<Text_Left>0</Text_Left>\n<Text_Bottom>0</Text_Bottom>\n<Text_Right>0</Text_Right>\n<Fill_Color>0</Fill_Color>\n<Border_Color>0</Border_Color>\n</Overlay>"
                    },
                    "attributes" : {
                      "ident" : "",
                      "autoRotateText" : true
                    },
                    "parameters" : {
                      "translation0" : {
                        "type" : "double",
                        "defaultValue" : 981.999907360062,
                        "interp" : "eioe"
                      },
                      "translation1" : {
                        "type" : "double",
                        "defaultValue" : 512.999999999999,
                        "interp" : "eioe"
                      },
                      "scale0" : {
                        "type" : "double",
                        "defaultValue" : 0.167857142857145,
                        "interp" : "eioe"
                      },
                      "scale1" : {
                        "type" : "double",
                        "defaultValue" : 0.241791044776119,
                        "interp" : "eioe"
                      },
                      "scale2" : {
                        "type" : "double",
                        "defaultValue" : 1.0,
                        "interp" : "eioe"
                      },
                      "geometryCrop0" : {
                        "type" : "double",
                        "defaultValue" : 0.0,
                        "interp" : "eioe"
                      },
                      "geometryCrop1" : {
                        "type" : "double",
                        "defaultValue" : 0.0,
                        "interp" : "eioe"
                      },
                      "geometryCrop2" : {
                        "type" : "double",
                        "defaultValue" : 0.0,
                        "interp" : "eioe"
                      },
                      "geometryCrop3" : {
                        "type" : "double",
                        "defaultValue" : 0.0,
                        "interp" : "eioe"
                      }
                    },
                    "effects" : [

                    ],
                    "start" : 66608640000,
                    "duration" : 2210880000,
                    "mediaStart" : -493920000,
                    "mediaDuration" : 2210880000,
                    "scalar" : 1,
                    "metadata" : {
                      "audiateLinkedSession" : "",
                      "clipSpeedAttribute" : false,
                      "default-anchor0" : 0.0,
                      "default-anchor1" : 0.0,
                      "default-anchor2" : 0.0,
                      "default-height" : 167.0,
                      "default-rotation0" : 0.0,
                      "default-rotation1" : 0.0,
                      "default-rotation2" : 0.0,
                      "default-scale0" : 1.68214285714286,
                      "default-scale1" : 0.498507462686567,
                      "default-scale2" : 1.0,
                      "default-shear0" : 0.0,
                      "default-shear1" : 0.0,
                      "default-shear2" : 0.0,
                      "default-translation0" : -285.0,
                      "default-translation1" : 404.0,
                      "default-translation2" : 0.0,
                      "default-width" : 942.000000000002
                    },
                    "animationTracks" : {

                    }
                  },
                  {
                    "id" : 99,
                    "_type" : "Callout",
                    "def" : {
                        "kind" : "TypeWinSpotlight",
                        "shape" : "",
                        "style" : "",
                        "height" : {
                          "type" : "double",
                          "defaultValue" : 335.0,
                          "interp" : "linr"
                        },
                        "intensity" : {
                          "type" : "double",
                          "defaultValue" : 0.5,
                          "interp" : "linr"
                        },
                        "width" : {
                          "type" : "double",
                          "defaultValue" : 560.0,
                          "interp" : "linr"
                        },
                        "filename" : "C:\\Users\\14044\\AppData\\Local\\TechSmith\\Camtasia Studio\\23.0\\Features\\Tools\\Annotations\\Defaults\\ReverseHighlight_100x100.xml",
                        "name" : "",
                        "xmlContent" : "﻿<?xml version=\"1.0\"?>\n\n<Overlay version=\"1.0.1\">\n\n<Overlay_Filename>ReverseHighlight_100x100.png</Overlay_Filename>\n<Overlay_Name>Spotlight</Overlay_Name>\n<Text_Top>0</Text_Top>\n<Text_Left>0</Text_Left>\n<Text_Bottom>0</Text_Bottom>\n<Text_Right>0</Text_Right>\n<Fill_Color>0</Fill_Color>\n<Border_Color>0</Border_Color>\n</Overlay>"
                    },
                    "attributes" : {
                      "ident" : "",
                      "autoRotateText" : true
                    },
                    "parameters" : {
                      "translation0" : {
                        "type" : "double",
                        "defaultValue" : 414.999907360062,
                        "interp" : "eioe"
                      },
                      "translation1" : {
                        "type" : "double",
                        "defaultValue" : 94.080618831542,
                        "interp" : "eioe"
                      },
                      "scale0" : {
                        "type" : "double",
                        "defaultValue" : 0.528571428571431,
                        "interp" : "eioe"
                      },
                      "scale1" : {
                        "type" : "double",
                        "defaultValue" : 0.561675336307713,
                        "interp" : "eioe"
                      },
                      "geometryCrop0" : {
                        "type" : "double",
                        "defaultValue" : 0.0,
                        "interp" : "eioe"
                      },
                      "geometryCrop1" : {
                        "type" : "double",
                        "defaultValue" : 0.0,
                        "interp" : "eioe"
                      },
                      "geometryCrop2" : {
                        "type" : "double",
                        "defaultValue" : 0.0,
                        "interp" : "eioe"
                      },
                      "geometryCrop3" : {
                        "type" : "double",
                        "defaultValue" : 0.0,
                        "interp" : "eioe"
                      }
                    },
                    "effects" : [

                    ],
                    "start" : 73899840000,
                    "duration" : 2798880000,
                    "mediaStart" : -493920000,
                    "mediaDuration" : 2798880000,
                    "scalar" : 1,
                    "metadata" : {
                      "audiateLinkedSession" : "",
                      "clipSpeedAttribute" : false,
                      "default-anchor0" : 0.0,
                      "default-anchor1" : 0.0,
                      "default-anchor2" : 0.0,
                      "default-height" : 167.0,
                      "default-rotation0" : 0.0,
                      "default-rotation1" : 0.0,
                      "default-rotation2" : 0.0,
                      "default-scale0" : 1.68214285714286,
                      "default-scale1" : 0.498507462686567,
                      "default-scale2" : 1.0,
                      "default-shear0" : 0.0,
                      "default-shear1" : 0.0,
                      "default-shear2" : 0.0,
                      "default-translation0" : -285.0,
                      "default-translation1" : 404.0,
                      "default-translation2" : 0.0,
                      "default-width" : 942.000000000002
                    },
                    "animationTracks" : {

                    }
                  },
                  {
                    "id" : 100,
                    "_type" : "Callout",
                    "def" : {
                        "kind" : "TypeWinSpotlight",
                        "shape" : "",
                        "style" : "",
                        "height" : {
                          "type" : "double",
                          "defaultValue" : 335.0,
                          "interp" : "linr"
                        },
                        "intensity" : {
                          "type" : "double",
                          "defaultValue" : 0.5,
                          "interp" : "linr"
                        },
                        "width" : {
                          "type" : "double",
                          "defaultValue" : 560.0,
                          "interp" : "linr"
                        },
                        "filename" : "C:\\Users\\14044\\AppData\\Local\\TechSmith\\Camtasia Studio\\23.0\\Features\\Tools\\Annotations\\Defaults\\ReverseHighlight_100x100.xml",
                        "name" : "",
                        "xmlContent" : "﻿<?xml version=\"1.0\"?>\n\n<Overlay version=\"1.0.1\">\n\n<Overlay_Filename>ReverseHighlight_100x100.png</Overlay_Filename>\n<Overlay_Name>Spotlight</Overlay_Name>\n<Text_Top>0</Text_Top>\n<Text_Left>0</Text_Left>\n<Text_Bottom>0</Text_Bottom>\n<Text_Right>0</Text_Right>\n<Fill_Color>0</Fill_Color>\n<Border_Color>0</Border_Color>\n</Overlay>"
                    },
                    "attributes" : {
                      "ident" : "",
                      "autoRotateText" : true
                    },
                    "parameters" : {
                      "translation0" : {
                        "type" : "double",
                        "defaultValue" : 154.999907360061,
                        "interp" : "eioe"
                      },
                      "translation1" : {
                        "type" : "double",
                        "defaultValue" : -637.5,
                        "interp" : "eioe"
                      },
                      "scale0" : {
                        "type" : "double",
                        "defaultValue" : 2.06428571428572,
                        "interp" : "eioe"
                      },
                      "scale1" : {
                        "type" : "double",
                        "defaultValue" : 0.194029850746269,
                        "interp" : "eioe"
                      },
                      "geometryCrop0" : {
                        "type" : "double",
                        "defaultValue" : 0.0,
                        "interp" : "eioe"
                      },
                      "geometryCrop1" : {
                        "type" : "double",
                        "defaultValue" : 0.0,
                        "interp" : "eioe"
                      },
                      "geometryCrop2" : {
                        "type" : "double",
                        "defaultValue" : 0.0,
                        "interp" : "eioe"
                      },
                      "geometryCrop3" : {
                        "type" : "double",
                        "defaultValue" : 0.0,
                        "interp" : "eioe"
                      }
                    },
                    "effects" : [

                    ],
                    "start" : 80791200000,
                    "duration" : 2210880000,
                    "mediaStart" : -493920000,
                    "mediaDuration" : 2210880000,
                    "scalar" : 1,
                    "metadata" : {
                      "audiateLinkedSession" : "",
                      "clipSpeedAttribute" : false,
                      "default-anchor0" : 0.0,
                      "default-anchor1" : 0.0,
                      "default-anchor2" : 0.0,
                      "default-height" : 167.0,
                      "default-rotation0" : 0.0,
                      "default-rotation1" : 0.0,
                      "default-rotation2" : 0.0,
                      "default-scale0" : 1.68214285714286,
                      "default-scale1" : 0.498507462686567,
                      "default-scale2" : 1.0,
                      "default-shear0" : 0.0,
                      "default-shear1" : 0.0,
                      "default-shear2" : 0.0,
                      "default-translation0" : -285.0,
                      "default-translation1" : 404.0,
                      "default-translation2" : 0.0,
                      "default-width" : 942.000000000002
                    },
                    "animationTracks" : {

                    }
                  },
                  {
                    "id" : 101,
                    "_type" : "Callout",
                    "def" : {
                        "kind" : "TypeWinSpotlight",
                        "shape" : "",
                        "style" : "",
                        "height" : {
                          "type" : "double",
                          "defaultValue" : 335.0,
                          "interp" : "linr"
                        },
                        "intensity" : {
                          "type" : "double",
                          "defaultValue" : 0.5,
                          "interp" : "linr"
                        },
                        "width" : {
                          "type" : "double",
                          "defaultValue" : 560.0,
                          "interp" : "linr"
                        },
                        "filename" : "C:\\Users\\14044\\AppData\\Local\\TechSmith\\Camtasia Studio\\23.0\\Features\\Tools\\Annotations\\Defaults\\ReverseHighlight_100x100.xml",
                        "name" : "",
                        "xmlContent" : "﻿<?xml version=\"1.0\"?>\n\n<Overlay version=\"1.0.1\">\n\n<Overlay_Filename>ReverseHighlight_100x100.png</Overlay_Filename>\n<Overlay_Name>Spotlight</Overlay_Name>\n<Text_Top>0</Text_Top>\n<Text_Left>0</Text_Left>\n<Text_Bottom>0</Text_Bottom>\n<Text_Right>0</Text_Right>\n<Fill_Color>0</Fill_Color>\n<Border_Color>0</Border_Color>\n</Overlay>"
                    },
                    "attributes" : {
                      "ident" : "",
                      "autoRotateText" : true
                    },
                    "parameters" : {
                      "translation0" : {
                        "type" : "double",
                        "defaultValue" : -849.999999999999,
                        "interp" : "eioe"
                      },
                      "translation1" : {
                        "type" : "double",
                        "defaultValue" : -2.27373675443232e-13,
                        "interp" : "eioe"
                      },
                      "scale0" : {
                        "type" : "double",
                        "defaultValue" : 0.964285714285717,
                        "interp" : "eioe"
                      },
                      "scale1" : {
                        "type" : "double",
                        "defaultValue" : 4.0,
                        "interp" : "eioe"
                      },
                      "geometryCrop0" : {
                        "type" : "double",
                        "defaultValue" : 0.0,
                        "interp" : "eioe"
                      },
                      "geometryCrop1" : {
                        "type" : "double",
                        "defaultValue" : 0.0,
                        "interp" : "eioe"
                      },
                      "geometryCrop2" : {
                        "type" : "double",
                        "defaultValue" : 0.0,
                        "interp" : "eioe"
                      },
                      "geometryCrop3" : {
                        "type" : "double",
                        "defaultValue" : 0.0,
                        "interp" : "eioe"
                      }
                    },
                    "effects" : [

                    ],
                    "start" : 86412480000,
                    "duration" : 2210880000,
                    "mediaStart" : -493920000,
                    "mediaDuration" : 2210880000,
                    "scalar" : 1,
                    "metadata" : {
                      "audiateLinkedSession" : "",
                      "clipSpeedAttribute" : false,
                      "default-anchor0" : 0.0,
                      "default-anchor1" : 0.0,
                      "default-anchor2" : 0.0,
                      "default-height" : 167.0,
                      "default-rotation0" : 0.0,
                      "default-rotation1" : 0.0,
                      "default-rotation2" : 0.0,
                      "default-scale0" : 1.68214285714286,
                      "default-scale1" : 0.498507462686567,
                      "default-scale2" : 1.0,
                      "default-shear0" : 0.0,
                      "default-shear1" : 0.0,
                      "default-shear2" : 0.0,
                      "default-translation0" : -285.0,
                      "default-translation1" : 404.0,
                      "default-translation2" : 0.0,
                      "default-width" : 942.000000000002
                    },
                    "animationTracks" : {

                    }
                  },
                  {
                    "id" : 102,
                    "_type" : "Callout",
                    "def" : {
                        "kind" : "TypeWinSpotlight",
                        "shape" : "",
                        "style" : "",
                        "height" : {
                          "type" : "double",
                          "defaultValue" : 335.0,
                          "interp" : "linr"
                        },
                        "intensity" : {
                          "type" : "double",
                          "defaultValue" : 0.5,
                          "interp" : "linr"
                        },
                        "width" : {
                          "type" : "double",
                          "defaultValue" : 560.0,
                          "interp" : "linr"
                        },
                        "filename" : "C:\\Users\\14044\\AppData\\Local\\TechSmith\\Camtasia Studio\\23.0\\Features\\Tools\\Annotations\\Defaults\\ReverseHighlight_100x100.xml",
                        "name" : "",
                        "xmlContent" : "﻿<?xml version=\"1.0\"?>\n\n<Overlay version=\"1.0.1\">\n\n<Overlay_Filename>ReverseHighlight_100x100.png</Overlay_Filename>\n<Overlay_Name>Spotlight</Overlay_Name>\n<Text_Top>0</Text_Top>\n<Text_Left>0</Text_Left>\n<Text_Bottom>0</Text_Bottom>\n<Text_Right>0</Text_Right>\n<Fill_Color>0</Fill_Color>\n<Border_Color>0</Border_Color>\n</Overlay>"
                    },
                    "attributes" : {
                      "ident" : "",
                      "autoRotateText" : true
                    },
                    "parameters" : {
                      "translation0" : {
                        "type" : "double",
                        "defaultValue" : -857.999999999999,
                        "interp" : "eioe"
                      },
                      "translation1" : {
                        "type" : "double",
                        "defaultValue" : 511.0,
                        "interp" : "eioe"
                      },
                      "scale0" : {
                        "type" : "double",
                        "defaultValue" : 0.214285714285717,
                        "interp" : "eioe"
                      },
                      "scale1" : {
                        "type" : "double",
                        "defaultValue" : 0.256716417910446,
                        "interp" : "eioe"
                      },
                      "scale2" : {
                        "type" : "double",
                        "defaultValue" : 1.0,
                        "interp" : "eioe"
                      },
                      "geometryCrop0" : {
                        "type" : "double",
                        "defaultValue" : 0.0,
                        "interp" : "eioe"
                      },
                      "geometryCrop1" : {
                        "type" : "double",
                        "defaultValue" : 0.0,
                        "interp" : "eioe"
                      },
                      "geometryCrop2" : {
                        "type" : "double",
                        "defaultValue" : 0.0,
                        "interp" : "eioe"
                      },
                      "geometryCrop3" : {
                        "type" : "double",
                        "defaultValue" : 0.0,
                        "interp" : "eioe"
                      }
                    },
                    "effects" : [

                    ],
                    "start" : 93256800000,
                    "duration" : 2728320000,
                    "mediaStart" : -658560000,
                    "mediaDuration" : 2728320000,
                    "scalar" : 1,
                    "metadata" : {
                      "audiateLinkedSession" : "",
                      "clipSpeedAttribute" : false,
                      "default-anchor0" : 0.0,
                      "default-anchor1" : 0.0,
                      "default-anchor2" : 0.0,
                      "default-height" : 167.0,
                      "default-rotation0" : 0.0,
                      "default-rotation1" : 0.0,
                      "default-rotation2" : 0.0,
                      "default-scale0" : 1.68214285714286,
                      "default-scale1" : 0.498507462686567,
                      "default-scale2" : 1.0,
                      "default-shear0" : 0.0,
                      "default-shear1" : 0.0,
                      "default-shear2" : 0.0,
                      "default-translation0" : -285.0,
                      "default-translation1" : 404.0,
                      "default-translation2" : 0.0,
                      "default-width" : 942.000000000002
                    },
                    "animationTracks" : {

                    }
                  },
                  {
                    "id" : 103,
                    "_type" : "Callout",
                    "def" : {
                        "kind" : "TypeWinSpotlight",
                        "shape" : "",
                        "style" : "",
                        "height" : {
                          "type" : "double",
                          "defaultValue" : 335.0,
                          "interp" : "linr"
                        },
                        "intensity" : {
                          "type" : "double",
                          "defaultValue" : 0.5,
                          "interp" : "linr"
                        },
                        "width" : {
                          "type" : "double",
                          "defaultValue" : 560.0,
                          "interp" : "linr"
                        },
                        "filename" : "C:\\Users\\14044\\AppData\\Local\\TechSmith\\Camtasia Studio\\23.0\\Features\\Tools\\Annotations\\Defaults\\ReverseHighlight_100x100.xml",
                        "name" : "",
                        "xmlContent" : "﻿<?xml version=\"1.0\"?>\n\n<Overlay version=\"1.0.1\">\n\n<Overlay_Filename>ReverseHighlight_100x100.png</Overlay_Filename>\n<Overlay_Name>Spotlight</Overlay_Name>\n<Text_Top>0</Text_Top>\n<Text_Left>0</Text_Left>\n<Text_Bottom>0</Text_Bottom>\n<Text_Right>0</Text_Right>\n<Fill_Color>0</Fill_Color>\n<Border_Color>0</Border_Color>\n</Overlay>"
                    },
                    "attributes" : {
                      "ident" : "",
                      "autoRotateText" : true
                    },
                    "parameters" : {
                      "translation0" : {
                        "type" : "double",
                        "defaultValue" : 885.0,
                        "interp" : "eioe"
                      },
                      "translation1" : {
                        "type" : "double",
                        "defaultValue" : 474.0,
                        "interp" : "eioe"
                      },
                      "scale0" : {
                        "type" : "double",
                        "defaultValue" : 0.553571428571432,
                        "interp" : "eioe"
                      },
                      "scale1" : {
                        "type" : "double",
                        "defaultValue" : 0.525373134328358,
                        "interp" : "eioe"
                      },
                      "scale2" : {
                        "type" : "double",
                        "defaultValue" : 1.0,
                        "interp" : "eioe"
                      },
                      "geometryCrop0" : {
                        "type" : "double",
                        "defaultValue" : 0.0,
                        "interp" : "eioe"
                      },
                      "geometryCrop1" : {
                        "type" : "double",
                        "defaultValue" : 0.0,
                        "interp" : "eioe"
                      },
                      "geometryCrop2" : {
                        "type" : "double",
                        "defaultValue" : 0.0,
                        "interp" : "eioe"
                      },
                      "geometryCrop3" : {
                        "type" : "double",
                        "defaultValue" : 0.0,
                        "interp" : "eioe"
                      }
                    },
                    "effects" : [

                    ],
                    "start" : 96949440000,
                    "duration" : 4327680000,
                    "mediaStart" : -823200000,
                    "mediaDuration" : 4327680000,
                    "scalar" : 1,
                    "metadata" : {
                      "audiateLinkedSession" : "",
                      "clipSpeedAttribute" : false,
                      "default-anchor0" : 0.0,
                      "default-anchor1" : 0.0,
                      "default-anchor2" : 0.0,
                      "default-height" : 167.0,
                      "default-rotation0" : 0.0,
                      "default-rotation1" : 0.0,
                      "default-rotation2" : 0.0,
                      "default-scale0" : 1.68214285714286,
                      "default-scale1" : 0.498507462686567,
                      "default-scale2" : 1.0,
                      "default-shear0" : 0.0,
                      "default-shear1" : 0.0,
                      "default-shear2" : 0.0,
                      "default-translation0" : -285.0,
                      "default-translation1" : 404.0,
                      "default-translation2" : 0.0,
                      "default-width" : 942.000000000002
                    },
                    "animationTracks" : {

                    }
                  }
                ],
                "transitions" : [
                  {
                    "name" : "Fade",
                    "duration" : 705600000,
                    "rightMedia" : 92,
                    "attributes" : {
                      "bypass" : false,
                      "reverse" : false,
                      "trivial" : false,
                      "useAudioPreRoll" : true,
                      "useVisualPreRoll" : true
                    }

                  },
                  {
                    "name" : "Fade",
                    "duration" : 705600000,
                    "leftMedia" : 92,
                    "attributes" : {
                      "bypass" : false,
                      "reverse" : false,
                      "trivial" : false,
                      "useAudioPreRoll" : true,
                      "useVisualPreRoll" : true
                    }

                  },
                  {
                    "name" : "Fade",
                    "duration" : 705600000,
                    "rightMedia" : 93,
                    "attributes" : {
                      "bypass" : false,
                      "reverse" : false,
                      "trivial" : false,
                      "useAudioPreRoll" : true,
                      "useVisualPreRoll" : true
                    }

                  },
                  {
                    "name" : "Fade",
                    "duration" : 705600000,
                    "leftMedia" : 93,
                    "attributes" : {
                      "bypass" : false,
                      "reverse" : false,
                      "trivial" : false,
                      "useAudioPreRoll" : true,
                      "useVisualPreRoll" : true
                    }

                  },
                  {
                    "name" : "Fade",
                    "duration" : 705600000,
                    "rightMedia" : 94,
                    "attributes" : {
                      "bypass" : false,
                      "reverse" : false,
                      "trivial" : false,
                      "useAudioPreRoll" : true,
                      "useVisualPreRoll" : true
                    }

                  },
                  {
                    "name" : "Fade",
                    "duration" : 705600000,
                    "leftMedia" : 94,
                    "attributes" : {
                      "bypass" : false,
                      "reverse" : false,
                      "trivial" : false,
                      "useAudioPreRoll" : true,
                      "useVisualPreRoll" : true
                    }

                  },
                  {
                    "name" : "Fade",
                    "duration" : 705600000,
                    "rightMedia" : 95,
                    "attributes" : {
                      "bypass" : false,
                      "reverse" : false,
                      "trivial" : false,
                      "useAudioPreRoll" : true,
                      "useVisualPreRoll" : true
                    }

                  },
                  {
                    "name" : "Fade",
                    "duration" : 705600000,
                    "leftMedia" : 95,
                    "attributes" : {
                      "bypass" : false,
                      "reverse" : false,
                      "trivial" : false,
                      "useAudioPreRoll" : true,
                      "useVisualPreRoll" : true
                    }

                  },
                  {
                    "name" : "Fade",
                    "duration" : 705600000,
                    "rightMedia" : 96,
                    "attributes" : {
                      "bypass" : false,
                      "reverse" : false,
                      "trivial" : false,
                      "useAudioPreRoll" : true,
                      "useVisualPreRoll" : true
                    }

                  },
                  {
                    "name" : "Fade",
                    "duration" : 705600000,
                    "leftMedia" : 96,
                    "attributes" : {
                      "bypass" : false,
                      "reverse" : false,
                      "trivial" : false,
                      "useAudioPreRoll" : true,
                      "useVisualPreRoll" : true
                    }

                  },
                  {
                    "name" : "Fade",
                    "duration" : 705600000,
                    "rightMedia" : 97,
                    "attributes" : {
                      "bypass" : false,
                      "reverse" : false,
                      "trivial" : false,
                      "useAudioPreRoll" : true,
                      "useVisualPreRoll" : true
                    }

                  },
                  {
                    "name" : "Fade",
                    "duration" : 705600000,
                    "leftMedia" : 97,
                    "attributes" : {
                      "bypass" : false,
                      "reverse" : false,
                      "trivial" : false,
                      "useAudioPreRoll" : true,
                      "useVisualPreRoll" : true
                    }

                  },
                  {
                    "name" : "Fade",
                    "duration" : 705600000,
                    "rightMedia" : 98,
                    "attributes" : {
                      "bypass" : false,
                      "reverse" : false,
                      "trivial" : false,
                      "useAudioPreRoll" : true,
                      "useVisualPreRoll" : true
                    }

                  },
                  {
                    "name" : "Fade",
                    "duration" : 705600000,
                    "leftMedia" : 98,
                    "attributes" : {
                      "bypass" : false,
                      "reverse" : false,
                      "trivial" : false,
                      "useAudioPreRoll" : true,
                      "useVisualPreRoll" : true
                    }

                  },
                  {
                    "name" : "Fade",
                    "duration" : 705600000,
                    "rightMedia" : 99,
                    "attributes" : {
                      "bypass" : false,
                      "reverse" : false,
                      "trivial" : false,
                      "useAudioPreRoll" : true,
                      "useVisualPreRoll" : true
                    }

                  },
                  {
                    "name" : "Fade",
                    "duration" : 705600000,
                    "leftMedia" : 99,
                    "attributes" : {
                      "bypass" : false,
                      "reverse" : false,
                      "trivial" : false,
                      "useAudioPreRoll" : true,
                      "useVisualPreRoll" : true
                    }

                  },
                  {
                    "name" : "Fade",
                    "duration" : 705600000,
                    "rightMedia" : 100,
                    "attributes" : {
                      "bypass" : false,
                      "reverse" : false,
                      "trivial" : false,
                      "useAudioPreRoll" : true,
                      "useVisualPreRoll" : true
                    }

                  },
                  {
                    "name" : "Fade",
                    "duration" : 705600000,
                    "leftMedia" : 100,
                    "attributes" : {
                      "bypass" : false,
                      "reverse" : false,
                      "trivial" : false,
                      "useAudioPreRoll" : true,
                      "useVisualPreRoll" : true
                    }

                  },
                  {
                    "name" : "Fade",
                    "duration" : 705600000,
                    "rightMedia" : 101,
                    "attributes" : {
                      "bypass" : false,
                      "reverse" : false,
                      "trivial" : false,
                      "useAudioPreRoll" : true,
                      "useVisualPreRoll" : true
                    }

                  },
                  {
                    "name" : "Fade",
                    "duration" : 705600000,
                    "leftMedia" : 101,
                    "attributes" : {
                      "bypass" : false,
                      "reverse" : false,
                      "trivial" : false,
                      "useAudioPreRoll" : true,
                      "useVisualPreRoll" : true
                    }

                  },
                  {
                    "name" : "Fade",
                    "duration" : 705600000,
                    "rightMedia" : 102,
                    "attributes" : {
                      "bypass" : false,
                      "reverse" : false,
                      "trivial" : false,
                      "useAudioPreRoll" : true,
                      "useVisualPreRoll" : true
                    }

                  },
                  {
                    "name" : "Fade",
                    "duration" : 705600000,
                    "leftMedia" : 102,
                    "attributes" : {
                      "bypass" : false,
                      "reverse" : false,
                      "trivial" : false,
                      "useAudioPreRoll" : true,
                      "useVisualPreRoll" : true
                    }

                  },
                  {
                    "name" : "Fade",
                    "duration" : 705600000,
                    "rightMedia" : 103,
                    "attributes" : {
                      "bypass" : false,
                      "reverse" : false,
                      "trivial" : false,
                      "useAudioPreRoll" : true,
                      "useVisualPreRoll" : true
                    }

                  },
                  {
                    "name" : "Fade",
                    "duration" : 705600000,
                    "leftMedia" : 103,
                    "attributes" : {
                      "bypass" : false,
                      "reverse" : false,
                      "trivial" : false,
                      "useAudioPreRoll" : true,
                      "useVisualPreRoll" : true
                    }

                  }
                ]
              },
              {
                "trackIndex" : 3,
                "medias" : [
                  {
                    "id" : 104,
                    "_type" : "Callout",
                    "def" : {
                        "kind" : "TypeWinSVG",
                        "shape" : "",
                        "style" : "",
                        "DrawTime" : {
                          "type" : "double",
                          "defaultValue" : 1.0,
                          "interp" : "linr"
                        },
                        "borderColorBlue" : {
                          "type" : "double",
                          "defaultValue" : 0.184313725490196,
                          "interp" : "linr"
                        },
                        "borderColorGreen" : {
                          "type" : "double",
                          "defaultValue" : 0.156862745098039,
                          "interp" : "linr"
                        },
                        "borderColorRed" : {
                          "type" : "double",
                          "defaultValue" : 0.137254901960784,
                          "interp" : "linr"
                        },
                        "borderWidth" : {
                          "type" : "double",
                          "defaultValue" : 8.97457627118644,
                          "interp" : "linr"
                        },
                        "enable-ligatures" : {
                          "type" : "double",
                          "defaultValue" : 0.0,
                          "interp" : "linr"
                        },
                        "flipOnXAxis" : {
                          "type" : "double",
                          "defaultValue" : 0.0,
                          "interp" : "linr"
                        },
                        "flipOnYAxis" : {
                          "type" : "double",
                          "defaultValue" : 0.0,
                          "interp" : "linr"
                        },
                        "height" : {
                          "type" : "double",
                          "defaultValue" : 335.0,
                          "interp" : "linr"
                        },
                        "width" : {
                          "type" : "double",
                          "defaultValue" : 560.0,
                          "interp" : "linr"
                        },
                        "filename" : "C:\\Users\\14044\\AppData\\Local\\TechSmith\\Camtasia Studio\\23.0\\Features\\Tools\\Annotations\\Defaults\\anim_drawnperfectrectangle.svg",
                        "name" : "",
                        "resize-behavior" : "resizeCallout",
                        "xmlContent" : "﻿<?xml version=\"1.0\" encoding=\"utf-8\"?>\n<!DOCTYPE svg PUBLIC \"-//W3C//DTD SVG 1.1//EN\" \"http://www.w3.org/Graphics/SVG/1.1/DTD/svg11.dtd\">\n<svg version=\"1.1\" x=\"0px\" y=\"0px\" width=\"100px\" height=\"100px\" xml:space=\"preserve\">\n<path fill=\"none\" d=\"M 10 10 L 10 90 L 90 90 L 90 10 Z\"/>\n</svg>\n"
                    },
                    "attributes" : {
                      "ident" : "",
                      "autoRotateText" : true
                    },
                    "parameters" : {
                      "translation0" : {
                        "type" : "double",
                        "defaultValue" : -72.9999999999999,
                        "interp" : "eioe"
                      },
                      "translation1" : {
                        "type" : "double",
                        "defaultValue" : 402.0,
                        "interp" : "eioe"
                      },
                      "scale0" : {
                        "type" : "double",
                        "defaultValue" : 0.846428571428574,
                        "interp" : "eioe"
                      },
                      "scale1" : {
                        "type" : "double",
                        "defaultValue" : 0.331343283582089,
                        "interp" : "eioe"
                      },
                      "scale2" : {
                        "type" : "double",
                        "defaultValue" : 1.0,
                        "interp" : "eioe"
                      },
                      "geometryCrop0" : {
                        "type" : "double",
                        "defaultValue" : 0.0,
                        "interp" : "eioe"
                      },
                      "geometryCrop1" : {
                        "type" : "double",
                        "defaultValue" : 0.0,
                        "interp" : "eioe"
                      },
                      "geometryCrop2" : {
                        "type" : "double",
                        "defaultValue" : 0.0,
                        "interp" : "eioe"
                      },
                      "geometryCrop3" : {
                        "type" : "double",
                        "defaultValue" : 0.0,
                        "interp" : "eioe"
                      }
                    },
                    "leftEdgeMods" : [
                      {
                        "group" : "DrawPercentageFade",
                        "duration" : 705600000,
                        "parameters" : [
                          {
                            "name" : "DrawTime",
                              "func" : "FadeInFunc"
                            }
                        ]
                      }
                    ],
                    "effects" : [

                    ],
                    "start" : 11383680000,
                    "duration" : 2493120000,
                    "mediaStart" : -658560000,
                    "mediaDuration" : 2493120000,
                    "scalar" : 1,
                    "metadata" : {
                      "audiateLinkedSession" : "",
                      "clipSpeedAttribute" : false,
                      "default-anchor0" : 0.0,
                      "default-anchor1" : 0.0,
                      "default-anchor2" : 0.0,
                      "default-height" : 167.0,
                      "default-rotation0" : 0.0,
                      "default-rotation1" : 0.0,
                      "default-rotation2" : 0.0,
                      "default-scale0" : 1.68214285714286,
                      "default-scale1" : 0.498507462686567,
                      "default-scale2" : 1.0,
                      "default-shear0" : 0.0,
                      "default-shear1" : 0.0,
                      "default-shear2" : 0.0,
                      "default-translation0" : -285.0,
                      "default-translation1" : 404.0,
                      "default-translation2" : 0.0,
                      "default-width" : 942.000000000002
                    },
                    "animationTracks" : {

                    }
                  },
                  {
                    "id" : 105,
                    "_type" : "Callout",
                    "def" : {
                        "kind" : "TypeWinSVG",
                        "shape" : "",
                        "style" : "",
                        "DrawTime" : {
                          "type" : "double",
                          "defaultValue" : 1.0,
                          "interp" : "linr"
                        },
                        "borderColorBlue" : {
                          "type" : "double",
                          "defaultValue" : 0.184313725490196,
                          "interp" : "linr"
                        },
                        "borderColorGreen" : {
                          "type" : "double",
                          "defaultValue" : 0.156862745098039,
                          "interp" : "linr"
                        },
                        "borderColorRed" : {
                          "type" : "double",
                          "defaultValue" : 0.137254901960784,
                          "interp" : "linr"
                        },
                        "borderWidth" : {
                          "type" : "double",
                          "defaultValue" : 8.97457627118644,
                          "interp" : "linr"
                        },
                        "enable-ligatures" : {
                          "type" : "double",
                          "defaultValue" : 0.0,
                          "interp" : "linr"
                        },
                        "flipOnXAxis" : {
                          "type" : "double",
                          "defaultValue" : 0.0,
                          "interp" : "linr"
                        },
                        "flipOnYAxis" : {
                          "type" : "double",
                          "defaultValue" : 0.0,
                          "interp" : "linr"
                        },
                        "height" : {
                          "type" : "double",
                          "defaultValue" : 335.0,
                          "interp" : "linr"
                        },
                        "width" : {
                          "type" : "double",
                          "defaultValue" : 560.0,
                          "interp" : "linr"
                        },
                        "filename" : "C:\\Users\\14044\\AppData\\Local\\TechSmith\\Camtasia Studio\\23.0\\Features\\Tools\\Annotations\\Defaults\\anim_drawnperfectrectangle.svg",
                        "name" : "",
                        "resize-behavior" : "resizeCallout",
                        "xmlContent" : "﻿<?xml version=\"1.0\" encoding=\"utf-8\"?>\n<!DOCTYPE svg PUBLIC \"-//W3C//DTD SVG 1.1//EN\" \"http://www.w3.org/Graphics/SVG/1.1/DTD/svg11.dtd\">\n<svg version=\"1.1\" x=\"0px\" y=\"0px\" width=\"100px\" height=\"100px\" xml:space=\"preserve\">\n<path fill=\"none\" d=\"M 10 10 L 10 90 L 90 90 L 90 10 Z\"/>\n</svg>\n"
                    },
                    "attributes" : {
                      "ident" : "",
                      "autoRotateText" : true
                    },
                    "parameters" : {
                      "translation0" : {
                        "type" : "double",
                        "defaultValue" : 1.99999999999898,
                        "interp" : "eioe"
                      },
                      "translation1" : {
                        "type" : "double",
                        "defaultValue" : -89.5845072373933,
                        "interp" : "eioe"
                      },
                      "scale0" : {
                        "type" : "double",
                        "defaultValue" : 1.52142857142857,
                        "interp" : "eioe"
                      },
                      "scale1" : {
                        "type" : "double",
                        "defaultValue" : 0.159832355339155,
                        "interp" : "eioe"
                      },
                      "geometryCrop0" : {
                        "type" : "double",
                        "defaultValue" : 0.0,
                        "interp" : "eioe"
                      },
                      "geometryCrop1" : {
                        "type" : "double",
                        "defaultValue" : 0.0,
                        "interp" : "eioe"
                      },
                      "geometryCrop2" : {
                        "type" : "double",
                        "defaultValue" : 0.0,
                        "interp" : "eioe"
                      },
                      "geometryCrop3" : {
                        "type" : "double",
                        "defaultValue" : 0.0,
                        "interp" : "eioe"
                      }
                    },
                    "leftEdgeMods" : [
                      {
                        "group" : "DrawPercentageFade",
                        "duration" : 705600000,
                        "parameters" : [
                          {
                            "name" : "DrawTime",
                              "func" : "FadeInFunc"
                            }
                        ]
                      }
                    ],
                    "effects" : [

                    ],
                    "start" : 21050400000,
                    "duration" : 1552320000,
                    "mediaStart" : -776160000,
                    "mediaDuration" : 1552320000,
                    "scalar" : 1,
                    "metadata" : {
                      "audiateLinkedSession" : "",
                      "clipSpeedAttribute" : false,
                      "default-anchor0" : 0.0,
                      "default-anchor1" : 0.0,
                      "default-anchor2" : 0.0,
                      "default-height" : 167.0,
                      "default-rotation0" : 0.0,
                      "default-rotation1" : 0.0,
                      "default-rotation2" : 0.0,
                      "default-scale0" : 1.68214285714286,
                      "default-scale1" : 0.498507462686567,
                      "default-scale2" : 1.0,
                      "default-shear0" : 0.0,
                      "default-shear1" : 0.0,
                      "default-shear2" : 0.0,
                      "default-translation0" : -285.0,
                      "default-translation1" : 404.0,
                      "default-translation2" : 0.0,
                      "default-width" : 942.000000000002
                    },
                    "animationTracks" : {

                    }
                  },
                  {
                    "id" : 106,
                    "_type" : "Callout",
                    "def" : {
                        "kind" : "TypeWinSVG",
                        "shape" : "",
                        "style" : "",
                        "DrawTime" : {
                          "type" : "double",
                          "defaultValue" : 1.0,
                          "interp" : "linr"
                        },
                        "borderColorBlue" : {
                          "type" : "double",
                          "defaultValue" : 0.184313725490196,
                          "interp" : "linr"
                        },
                        "borderColorGreen" : {
                          "type" : "double",
                          "defaultValue" : 0.156862745098039,
                          "interp" : "linr"
                        },
                        "borderColorRed" : {
                          "type" : "double",
                          "defaultValue" : 0.137254901960784,
                          "interp" : "linr"
                        },
                        "borderWidth" : {
                          "type" : "double",
                          "defaultValue" : 8.97457627118644,
                          "interp" : "linr"
                        },
                        "enable-ligatures" : {
                          "type" : "double",
                          "defaultValue" : 0.0,
                          "interp" : "linr"
                        },
                        "flipOnXAxis" : {
                          "type" : "double",
                          "defaultValue" : 0.0,
                          "interp" : "linr"
                        },
                        "flipOnYAxis" : {
                          "type" : "double",
                          "defaultValue" : 0.0,
                          "interp" : "linr"
                        },
                        "height" : {
                          "type" : "double",
                          "defaultValue" : 335.0,
                          "interp" : "linr"
                        },
                        "width" : {
                          "type" : "double",
                          "defaultValue" : 560.0,
                          "interp" : "linr"
                        },
                        "filename" : "C:\\Users\\14044\\AppData\\Local\\TechSmith\\Camtasia Studio\\23.0\\Features\\Tools\\Annotations\\Defaults\\anim_drawnperfectrectangle.svg",
                        "name" : "",
                        "resize-behavior" : "resizeCallout",
                        "xmlContent" : "﻿<?xml version=\"1.0\" encoding=\"utf-8\"?>\n<!DOCTYPE svg PUBLIC \"-//W3C//DTD SVG 1.1//EN\" \"http://www.w3.org/Graphics/SVG/1.1/DTD/svg11.dtd\">\n<svg version=\"1.1\" x=\"0px\" y=\"0px\" width=\"100px\" height=\"100px\" xml:space=\"preserve\">\n<path fill=\"none\" d=\"M 10 10 L 10 90 L 90 90 L 90 10 Z\"/>\n</svg>\n"
                    },
                    "attributes" : {
                      "ident" : "",
                      "autoRotateText" : true
                    },
                    "parameters" : {
                      "translation0" : {
                        "type" : "double",
                        "defaultValue" : -4.00009263993883,
                        "interp" : "eioe"
                      },
                      "translation1" : {
                        "type" : "double",
                        "defaultValue" : -14.0,
                        "interp" : "eioe"
                      },
                      "scale0" : {
                        "type" : "double",
                        "defaultValue" : 1.49642857142857,
                        "interp" : "eioe"
                      },
                      "scale1" : {
                        "type" : "double",
                        "defaultValue" : 0.414925373134328,
                        "interp" : "eioe"
                      },
                      "scale2" : {
                        "type" : "double",
                        "defaultValue" : 1.0,
                        "interp" : "eioe"
                      },
                      "geometryCrop0" : {
                        "type" : "double",
                        "defaultValue" : 0.0,
                        "interp" : "eioe"
                      },
                      "geometryCrop1" : {
                        "type" : "double",
                        "defaultValue" : 0.0,
                        "interp" : "eioe"
                      },
                      "geometryCrop2" : {
                        "type" : "double",
                        "defaultValue" : 0.0,
                        "interp" : "eioe"
                      },
                      "geometryCrop3" : {
                        "type" : "double",
                        "defaultValue" : 0.0,
                        "interp" : "eioe"
                      }
                    },
                    "leftEdgeMods" : [
                      {
                        "group" : "DrawPercentageFade",
                        "duration" : 705600000,
                        "parameters" : [
                          {
                            "name" : "DrawTime",
                              "func" : "FadeInFunc"
                            }
                        ]
                      }
                    ],
                    "effects" : [

                    ],
                    "start" : 27259680000,
                    "duration" : 2681280000,
                    "mediaStart" : 0,
                    "mediaDuration" : 2681280000,
                    "scalar" : 1,
                    "metadata" : {
                      "audiateLinkedSession" : "",
                      "clipSpeedAttribute" : false,
                      "default-anchor0" : 0.0,
                      "default-anchor1" : 0.0,
                      "default-anchor2" : 0.0,
                      "default-height" : 167.0,
                      "default-rotation0" : 0.0,
                      "default-rotation1" : 0.0,
                      "default-rotation2" : 0.0,
                      "default-scale0" : 1.68214285714286,
                      "default-scale1" : 0.498507462686567,
                      "default-scale2" : 1.0,
                      "default-shear0" : 0.0,
                      "default-shear1" : 0.0,
                      "default-shear2" : 0.0,
                      "default-translation0" : -285.0,
                      "default-translation1" : 404.0,
                      "default-translation2" : 0.0,
                      "default-width" : 942.000000000002
                    },
                    "animationTracks" : {

                    }
                  },
                  {
                    "id" : 107,
                    "_type" : "Callout",
                    "def" : {
                        "kind" : "TypeWinSVG",
                        "shape" : "",
                        "style" : "",
                        "DrawTime" : {
                          "type" : "double",
                          "defaultValue" : 1.0,
                          "interp" : "linr"
                        },
                        "borderColorBlue" : {
                          "type" : "double",
                          "defaultValue" : 0.184313725490196,
                          "interp" : "linr"
                        },
                        "borderColorGreen" : {
                          "type" : "double",
                          "defaultValue" : 0.156862745098039,
                          "interp" : "linr"
                        },
                        "borderColorRed" : {
                          "type" : "double",
                          "defaultValue" : 0.137254901960784,
                          "interp" : "linr"
                        },
                        "borderWidth" : {
                          "type" : "double",
                          "defaultValue" : 8.97457627118644,
                          "interp" : "linr"
                        },
                        "enable-ligatures" : {
                          "type" : "double",
                          "defaultValue" : 0.0,
                          "interp" : "linr"
                        },
                        "flipOnXAxis" : {
                          "type" : "double",
                          "defaultValue" : 0.0,
                          "interp" : "linr"
                        },
                        "flipOnYAxis" : {
                          "type" : "double",
                          "defaultValue" : 0.0,
                          "interp" : "linr"
                        },
                        "height" : {
                          "type" : "double",
                          "defaultValue" : 335.0,
                          "interp" : "linr"
                        },
                        "width" : {
                          "type" : "double",
                          "defaultValue" : 560.0,
                          "interp" : "linr"
                        },
                        "filename" : "C:\\Users\\14044\\AppData\\Local\\TechSmith\\Camtasia Studio\\23.0\\Features\\Tools\\Annotations\\Defaults\\anim_drawnperfectrectangle.svg",
                        "name" : "",
                        "resize-behavior" : "resizeCallout",
                        "xmlContent" : "﻿<?xml version=\"1.0\" encoding=\"utf-8\"?>\n<!DOCTYPE svg PUBLIC \"-//W3C//DTD SVG 1.1//EN\" \"http://www.w3.org/Graphics/SVG/1.1/DTD/svg11.dtd\">\n<svg version=\"1.1\" x=\"0px\" y=\"0px\" width=\"100px\" height=\"100px\" xml:space=\"preserve\">\n<path fill=\"none\" d=\"M 10 10 L 10 90 L 90 90 L 90 10 Z\"/>\n</svg>\n"
                    },
                    "attributes" : {
                      "ident" : "",
                      "autoRotateText" : true
                    },
                    "parameters" : {
                      "translation0" : {
                        "type" : "double",
                        "defaultValue" : 5.99990736006128,
                        "interp" : "eioe"
                      },
                      "translation1" : {
                        "type" : "double",
                        "defaultValue" : -305.0,
                        "interp" : "eioe"
                      },
                      "scale0" : {
                        "type" : "double",
                        "defaultValue" : 1.43214285714286,
                        "interp" : "eioe"
                      },
                      "scale1" : {
                        "type" : "double",
                        "defaultValue" : 0.277611940298507,
                        "interp" : "eioe"
                      },
                      "geometryCrop0" : {
                        "type" : "double",
                        "defaultValue" : 0.0,
                        "interp" : "eioe"
                      },
                      "geometryCrop1" : {
                        "type" : "double",
                        "defaultValue" : 0.0,
                        "interp" : "eioe"
                      },
                      "geometryCrop2" : {
                        "type" : "double",
                        "defaultValue" : 0.0,
                        "interp" : "eioe"
                      },
                      "geometryCrop3" : {
                        "type" : "double",
                        "defaultValue" : 0.0,
                        "interp" : "eioe"
                      }
                    },
                    "leftEdgeMods" : [
                      {
                        "group" : "DrawPercentageFade",
                        "duration" : 705600000,
                        "parameters" : [
                          {
                            "name" : "DrawTime",
                              "func" : "FadeInFunc"
                            }
                        ]
                      }
                    ],
                    "effects" : [

                    ],
                    "start" : 34668480000,
                    "duration" : 2681280000,
                    "mediaStart" : 0,
                    "mediaDuration" : 2681280000,
                    "scalar" : 1,
                    "metadata" : {
                      "audiateLinkedSession" : "",
                      "clipSpeedAttribute" : false,
                      "default-anchor0" : 0.0,
                      "default-anchor1" : 0.0,
                      "default-anchor2" : 0.0,
                      "default-height" : 167.0,
                      "default-rotation0" : 0.0,
                      "default-rotation1" : 0.0,
                      "default-rotation2" : 0.0,
                      "default-scale0" : 1.68214285714286,
                      "default-scale1" : 0.498507462686567,
                      "default-scale2" : 1.0,
                      "default-shear0" : 0.0,
                      "default-shear1" : 0.0,
                      "default-shear2" : 0.0,
                      "default-translation0" : -285.0,
                      "default-translation1" : 404.0,
                      "default-translation2" : 0.0,
                      "default-width" : 942.000000000002
                    },
                    "animationTracks" : {

                    }
                  },
                  {
                    "id" : 108,
                    "_type" : "Callout",
                    "def" : {
                        "kind" : "TypeWinSVG",
                        "shape" : "",
                        "style" : "",
                        "DrawTime" : {
                          "type" : "double",
                          "defaultValue" : 1.0,
                          "interp" : "linr"
                        },
                        "borderColorBlue" : {
                          "type" : "double",
                          "defaultValue" : 0.184313725490196,
                          "interp" : "linr"
                        },
                        "borderColorGreen" : {
                          "type" : "double",
                          "defaultValue" : 0.156862745098039,
                          "interp" : "linr"
                        },
                        "borderColorRed" : {
                          "type" : "double",
                          "defaultValue" : 0.137254901960784,
                          "interp" : "linr"
                        },
                        "borderWidth" : {
                          "type" : "double",
                          "defaultValue" : 8.97457627118644,
                          "interp" : "linr"
                        },
                        "enable-ligatures" : {
                          "type" : "double",
                          "defaultValue" : 0.0,
                          "interp" : "linr"
                        },
                        "flipOnXAxis" : {
                          "type" : "double",
                          "defaultValue" : 0.0,
                          "interp" : "linr"
                        },
                        "flipOnYAxis" : {
                          "type" : "double",
                          "defaultValue" : 0.0,
                          "interp" : "linr"
                        },
                        "height" : {
                          "type" : "double",
                          "defaultValue" : 335.0,
                          "interp" : "linr"
                        },
                        "width" : {
                          "type" : "double",
                          "defaultValue" : 560.0,
                          "interp" : "linr"
                        },
                        "filename" : "C:\\Users\\14044\\AppData\\Local\\TechSmith\\Camtasia Studio\\23.0\\Features\\Tools\\Annotations\\Defaults\\anim_drawnperfectrectangle.svg",
                        "name" : "",
                        "resize-behavior" : "resizeCallout",
                        "xmlContent" : "﻿<?xml version=\"1.0\" encoding=\"utf-8\"?>\n<!DOCTYPE svg PUBLIC \"-//W3C//DTD SVG 1.1//EN\" \"http://www.w3.org/Graphics/SVG/1.1/DTD/svg11.dtd\">\n<svg version=\"1.1\" x=\"0px\" y=\"0px\" width=\"100px\" height=\"100px\" xml:space=\"preserve\">\n<path fill=\"none\" d=\"M 10 10 L 10 90 L 90 90 L 90 10 Z\"/>\n</svg>\n"
                    },
                    "attributes" : {
                      "ident" : "",
                      "autoRotateText" : true
                    },
                    "parameters" : {
                      "translation0" : {
                        "type" : "double",
                        "defaultValue" : 1.99990736006146,
                        "interp" : "eioe"
                      },
                      "translation1" : {
                        "type" : "double",
                        "defaultValue" : -62.0000000000003,
                        "interp" : "eioe"
                      },
                      "scale0" : {
                        "type" : "double",
                        "defaultValue" : 1.06785714285715,
                        "interp" : "eioe"
                      },
                      "scale1" : {
                        "type" : "double",
                        "defaultValue" : 0.892537313432836,
                        "interp" : "eioe"
                      },
                      "geometryCrop0" : {
                        "type" : "double",
                        "defaultValue" : 0.0,
                        "interp" : "eioe"
                      },
                      "geometryCrop1" : {
                        "type" : "double",
                        "defaultValue" : 0.0,
                        "interp" : "eioe"
                      },
                      "geometryCrop2" : {
                        "type" : "double",
                        "defaultValue" : 0.0,
                        "interp" : "eioe"
                      },
                      "geometryCrop3" : {
                        "type" : "double",
                        "defaultValue" : 0.0,
                        "interp" : "eioe"
                      }
                    },
                    "leftEdgeMods" : [
                      {
                        "group" : "DrawPercentageFade",
                        "duration" : 705600000,
                        "parameters" : [
                          {
                            "name" : "DrawTime",
                              "func" : "FadeInFunc"
                            }
                        ]
                      }
                    ],
                    "effects" : [

                    ],
                    "start" : 55248480000,
                    "duration" : 2187360000,
                    "mediaStart" : -493920000,
                    "mediaDuration" : 2187360000,
                    "scalar" : 1,
                    "metadata" : {
                      "audiateLinkedSession" : "",
                      "clipSpeedAttribute" : false,
                      "default-anchor0" : 0.0,
                      "default-anchor1" : 0.0,
                      "default-anchor2" : 0.0,
                      "default-height" : 167.0,
                      "default-rotation0" : 0.0,
                      "default-rotation1" : 0.0,
                      "default-rotation2" : 0.0,
                      "default-scale0" : 1.68214285714286,
                      "default-scale1" : 0.498507462686567,
                      "default-scale2" : 1.0,
                      "default-shear0" : 0.0,
                      "default-shear1" : 0.0,
                      "default-shear2" : 0.0,
                      "default-translation0" : -285.0,
                      "default-translation1" : 404.0,
                      "default-translation2" : 0.0,
                      "default-width" : 942.000000000002
                    },
                    "animationTracks" : {

                    }
                  },
                  {
                    "id" : 109,
                    "_type" : "Callout",
                    "def" : {
                        "kind" : "TypeWinSVG",
                        "shape" : "",
                        "style" : "",
                        "DrawTime" : {
                          "type" : "double",
                          "defaultValue" : 1.0,
                          "interp" : "linr"
                        },
                        "borderColorBlue" : {
                          "type" : "double",
                          "defaultValue" : 0.184313725490196,
                          "interp" : "linr"
                        },
                        "borderColorGreen" : {
                          "type" : "double",
                          "defaultValue" : 0.156862745098039,
                          "interp" : "linr"
                        },
                        "borderColorRed" : {
                          "type" : "double",
                          "defaultValue" : 0.137254901960784,
                          "interp" : "linr"
                        },
                        "borderWidth" : {
                          "type" : "double",
                          "defaultValue" : 8.97457627118644,
                          "interp" : "linr"
                        },
                        "enable-ligatures" : {
                          "type" : "double",
                          "defaultValue" : 0.0,
                          "interp" : "linr"
                        },
                        "flipOnXAxis" : {
                          "type" : "double",
                          "defaultValue" : 0.0,
                          "interp" : "linr"
                        },
                        "flipOnYAxis" : {
                          "type" : "double",
                          "defaultValue" : 0.0,
                          "interp" : "linr"
                        },
                        "height" : {
                          "type" : "double",
                          "defaultValue" : 335.0,
                          "interp" : "linr"
                        },
                        "width" : {
                          "type" : "double",
                          "defaultValue" : 560.0,
                          "interp" : "linr"
                        },
                        "filename" : "C:\\Users\\14044\\AppData\\Local\\TechSmith\\Camtasia Studio\\23.0\\Features\\Tools\\Annotations\\Defaults\\anim_drawnperfectrectangle.svg",
                        "name" : "",
                        "resize-behavior" : "resizeCallout",
                        "xmlContent" : "﻿<?xml version=\"1.0\" encoding=\"utf-8\"?>\n<!DOCTYPE svg PUBLIC \"-//W3C//DTD SVG 1.1//EN\" \"http://www.w3.org/Graphics/SVG/1.1/DTD/svg11.dtd\">\n<svg version=\"1.1\" x=\"0px\" y=\"0px\" width=\"100px\" height=\"100px\" xml:space=\"preserve\">\n<path fill=\"none\" d=\"M 10 10 L 10 90 L 90 90 L 90 10 Z\"/>\n</svg>\n"
                    },
                    "attributes" : {
                      "ident" : "",
                      "autoRotateText" : true
                    },
                    "parameters" : {
                      "translation0" : {
                        "type" : "double",
                        "defaultValue" : 988.999999999999,
                        "interp" : "eioe"
                      },
                      "translation1" : {
                        "type" : "double",
                        "defaultValue" : 230.5,
                        "interp" : "eioe"
                      },
                      "scale0" : {
                        "type" : "double",
                        "defaultValue" : 0.467857142857145,
                        "interp" : "eioe"
                      },
                      "scale1" : {
                        "type" : "double",
                        "defaultValue" : 0.241791044776119,
                        "interp" : "eioe"
                      },
                      "scale2" : {
                        "type" : "double",
                        "defaultValue" : 1.0,
                        "interp" : "eioe"
                      },
                      "geometryCrop0" : {
                        "type" : "double",
                        "defaultValue" : 0.0,
                        "interp" : "eioe"
                      },
                      "geometryCrop1" : {
                        "type" : "double",
                        "defaultValue" : 0.0,
                        "interp" : "eioe"
                      },
                      "geometryCrop2" : {
                        "type" : "double",
                        "defaultValue" : 0.0,
                        "interp" : "eioe"
                      },
                      "geometryCrop3" : {
                        "type" : "double",
                        "defaultValue" : 0.0,
                        "interp" : "eioe"
                      }
                    },
                    "leftEdgeMods" : [
                      {
                        "group" : "DrawPercentageFade",
                        "duration" : 705600000,
                        "parameters" : [
                          {
                            "name" : "DrawTime",
                              "func" : "FadeInFunc"
                            }
                        ]
                      }
                    ],
                    "effects" : [

                    ],
                    "start" : 59928960000,
                    "duration" : 1740480000,
                    "mediaStart" : -823200000,
                    "mediaDuration" : 1740480000,
                    "scalar" : 1,
                    "metadata" : {
                      "audiateLinkedSession" : "",
                      "clipSpeedAttribute" : false,
                      "default-anchor0" : 0.0,
                      "default-anchor1" : 0.0,
                      "default-anchor2" : 0.0,
                      "default-height" : 167.0,
                      "default-rotation0" : 0.0,
                      "default-rotation1" : 0.0,
                      "default-rotation2" : 0.0,
                      "default-scale0" : 1.68214285714286,
                      "default-scale1" : 0.498507462686567,
                      "default-scale2" : 1.0,
                      "default-shear0" : 0.0,
                      "default-shear1" : 0.0,
                      "default-shear2" : 0.0,
                      "default-translation0" : -285.0,
                      "default-translation1" : 404.0,
                      "default-translation2" : 0.0,
                      "default-width" : 942.000000000002
                    },
                    "animationTracks" : {

                    }
                  },
                  {
                    "id" : 110,
                    "_type" : "Callout",
                    "def" : {
                        "kind" : "TypeWinSVG",
                        "shape" : "",
                        "style" : "",
                        "DrawTime" : {
                          "type" : "double",
                          "defaultValue" : 1.0,
                          "interp" : "linr"
                        },
                        "borderColorBlue" : {
                          "type" : "double",
                          "defaultValue" : 0.184313725490196,
                          "interp" : "linr"
                        },
                        "borderColorGreen" : {
                          "type" : "double",
                          "defaultValue" : 0.156862745098039,
                          "interp" : "linr"
                        },
                        "borderColorRed" : {
                          "type" : "double",
                          "defaultValue" : 0.137254901960784,
                          "interp" : "linr"
                        },
                        "borderWidth" : {
                          "type" : "double",
                          "defaultValue" : 8.97457627118644,
                          "interp" : "linr"
                        },
                        "enable-ligatures" : {
                          "type" : "double",
                          "defaultValue" : 0.0,
                          "interp" : "linr"
                        },
                        "flipOnXAxis" : {
                          "type" : "double",
                          "defaultValue" : 0.0,
                          "interp" : "linr"
                        },
                        "flipOnYAxis" : {
                          "type" : "double",
                          "defaultValue" : 0.0,
                          "interp" : "linr"
                        },
                        "height" : {
                          "type" : "double",
                          "defaultValue" : 335.0,
                          "interp" : "linr"
                        },
                        "width" : {
                          "type" : "double",
                          "defaultValue" : 560.0,
                          "interp" : "linr"
                        },
                        "filename" : "C:\\Users\\14044\\AppData\\Local\\TechSmith\\Camtasia Studio\\23.0\\Features\\Tools\\Annotations\\Defaults\\anim_drawnperfectrectangle.svg",
                        "name" : "",
                        "resize-behavior" : "resizeCallout",
                        "xmlContent" : "﻿<?xml version=\"1.0\" encoding=\"utf-8\"?>\n<!DOCTYPE svg PUBLIC \"-//W3C//DTD SVG 1.1//EN\" \"http://www.w3.org/Graphics/SVG/1.1/DTD/svg11.dtd\">\n<svg version=\"1.1\" x=\"0px\" y=\"0px\" width=\"100px\" height=\"100px\" xml:space=\"preserve\">\n<path fill=\"none\" d=\"M 10 10 L 10 90 L 90 90 L 90 10 Z\"/>\n</svg>\n"
                    },
                    "attributes" : {
                      "ident" : "",
                      "autoRotateText" : true
                    },
                    "parameters" : {
                      "translation0" : {
                        "type" : "double",
                        "defaultValue" : 981.999907360062,
                        "interp" : "eioe"
                      },
                      "translation1" : {
                        "type" : "double",
                        "defaultValue" : 512.999999999999,
                        "interp" : "eioe"
                      },
                      "scale0" : {
                        "type" : "double",
                        "defaultValue" : 0.167857142857145,
                        "interp" : "eioe"
                      },
                      "scale1" : {
                        "type" : "double",
                        "defaultValue" : 0.241791044776119,
                        "interp" : "eioe"
                      },
                      "scale2" : {
                        "type" : "double",
                        "defaultValue" : 1.0,
                        "interp" : "eioe"
                      },
                      "geometryCrop0" : {
                        "type" : "double",
                        "defaultValue" : 0.0,
                        "interp" : "eioe"
                      },
                      "geometryCrop1" : {
                        "type" : "double",
                        "defaultValue" : 0.0,
                        "interp" : "eioe"
                      },
                      "geometryCrop2" : {
                        "type" : "double",
                        "defaultValue" : 0.0,
                        "interp" : "eioe"
                      },
                      "geometryCrop3" : {
                        "type" : "double",
                        "defaultValue" : 0.0,
                        "interp" : "eioe"
                      }
                    },
                    "leftEdgeMods" : [
                      {
                        "group" : "DrawPercentageFade",
                        "duration" : 705600000,
                        "parameters" : [
                          {
                            "name" : "DrawTime",
                              "func" : "FadeInFunc"
                            }
                        ]
                      }
                    ],
                    "effects" : [

                    ],
                    "start" : 66632160000,
                    "duration" : 2187360000,
                    "mediaStart" : -493920000,
                    "mediaDuration" : 2187360000,
                    "scalar" : 1,
                    "metadata" : {
                      "audiateLinkedSession" : "",
                      "clipSpeedAttribute" : false,
                      "default-anchor0" : 0.0,
                      "default-anchor1" : 0.0,
                      "default-anchor2" : 0.0,
                      "default-height" : 167.0,
                      "default-rotation0" : 0.0,
                      "default-rotation1" : 0.0,
                      "default-rotation2" : 0.0,
                      "default-scale0" : 1.68214285714286,
                      "default-scale1" : 0.498507462686567,
                      "default-scale2" : 1.0,
                      "default-shear0" : 0.0,
                      "default-shear1" : 0.0,
                      "default-shear2" : 0.0,
                      "default-translation0" : -285.0,
                      "default-translation1" : 404.0,
                      "default-translation2" : 0.0,
                      "default-width" : 942.000000000002
                    },
                    "animationTracks" : {

                    }
                  },
                  {
                    "id" : 111,
                    "_type" : "Callout",
                    "def" : {
                        "kind" : "TypeWinSVG",
                        "shape" : "",
                        "style" : "",
                        "DrawTime" : {
                          "type" : "double",
                          "defaultValue" : 1.0,
                          "interp" : "linr"
                        },
                        "borderColorBlue" : {
                          "type" : "double",
                          "defaultValue" : 0.184313725490196,
                          "interp" : "linr"
                        },
                        "borderColorGreen" : {
                          "type" : "double",
                          "defaultValue" : 0.156862745098039,
                          "interp" : "linr"
                        },
                        "borderColorRed" : {
                          "type" : "double",
                          "defaultValue" : 0.137254901960784,
                          "interp" : "linr"
                        },
                        "borderWidth" : {
                          "type" : "double",
                          "defaultValue" : 8.97457627118644,
                          "interp" : "linr"
                        },
                        "enable-ligatures" : {
                          "type" : "double",
                          "defaultValue" : 0.0,
                          "interp" : "linr"
                        },
                        "flipOnXAxis" : {
                          "type" : "double",
                          "defaultValue" : 0.0,
                          "interp" : "linr"
                        },
                        "flipOnYAxis" : {
                          "type" : "double",
                          "defaultValue" : 0.0,
                          "interp" : "linr"
                        },
                        "height" : {
                          "type" : "double",
                          "defaultValue" : 335.0,
                          "interp" : "linr"
                        },
                        "width" : {
                          "type" : "double",
                          "defaultValue" : 560.0,
                          "interp" : "linr"
                        },
                        "filename" : "C:\\Users\\14044\\AppData\\Local\\TechSmith\\Camtasia Studio\\23.0\\Features\\Tools\\Annotations\\Defaults\\anim_drawnperfectrectangle.svg",
                        "name" : "",
                        "resize-behavior" : "resizeCallout",
                        "xmlContent" : "﻿<?xml version=\"1.0\" encoding=\"utf-8\"?>\n<!DOCTYPE svg PUBLIC \"-//W3C//DTD SVG 1.1//EN\" \"http://www.w3.org/Graphics/SVG/1.1/DTD/svg11.dtd\">\n<svg version=\"1.1\" x=\"0px\" y=\"0px\" width=\"100px\" height=\"100px\" xml:space=\"preserve\">\n<path fill=\"none\" d=\"M 10 10 L 10 90 L 90 90 L 90 10 Z\"/>\n</svg>\n"
                    },
                    "attributes" : {
                      "ident" : "",
                      "autoRotateText" : true
                    },
                    "parameters" : {
                      "translation0" : {
                        "type" : "double",
                        "defaultValue" : 414.999907360062,
                        "interp" : "eioe"
                      },
                      "translation1" : {
                        "type" : "double",
                        "defaultValue" : 94.080618831542,
                        "interp" : "eioe"
                      },
                      "scale0" : {
                        "type" : "double",
                        "defaultValue" : 0.528571428571431,
                        "interp" : "eioe"
                      },
                      "scale1" : {
                        "type" : "double",
                        "defaultValue" : 0.561675336307713,
                        "interp" : "eioe"
                      },
                      "geometryCrop0" : {
                        "type" : "double",
                        "defaultValue" : 0.0,
                        "interp" : "eioe"
                      },
                      "geometryCrop1" : {
                        "type" : "double",
                        "defaultValue" : 0.0,
                        "interp" : "eioe"
                      },
                      "geometryCrop2" : {
                        "type" : "double",
                        "defaultValue" : 0.0,
                        "interp" : "eioe"
                      },
                      "geometryCrop3" : {
                        "type" : "double",
                        "defaultValue" : 0.0,
                        "interp" : "eioe"
                      }
                    },
                    "leftEdgeMods" : [
                      {
                        "group" : "DrawPercentageFade",
                        "duration" : 705600000,
                        "parameters" : [
                          {
                            "name" : "DrawTime",
                              "func" : "FadeInFunc"
                            }
                        ]
                      }
                    ],
                    "effects" : [

                    ],
                    "start" : 73923360000,
                    "duration" : 2775360000,
                    "mediaStart" : -493920000,
                    "mediaDuration" : 2775360000,
                    "scalar" : 1,
                    "metadata" : {
                      "audiateLinkedSession" : "",
                      "clipSpeedAttribute" : false,
                      "default-anchor0" : 0.0,
                      "default-anchor1" : 0.0,
                      "default-anchor2" : 0.0,
                      "default-height" : 167.0,
                      "default-rotation0" : 0.0,
                      "default-rotation1" : 0.0,
                      "default-rotation2" : 0.0,
                      "default-scale0" : 1.68214285714286,
                      "default-scale1" : 0.498507462686567,
                      "default-scale2" : 1.0,
                      "default-shear0" : 0.0,
                      "default-shear1" : 0.0,
                      "default-shear2" : 0.0,
                      "default-translation0" : -285.0,
                      "default-translation1" : 404.0,
                      "default-translation2" : 0.0,
                      "default-width" : 942.000000000002
                    },
                    "animationTracks" : {

                    }
                  },
                  {
                    "id" : 112,
                    "_type" : "Callout",
                    "def" : {
                        "kind" : "TypeWinSVG",
                        "shape" : "",
                        "style" : "",
                        "DrawTime" : {
                          "type" : "double",
                          "defaultValue" : 1.0,
                          "interp" : "linr"
                        },
                        "borderColorBlue" : {
                          "type" : "double",
                          "defaultValue" : 0.184313725490196,
                          "interp" : "linr"
                        },
                        "borderColorGreen" : {
                          "type" : "double",
                          "defaultValue" : 0.156862745098039,
                          "interp" : "linr"
                        },
                        "borderColorRed" : {
                          "type" : "double",
                          "defaultValue" : 0.137254901960784,
                          "interp" : "linr"
                        },
                        "borderWidth" : {
                          "type" : "double",
                          "defaultValue" : 8.97457627118644,
                          "interp" : "linr"
                        },
                        "enable-ligatures" : {
                          "type" : "double",
                          "defaultValue" : 0.0,
                          "interp" : "linr"
                        },
                        "flipOnXAxis" : {
                          "type" : "double",
                          "defaultValue" : 0.0,
                          "interp" : "linr"
                        },
                        "flipOnYAxis" : {
                          "type" : "double",
                          "defaultValue" : 0.0,
                          "interp" : "linr"
                        },
                        "height" : {
                          "type" : "double",
                          "defaultValue" : 335.0,
                          "interp" : "linr"
                        },
                        "width" : {
                          "type" : "double",
                          "defaultValue" : 560.0,
                          "interp" : "linr"
                        },
                        "filename" : "C:\\Users\\14044\\AppData\\Local\\TechSmith\\Camtasia Studio\\23.0\\Features\\Tools\\Annotations\\Defaults\\anim_drawnperfectrectangle.svg",
                        "name" : "",
                        "resize-behavior" : "resizeCallout",
                        "xmlContent" : "﻿<?xml version=\"1.0\" encoding=\"utf-8\"?>\n<!DOCTYPE svg PUBLIC \"-//W3C//DTD SVG 1.1//EN\" \"http://www.w3.org/Graphics/SVG/1.1/DTD/svg11.dtd\">\n<svg version=\"1.1\" x=\"0px\" y=\"0px\" width=\"100px\" height=\"100px\" xml:space=\"preserve\">\n<path fill=\"none\" d=\"M 10 10 L 10 90 L 90 90 L 90 10 Z\"/>\n</svg>\n"
                    },
                    "attributes" : {
                      "ident" : "",
                      "autoRotateText" : true
                    },
                    "parameters" : {
                      "translation0" : {
                        "type" : "double",
                        "defaultValue" : 154.999907360061,
                        "interp" : "eioe"
                      },
                      "translation1" : {
                        "type" : "double",
                        "defaultValue" : -637.5,
                        "interp" : "eioe"
                      },
                      "scale0" : {
                        "type" : "double",
                        "defaultValue" : 2.06428571428572,
                        "interp" : "eioe"
                      },
                      "scale1" : {
                        "type" : "double",
                        "defaultValue" : 0.194029850746269,
                        "interp" : "eioe"
                      },
                      "geometryCrop0" : {
                        "type" : "double",
                        "defaultValue" : 0.0,
                        "interp" : "eioe"
                      },
                      "geometryCrop1" : {
                        "type" : "double",
                        "defaultValue" : 0.0,
                        "interp" : "eioe"
                      },
                      "geometryCrop2" : {
                        "type" : "double",
                        "defaultValue" : 0.0,
                        "interp" : "eioe"
                      },
                      "geometryCrop3" : {
                        "type" : "double",
                        "defaultValue" : 0.0,
                        "interp" : "eioe"
                      }
                    },
                    "leftEdgeMods" : [
                      {
                        "group" : "DrawPercentageFade",
                        "duration" : 705600000,
                        "parameters" : [
                          {
                            "name" : "DrawTime",
                              "func" : "FadeInFunc"
                            }
                        ]
                      }
                    ],
                    "effects" : [

                    ],
                    "start" : 80814720000,
                    "duration" : 2187360000,
                    "mediaStart" : -493920000,
                    "mediaDuration" : 2187360000,
                    "scalar" : 1,
                    "metadata" : {
                      "audiateLinkedSession" : "",
                      "clipSpeedAttribute" : false,
                      "default-anchor0" : 0.0,
                      "default-anchor1" : 0.0,
                      "default-anchor2" : 0.0,
                      "default-height" : 167.0,
                      "default-rotation0" : 0.0,
                      "default-rotation1" : 0.0,
                      "default-rotation2" : 0.0,
                      "default-scale0" : 1.68214285714286,
                      "default-scale1" : 0.498507462686567,
                      "default-scale2" : 1.0,
                      "default-shear0" : 0.0,
                      "default-shear1" : 0.0,
                      "default-shear2" : 0.0,
                      "default-translation0" : -285.0,
                      "default-translation1" : 404.0,
                      "default-translation2" : 0.0,
                      "default-width" : 942.000000000002
                    },
                    "animationTracks" : {

                    }
                  },
                  {
                    "id" : 113,
                    "_type" : "Callout",
                    "def" : {
                        "kind" : "TypeWinSVG",
                        "shape" : "",
                        "style" : "",
                        "DrawTime" : {
                          "type" : "double",
                          "defaultValue" : 1.0,
                          "interp" : "linr"
                        },
                        "borderColorBlue" : {
                          "type" : "double",
                          "defaultValue" : 0.184313725490196,
                          "interp" : "linr"
                        },
                        "borderColorGreen" : {
                          "type" : "double",
                          "defaultValue" : 0.156862745098039,
                          "interp" : "linr"
                        },
                        "borderColorRed" : {
                          "type" : "double",
                          "defaultValue" : 0.137254901960784,
                          "interp" : "linr"
                        },
                        "borderWidth" : {
                          "type" : "double",
                          "defaultValue" : 8.97457627118644,
                          "interp" : "linr"
                        },
                        "enable-ligatures" : {
                          "type" : "double",
                          "defaultValue" : 0.0,
                          "interp" : "linr"
                        },
                        "flipOnXAxis" : {
                          "type" : "double",
                          "defaultValue" : 0.0,
                          "interp" : "linr"
                        },
                        "flipOnYAxis" : {
                          "type" : "double",
                          "defaultValue" : 0.0,
                          "interp" : "linr"
                        },
                        "height" : {
                          "type" : "double",
                          "defaultValue" : 335.0,
                          "interp" : "linr"
                        },
                        "width" : {
                          "type" : "double",
                          "defaultValue" : 560.0,
                          "interp" : "linr"
                        },
                        "filename" : "C:\\Users\\14044\\AppData\\Local\\TechSmith\\Camtasia Studio\\23.0\\Features\\Tools\\Annotations\\Defaults\\anim_drawnperfectrectangle.svg",
                        "name" : "",
                        "resize-behavior" : "resizeCallout",
                        "xmlContent" : "﻿<?xml version=\"1.0\" encoding=\"utf-8\"?>\n<!DOCTYPE svg PUBLIC \"-//W3C//DTD SVG 1.1//EN\" \"http://www.w3.org/Graphics/SVG/1.1/DTD/svg11.dtd\">\n<svg version=\"1.1\" x=\"0px\" y=\"0px\" width=\"100px\" height=\"100px\" xml:space=\"preserve\">\n<path fill=\"none\" d=\"M 10 10 L 10 90 L 90 90 L 90 10 Z\"/>\n</svg>\n"
                    },
                    "attributes" : {
                      "ident" : "",
                      "autoRotateText" : true
                    },
                    "parameters" : {
                      "translation0" : {
                        "type" : "double",
                        "defaultValue" : -849.999999999999,
                        "interp" : "eioe"
                      },
                      "translation1" : {
                        "type" : "double",
                        "defaultValue" : -2.27373675443232e-13,
                        "interp" : "eioe"
                      },
                      "scale0" : {
                        "type" : "double",
                        "defaultValue" : 0.964285714285717,
                        "interp" : "eioe"
                      },
                      "scale1" : {
                        "type" : "double",
                        "defaultValue" : 4.0,
                        "interp" : "eioe"
                      },
                      "geometryCrop0" : {
                        "type" : "double",
                        "defaultValue" : 0.0,
                        "interp" : "eioe"
                      },
                      "geometryCrop1" : {
                        "type" : "double",
                        "defaultValue" : 0.0,
                        "interp" : "eioe"
                      },
                      "geometryCrop2" : {
                        "type" : "double",
                        "defaultValue" : 0.0,
                        "interp" : "eioe"
                      },
                      "geometryCrop3" : {
                        "type" : "double",
                        "defaultValue" : 0.0,
                        "interp" : "eioe"
                      }
                    },
                    "leftEdgeMods" : [
                      {
                        "group" : "DrawPercentageFade",
                        "duration" : 705600000,
                        "parameters" : [
                          {
                            "name" : "DrawTime",
                              "func" : "FadeInFunc"
                            }
                        ]
                      }
                    ],
                    "effects" : [

                    ],
                    "start" : 86436000000,
                    "duration" : 2187360000,
                    "mediaStart" : -493920000,
                    "mediaDuration" : 2187360000,
                    "scalar" : 1,
                    "metadata" : {
                      "audiateLinkedSession" : "",
                      "clipSpeedAttribute" : false,
                      "default-anchor0" : 0.0,
                      "default-anchor1" : 0.0,
                      "default-anchor2" : 0.0,
                      "default-height" : 167.0,
                      "default-rotation0" : 0.0,
                      "default-rotation1" : 0.0,
                      "default-rotation2" : 0.0,
                      "default-scale0" : 1.68214285714286,
                      "default-scale1" : 0.498507462686567,
                      "default-scale2" : 1.0,
                      "default-shear0" : 0.0,
                      "default-shear1" : 0.0,
                      "default-shear2" : 0.0,
                      "default-translation0" : -285.0,
                      "default-translation1" : 404.0,
                      "default-translation2" : 0.0,
                      "default-width" : 942.000000000002
                    },
                    "animationTracks" : {

                    }
                  },
                  {
                    "id" : 114,
                    "_type" : "Callout",
                    "def" : {
                        "kind" : "TypeWinSVG",
                        "shape" : "",
                        "style" : "",
                        "DrawTime" : {
                          "type" : "double",
                          "defaultValue" : 1.0,
                          "interp" : "linr"
                        },
                        "borderColorBlue" : {
                          "type" : "double",
                          "defaultValue" : 0.184313725490196,
                          "interp" : "linr"
                        },
                        "borderColorGreen" : {
                          "type" : "double",
                          "defaultValue" : 0.156862745098039,
                          "interp" : "linr"
                        },
                        "borderColorRed" : {
                          "type" : "double",
                          "defaultValue" : 0.137254901960784,
                          "interp" : "linr"
                        },
                        "borderWidth" : {
                          "type" : "double",
                          "defaultValue" : 8.97457627118644,
                          "interp" : "linr"
                        },
                        "enable-ligatures" : {
                          "type" : "double",
                          "defaultValue" : 0.0,
                          "interp" : "linr"
                        },
                        "flipOnXAxis" : {
                          "type" : "double",
                          "defaultValue" : 0.0,
                          "interp" : "linr"
                        },
                        "flipOnYAxis" : {
                          "type" : "double",
                          "defaultValue" : 0.0,
                          "interp" : "linr"
                        },
                        "height" : {
                          "type" : "double",
                          "defaultValue" : 335.0,
                          "interp" : "linr"
                        },
                        "width" : {
                          "type" : "double",
                          "defaultValue" : 560.0,
                          "interp" : "linr"
                        },
                        "filename" : "C:\\Users\\14044\\AppData\\Local\\TechSmith\\Camtasia Studio\\23.0\\Features\\Tools\\Annotations\\Defaults\\anim_drawnperfectrectangle.svg",
                        "name" : "",
                        "resize-behavior" : "resizeCallout",
                        "xmlContent" : "﻿<?xml version=\"1.0\" encoding=\"utf-8\"?>\n<!DOCTYPE svg PUBLIC \"-//W3C//DTD SVG 1.1//EN\" \"http://www.w3.org/Graphics/SVG/1.1/DTD/svg11.dtd\">\n<svg version=\"1.1\" x=\"0px\" y=\"0px\" width=\"100px\" height=\"100px\" xml:space=\"preserve\">\n<path fill=\"none\" d=\"M 10 10 L 10 90 L 90 90 L 90 10 Z\"/>\n</svg>\n"
                    },
                    "attributes" : {
                      "ident" : "",
                      "autoRotateText" : true
                    },
                    "parameters" : {
                      "translation0" : {
                        "type" : "double",
                        "defaultValue" : -857.999999999999,
                        "interp" : "eioe"
                      },
                      "translation1" : {
                        "type" : "double",
                        "defaultValue" : 511.0,
                        "interp" : "eioe"
                      },
                      "scale0" : {
                        "type" : "double",
                        "defaultValue" : 0.214285714285717,
                        "interp" : "eioe"
                      },
                      "scale1" : {
                        "type" : "double",
                        "defaultValue" : 0.256716417910446,
                        "interp" : "eioe"
                      },
                      "scale2" : {
                        "type" : "double",
                        "defaultValue" : 1.0,
                        "interp" : "eioe"
                      },
                      "geometryCrop0" : {
                        "type" : "double",
                        "defaultValue" : 0.0,
                        "interp" : "eioe"
                      },
                      "geometryCrop1" : {
                        "type" : "double",
                        "defaultValue" : 0.0,
                        "interp" : "eioe"
                      },
                      "geometryCrop2" : {
                        "type" : "double",
                        "defaultValue" : 0.0,
                        "interp" : "eioe"
                      },
                      "geometryCrop3" : {
                        "type" : "double",
                        "defaultValue" : 0.0,
                        "interp" : "eioe"
                      }
                    },
                    "leftEdgeMods" : [
                      {
                        "group" : "DrawPercentageFade",
                        "duration" : 705600000,
                        "parameters" : [
                          {
                            "name" : "DrawTime",
                              "func" : "FadeInFunc"
                            }
                        ]
                      }
                    ],
                    "effects" : [

                    ],
                    "start" : 93280320000,
                    "duration" : 2704800000,
                    "mediaStart" : -658560000,
                    "mediaDuration" : 2704800000,
                    "scalar" : 1,
                    "metadata" : {
                      "audiateLinkedSession" : "",
                      "clipSpeedAttribute" : false,
                      "default-anchor0" : 0.0,
                      "default-anchor1" : 0.0,
                      "default-anchor2" : 0.0,
                      "default-height" : 167.0,
                      "default-rotation0" : 0.0,
                      "default-rotation1" : 0.0,
                      "default-rotation2" : 0.0,
                      "default-scale0" : 1.68214285714286,
                      "default-scale1" : 0.498507462686567,
                      "default-scale2" : 1.0,
                      "default-shear0" : 0.0,
                      "default-shear1" : 0.0,
                      "default-shear2" : 0.0,
                      "default-translation0" : -285.0,
                      "default-translation1" : 404.0,
                      "default-translation2" : 0.0,
                      "default-width" : 942.000000000002
                    },
                    "animationTracks" : {

                    }
                  },
                  {
                    "id" : 115,
                    "_type" : "Callout",
                    "def" : {
                        "kind" : "TypeWinSVG",
                        "shape" : "",
                        "style" : "",
                        "DrawTime" : {
                          "type" : "double",
                          "defaultValue" : 1.0,
                          "interp" : "linr"
                        },
                        "borderColorBlue" : {
                          "type" : "double",
                          "defaultValue" : 0.184313725490196,
                          "interp" : "linr"
                        },
                        "borderColorGreen" : {
                          "type" : "double",
                          "defaultValue" : 0.156862745098039,
                          "interp" : "linr"
                        },
                        "borderColorRed" : {
                          "type" : "double",
                          "defaultValue" : 0.137254901960784,
                          "interp" : "linr"
                        },
                        "borderWidth" : {
                          "type" : "double",
                          "defaultValue" : 8.97457627118644,
                          "interp" : "linr"
                        },
                        "enable-ligatures" : {
                          "type" : "double",
                          "defaultValue" : 0.0,
                          "interp" : "linr"
                        },
                        "flipOnXAxis" : {
                          "type" : "double",
                          "defaultValue" : 0.0,
                          "interp" : "linr"
                        },
                        "flipOnYAxis" : {
                          "type" : "double",
                          "defaultValue" : 0.0,
                          "interp" : "linr"
                        },
                        "height" : {
                          "type" : "double",
                          "defaultValue" : 335.0,
                          "interp" : "linr"
                        },
                        "width" : {
                          "type" : "double",
                          "defaultValue" : 560.0,
                          "interp" : "linr"
                        },
                        "filename" : "C:\\Users\\14044\\AppData\\Local\\TechSmith\\Camtasia Studio\\23.0\\Features\\Tools\\Annotations\\Defaults\\anim_drawnperfectrectangle.svg",
                        "name" : "",
                        "resize-behavior" : "resizeCallout",
                        "xmlContent" : "﻿<?xml version=\"1.0\" encoding=\"utf-8\"?>\n<!DOCTYPE svg PUBLIC \"-//W3C//DTD SVG 1.1//EN\" \"http://www.w3.org/Graphics/SVG/1.1/DTD/svg11.dtd\">\n<svg version=\"1.1\" x=\"0px\" y=\"0px\" width=\"100px\" height=\"100px\" xml:space=\"preserve\">\n<path fill=\"none\" d=\"M 10 10 L 10 90 L 90 90 L 90 10 Z\"/>\n</svg>\n"
                    },
                    "attributes" : {
                      "ident" : "",
                      "autoRotateText" : true
                    },
                    "parameters" : {
                      "translation0" : {
                        "type" : "double",
                        "defaultValue" : 885.0,
                        "interp" : "eioe"
                      },
                      "translation1" : {
                        "type" : "double",
                        "defaultValue" : 474.0,
                        "interp" : "eioe"
                      },
                      "scale0" : {
                        "type" : "double",
                        "defaultValue" : 0.553571428571432,
                        "interp" : "eioe"
                      },
                      "scale1" : {
                        "type" : "double",
                        "defaultValue" : 0.525373134328358,
                        "interp" : "eioe"
                      },
                      "scale2" : {
                        "type" : "double",
                        "defaultValue" : 1.0,
                        "interp" : "eioe"
                      },
                      "geometryCrop0" : {
                        "type" : "double",
                        "defaultValue" : 0.0,
                        "interp" : "eioe"
                      },
                      "geometryCrop1" : {
                        "type" : "double",
                        "defaultValue" : 0.0,
                        "interp" : "eioe"
                      },
                      "geometryCrop2" : {
                        "type" : "double",
                        "defaultValue" : 0.0,
                        "interp" : "eioe"
                      },
                      "geometryCrop3" : {
                        "type" : "double",
                        "defaultValue" : 0.0,
                        "interp" : "eioe"
                      }
                    },
                    "leftEdgeMods" : [
                      {
                        "group" : "DrawPercentageFade",
                        "duration" : 705600000,
                        "parameters" : [
                          {
                            "name" : "DrawTime",
                              "func" : "FadeInFunc"
                            }
                        ]
                      }
                    ],
                    "effects" : [

                    ],
                    "start" : 96972960000,
                    "duration" : 4304160000,
                    "mediaStart" : -823200000,
                    "mediaDuration" : 4304160000,
                    "scalar" : 1,
                    "metadata" : {
                      "audiateLinkedSession" : "",
                      "clipSpeedAttribute" : false,
                      "default-anchor0" : 0.0,
                      "default-anchor1" : 0.0,
                      "default-anchor2" : 0.0,
                      "default-height" : 167.0,
                      "default-rotation0" : 0.0,
                      "default-rotation1" : 0.0,
                      "default-rotation2" : 0.0,
                      "default-scale0" : 1.68214285714286,
                      "default-scale1" : 0.498507462686567,
                      "default-scale2" : 1.0,
                      "default-shear0" : 0.0,
                      "default-shear1" : 0.0,
                      "default-shear2" : 0.0,
                      "default-translation0" : -285.0,
                      "default-translation1" : 404.0,
                      "default-translation2" : 0.0,
                      "default-width" : 942.000000000002
                    },
                    "animationTracks" : {

                    }
                  }
                ],
                "transitions" : [
                  {
                    "name" : "Fade",
                    "duration" : 705600000,
                    "rightMedia" : 104,
                    "attributes" : {
                      "bypass" : false,
                      "reverse" : false,
                      "trivial" : false,
                      "useAudioPreRoll" : true,
                      "useVisualPreRoll" : true
                    }

                  },
                  {
                    "name" : "Fade",
                    "duration" : 705600000,
                    "leftMedia" : 104,
                    "attributes" : {
                      "bypass" : false,
                      "reverse" : false,
                      "trivial" : false,
                      "useAudioPreRoll" : true,
                      "useVisualPreRoll" : true
                    }

                  },
                  {
                    "name" : "Fade",
                    "duration" : 705600000,
                    "rightMedia" : 105,
                    "attributes" : {
                      "bypass" : false,
                      "reverse" : false,
                      "trivial" : false,
                      "useAudioPreRoll" : true,
                      "useVisualPreRoll" : true
                    }

                  },
                  {
                    "name" : "Fade",
                    "duration" : 705600000,
                    "leftMedia" : 105,
                    "attributes" : {
                      "bypass" : false,
                      "reverse" : false,
                      "trivial" : false,
                      "useAudioPreRoll" : true,
                      "useVisualPreRoll" : true
                    }

                  },
                  {
                    "name" : "Fade",
                    "duration" : 705600000,
                    "rightMedia" : 106,
                    "attributes" : {
                      "bypass" : false,
                      "reverse" : false,
                      "trivial" : false,
                      "useAudioPreRoll" : true,
                      "useVisualPreRoll" : true
                    }

                  },
                  {
                    "name" : "Fade",
                    "duration" : 705600000,
                    "leftMedia" : 106,
                    "attributes" : {
                      "bypass" : false,
                      "reverse" : false,
                      "trivial" : false,
                      "useAudioPreRoll" : true,
                      "useVisualPreRoll" : true
                    }

                  },
                  {
                    "name" : "Fade",
                    "duration" : 705600000,
                    "rightMedia" : 107,
                    "attributes" : {
                      "bypass" : false,
                      "reverse" : false,
                      "trivial" : false,
                      "useAudioPreRoll" : true,
                      "useVisualPreRoll" : true
                    }

                  },
                  {
                    "name" : "Fade",
                    "duration" : 705600000,
                    "leftMedia" : 107,
                    "attributes" : {
                      "bypass" : false,
                      "reverse" : false,
                      "trivial" : false,
                      "useAudioPreRoll" : true,
                      "useVisualPreRoll" : true
                    }

                  },
                  {
                    "name" : "Fade",
                    "duration" : 705600000,
                    "rightMedia" : 108,
                    "attributes" : {
                      "bypass" : false,
                      "reverse" : false,
                      "trivial" : false,
                      "useAudioPreRoll" : true,
                      "useVisualPreRoll" : true
                    }

                  },
                  {
                    "name" : "Fade",
                    "duration" : 705600000,
                    "leftMedia" : 108,
                    "attributes" : {
                      "bypass" : false,
                      "reverse" : false,
                      "trivial" : false,
                      "useAudioPreRoll" : true,
                      "useVisualPreRoll" : true
                    }

                  },
                  {
                    "name" : "Fade",
                    "duration" : 705600000,
                    "rightMedia" : 109,
                    "attributes" : {
                      "bypass" : false,
                      "reverse" : false,
                      "trivial" : false,
                      "useAudioPreRoll" : true,
                      "useVisualPreRoll" : true
                    }

                  },
                  {
                    "name" : "Fade",
                    "duration" : 705600000,
                    "leftMedia" : 109,
                    "attributes" : {
                      "bypass" : false,
                      "reverse" : false,
                      "trivial" : false,
                      "useAudioPreRoll" : true,
                      "useVisualPreRoll" : true
                    }

                  },
                  {
                    "name" : "Fade",
                    "duration" : 705600000,
                    "rightMedia" : 110,
                    "attributes" : {
                      "bypass" : false,
                      "reverse" : false,
                      "trivial" : false,
                      "useAudioPreRoll" : true,
                      "useVisualPreRoll" : true
                    }

                  },
                  {
                    "name" : "Fade",
                    "duration" : 705600000,
                    "leftMedia" : 110,
                    "attributes" : {
                      "bypass" : false,
                      "reverse" : false,
                      "trivial" : false,
                      "useAudioPreRoll" : true,
                      "useVisualPreRoll" : true
                    }

                  },
                  {
                    "name" : "Fade",
                    "duration" : 705600000,
                    "rightMedia" : 111,
                    "attributes" : {
                      "bypass" : false,
                      "reverse" : false,
                      "trivial" : false,
                      "useAudioPreRoll" : true,
                      "useVisualPreRoll" : true
                    }

                  },
                  {
                    "name" : "Fade",
                    "duration" : 705600000,
                    "leftMedia" : 111,
                    "attributes" : {
                      "bypass" : false,
                      "reverse" : false,
                      "trivial" : false,
                      "useAudioPreRoll" : true,
                      "useVisualPreRoll" : true
                    }

                  },
                  {
                    "name" : "Fade",
                    "duration" : 705600000,
                    "rightMedia" : 112,
                    "attributes" : {
                      "bypass" : false,
                      "reverse" : false,
                      "trivial" : false,
                      "useAudioPreRoll" : true,
                      "useVisualPreRoll" : true
                    }

                  },
                  {
                    "name" : "Fade",
                    "duration" : 705600000,
                    "leftMedia" : 112,
                    "attributes" : {
                      "bypass" : false,
                      "reverse" : false,
                      "trivial" : false,
                      "useAudioPreRoll" : true,
                      "useVisualPreRoll" : true
                    }

                  },
                  {
                    "name" : "Fade",
                    "duration" : 705600000,
                    "rightMedia" : 113,
                    "attributes" : {
                      "bypass" : false,
                      "reverse" : false,
                      "trivial" : false,
                      "useAudioPreRoll" : true,
                      "useVisualPreRoll" : true
                    }

                  },
                  {
                    "name" : "Fade",
                    "duration" : 705600000,
                    "leftMedia" : 113,
                    "attributes" : {
                      "bypass" : false,
                      "reverse" : false,
                      "trivial" : false,
                      "useAudioPreRoll" : true,
                      "useVisualPreRoll" : true
                    }

                  },
                  {
                    "name" : "Fade",
                    "duration" : 705600000,
                    "rightMedia" : 114,
                    "attributes" : {
                      "bypass" : false,
                      "reverse" : false,
                      "trivial" : false,
                      "useAudioPreRoll" : true,
                      "useVisualPreRoll" : true
                    }

                  },
                  {
                    "name" : "Fade",
                    "duration" : 705600000,
                    "leftMedia" : 114,
                    "attributes" : {
                      "bypass" : false,
                      "reverse" : false,
                      "trivial" : false,
                      "useAudioPreRoll" : true,
                      "useVisualPreRoll" : true
                    }

                  },
                  {
                    "name" : "Fade",
                    "duration" : 705600000,
                    "rightMedia" : 115,
                    "attributes" : {
                      "bypass" : false,
                      "reverse" : false,
                      "trivial" : false,
                      "useAudioPreRoll" : true,
                      "useVisualPreRoll" : true
                    }

                  },
                  {
                    "name" : "Fade",
                    "duration" : 705600000,
                    "leftMedia" : 115,
                    "attributes" : {
                      "bypass" : false,
                      "reverse" : false,
                      "trivial" : false,
                      "useAudioPreRoll" : true,
                      "useVisualPreRoll" : true
                    }

                  }
                ]
              }            ]
          }
        }
      ]
    },
    "trackAttributes" : [
      {
        "ident" : "",
        "audioMuted" : false,
        "videoHidden" : false,
        "magnetic" : false,
        "matte" : 0,
        "solo" : false,
        "metadata" : {
          "IsLocked" : "True",
          "WinTrackHeight" : "56"
        }
      },
      {
        "ident" : "",
        "audioMuted" : false,
        "videoHidden" : false,
        "magnetic" : false,
        "matte" : 0,
        "solo" : false,
        "metadata" : {
          "IsLocked" : "False",
          "WinTrackHeight" : "56"
        }
      },
      {
        "ident" : "",
        "audioMuted" : false,
        "videoHidden" : false,
        "magnetic" : false,
        "matte" : 0,
        "solo" : false,
        "metadata" : {
          "IsLocked" : "False",
          "WinTrackHeight" : "56"
        }
      },
      {
        "ident" : "",
        "audioMuted" : false,
        "videoHidden" : false,
        "magnetic" : false,
        "matte" : 0,
        "solo" : false,
        "metadata" : {
          "IsLocked" : "False",
          "WinTrackHeight" : "56"
        }
      }
    ],
    "captionAttributes" : {
      "enabled" : true,
      "fontName" : "Arial",
      "fontSize" : 32,
      "backgroundColor" : [ 0, 0, 0, 191],
      "foregroundColor" : [ 255, 255, 255, 255],
      "lang" : "en",
      "alignment" : 0,
      "defaultFontSize" : true,
      "opacity" : 0.5,
      "backgroundEnabled" : true,
      "backgroundOnlyAroundText" : true
    },
    "gain" : 1.0,
    "legacyAttenuateAudioMix" : false,
    "backgroundColor" : [ 0, 0, 0, 255]
  },
  "metadata" : {
    "AutoSaveFile" : "C:\\Users\\14044\\AppData\\Local\\TechSmith\\Camtasia Studio\\23.0\\Auto-Saves\\CreatingCourse1adf635a.autosave.tscproj",
    "CanvasZoom" : 50,
    "Date" : "2025-05-10 09:02:31 PM",
    "Fit" : 0,
    "IsAutoSave" : false,
    "IsStandalone" : false,
    "ProfileName" : "",
    "ProjectThumbnail" : "iVBORw0KGgoAAAANSUhEUgAAAlkAAAFoCAYAAABkNu7SAAAAAXNSR0IArs4c6QAAAARnQU1BAACx\r\njwv8YQUAAAAJcEhZcwAAFiUAABYlAUlSJPAAAAYYSURBVHhe7cixEYAwAMSw7L90YABXPKV8p8bn\r\n7QIA8LucAABscgIAsMkJAMAmJwAAm5wAAGxyAgCwyQkAwCYnAACbnAAAbHICALDJCQDAJicAAJuc\r\nAABscgIAsMkJAMAmJwAAm5wAAGxyAgCwyQkAwCYnAACbnAAAbHICALDJCQDAJicAAJucAABscgIA\r\nsMkJAMAmJwAAm5wAAGxyAgCwyQkAwCYnAACbnAAAbHICALDJCQDAJicAAJucAABscgIAsMkJAMAm\r\nJwAAm5wAAGxyAgCwyQkAwCYnAACbnAAAbHICALDJCQDAJicAAJucAABscgIAsMkJAMAmJwAAm5wA\r\nAGxyAgCwyQkAwCYnAACbnAAAbHICALDJCQDAJicAAJucAABscgIAsMkJAMAmJwAAm5wAAGxyAgCw\r\nyQkAwCYnAACbnAAAbHICALDJCQDAJicAAJucAABscgIAsMkJAMAmJwAAm5wAAGxyAgCwyQkAwCYn\r\nAACbnAAAbHICALDJCQDAJicAAJucAABscgIAsMkJAMAmJwAAm5wAAGxyAgCwyQkAwCYnAACbnAAA\r\nbHICALDJCQDAJicAAJucAABscgIAsMkJAMAmJwAAm5wAAGxyAgCwyQkAwCYnAACbnAAAbHICALDJ\r\nCQDAJicAAJucAABscgIAsMkJAMAmJwAAm5wAAGxyAgCwyQkAwCYnAACbnAAAbHICALDJCQDAJicA\r\nAJucAABscgIAsMkJAMAmJwAAm5wAAGxyAgCwyQkAwCYnAACbnAAAbHICALDJCQDAJicAAJucAABs\r\ncgIAsMkJAMAmJwAAm5wAAGxyAgCwyQkAwCYnAACbnAAAbHICALDJCQDAJicAAJucAABscgIAsMkJ\r\nAMAmJwAAm5wAAGxyAgCwyQkAwCYnAACbnAAAbHICALDJCQDAJicAAJucAABscgIAsMkJAMAmJwAA\r\nm5wAAGxyAgCwyQkAwCYnAACbnAAAbHICALDJCQDAJicAAJucAABscgIAsMkJAMAmJwAAm5wAAGxy\r\nAgCwyQkAwCYnAACbnAAAbHICALDJCQDAJicAAJucAABscgIAsMkJAMAmJwAAm5wAAGxyAgCwyQkA\r\nwCYnAACbnAAAbHICALDJCQDAJicAAJucAABscgIAsMkJAMAmJwAAm5wAAGxyAgCwyQkAwCYnAACb\r\nnAAAbHICALDJCQDAJicAAJucAABscgIAsMkJAMAmJwAAm5wAAGxyAgCwyQkAwCYnAACbnAAAbHIC\r\nALDJCQDAJicAAJucAABscgIAsMkJAMAmJwAAm5wAAGxyAgCwyQkAwCYnAACbnAAAbHICALDJCQDA\r\nJicAAJucAABscgIAsMkJAMAmJwAAm5wAAGxyAgCwyQkAwCYnAACbnAAAbHICALDJCQDAJicAAJuc\r\nAABscgIAsMkJAMAmJwAAm5wAAGxyAgCwyQkAwCYnAACbnAAAbHICALDJCQDAJicAAJucAABscgIA\r\nsMkJAMAmJwAAm5wAAGxyAgCwyQkAwCYnAACbnAAAbHICALDJCQDAJicAAJucAABscgIAsMkJAMAm\r\nJwAAm5wAAGxyAgCwyQkAwCYnAACbnAAAbHICALDJCQDAJicAAJucAABscgIAsMkJAMAmJwAAm5wA\r\nAGxyAgCwyQkAwCYnAACbnAAAbHICALDJCQDAJicAAJucAABscgIAsMkJAMAmJwAAm5wAAGxyAgCw\r\nyQkAwCYnAACbnAAAbHICALDJCQDAJicAAJucAABscgIAsMkJAMAmJwAAm5wAAGxyAgCwyQkAwCYn\r\nAACbnAAAbHICALDJCQDAJicAAJucAABscgIAsMkJAMAmJwAAm5wAAGxyAgCwyQkAwCYnAACbnAAA\r\nbHICALDJCQDAJicAAJucAABscgIAsMkJAMAmJwAAm5wAAGxyAgCwyQkAwCYnAACbnAAAbHICALDJ\r\nCQDAJicAAJucAABscgIAsMkJAMAmJwAAm5wAAGxyAgCwyQkAwCYnAACbnAAAbHICALDJCQDAJicA\r\nAJucAABscgIAsMkJAMAmJwAAm5wAAGxyAgCwyQkAwCYnAACbnAAAbHICALDJCQDAZ+c+5kYML2OU\r\nxjcAAAAASUVORK5CYII=",
    "RulerGuidesX" : [],
    "RulerGuidesY" : [],
    "RulerShowing" : false,
    "Title" : "CreatingCourse",
    "audioNarrationNotes" : "",
    "calloutStyle" : "Basic"
  }
}
