{
  "title" : "",
  "description" : "",
  "author" : "",
  "targetLoudness" : -18.0,
  "shouldApplyLoudnessNormalization" : true,
  "videoFormatFrameRate" : 30,
  "audioFormatSampleRate" : 44100,
  "allowSubFrameEditing" : false,
  "width" : 2240.0,
  "height" : 1340.0,
  "version" : "7.0",
  "editRate" : 705600000,
  "authoringClientName" :  {
    "name" : "Camtasia",
    "platform" : "Windows",
    "version" : "2023.4.3"
  },
  "sourceBin" : [
    {
      "id" : 1,
      "src" : "C:\\Users\\14044\\OneDrive\\Documents\\Camtasia\\Rec 5-8-2025-4-05-20-PM.trec",
      "rect" : [0, 0, 2240, 1340],
      "lastMod" : "20250508T200519",
      "loudnessNormalization" : true,
      "sourceTracks" : [
        {
          "range" : [0, 1792],
          "type" : 0,
          "editRate" : 30,
          "trackRect" : [0, 0, 2240, 1340],
          "sampleRate" : "73787/2500",
          "bitDepth" : 24,
          "numChannels" : 0,
          "integratedLUFS" : 100.0,
          "peakLevel" : -1.0,
          "metaData" : "Rec 5-8-2025-4-05-20-PM.trec;2b7b6a00-7a1f-11e2-83d0-0017f200be7f;2b7b6aef-7a1f-11e2-83d0-0017f200be7f;2b7b6af0-7a1f-11e2-83d0-0017f200be7f;2b7b6af1-7a1f-11e2-83d0-0017f200be7f;2b7b6af2-7a1f-11e2-83d0-0017f200be7f;2b7b6af3-7a1f-11e2-83d0-0017f200be7f;2b7b6af5-7a1f-11e2-83d0-0017f200be7f;2b7b6af6-7a1f-11e2-83d0-0017f200be7f;2b7b6af7-7a1f-11e2-83d0-0017f200be7f;2b7b6af8-7a1f-11e2-83d0-0017f200be7f;2b7b6af9-7a1f-11e2-83d0-0017f200be7f;2b7b6afa-7a1f-11e2-83d0-0017f200be7f;"
        },
        {
          "range" : [0, 2634752],
          "type" : 2,
          "editRate" : 44100,
          "trackRect" : [0, 0, 0, 0],
          "sampleRate" : 44100,
          "bitDepth" : 16,
          "numChannels" : 2,
          "integratedLUFS" : -1.79769313486232e+308,
          "peakLevel" : 0.0,
          "metaData" : "Rec 5-8-2025-4-05-20-PM.trec;"
        },
        {
          "range" : [0, 2635776],
          "type" : 2,
          "editRate" : 44100,
          "trackRect" : [0, 0, 0, 0],
          "sampleRate" : 44100,
          "bitDepth" : 16,
          "numChannels" : 2,
          "integratedLUFS" : -1.79769313486232e+308,
          "peakLevel" : 0.0,
          "metaData" : "Rec 5-8-2025-4-05-20-PM.trec;"
        }
      ],
      "metadata" : {
        "timeAdded" : "20250508T200520.479525"
      }
    },
    {
      "id" : 2,
      "src" : "C:\\ProgramData\\TechSmith\\Camtasia Studio 23\\Library 4.0\\Camtasia Libraries\\Camtasia 2023\\Dynamic Backgrounds\\4stopgradient.asset\\4stopgradient.tscshadervid",
      "rect" : [0, 0, 1920, 1080],
      "lastMod" : "20230403T170314",
      "loudnessNormalization" : true,
      "sourceTracks" : [
        {
          "range" : [0, 9223372036854775807],
          "type" : 0,
          "editRate" : 30,
          "trackRect" : [0, 0, 1920, 1080],
          "sampleRate" : 30,
          "bitDepth" : 32,
          "numChannels" : 0,
          "integratedLUFS" : 100.0,
          "peakLevel" : -1.0,
          "metaData" : "4stopgradient.tscshadervid;"
        }
      ],
      "effectDef" : [
        {
          "name" : "Pos0",
          "type" : "Position",
          "defaultValue" : [ 135, 970, 0],
          "scalingType" : 1,
          "unitType" : 0,
          "userInterfaceType" : 5
        },
        {
          "name" : "Pos1",
          "type" : "Position",
          "defaultValue" : [ 480, 730, 0],
          "scalingType" : 1,
          "unitType" : 0,
          "userInterfaceType" : 5
        },
        {
          "name" : "Pos2",
          "type" : "Position",
          "defaultValue" : [ 1440, 270, 0],
          "scalingType" : 1,
          "unitType" : 0,
          "userInterfaceType" : 5
        },
        {
          "name" : "Pos3",
          "type" : "Position",
          "defaultValue" : [ 1785, 135, 0],
          "scalingType" : 1,
          "unitType" : 0,
          "userInterfaceType" : 5
        },
        {
          "name" : "Color0",
          "type" : "Color",
          "defaultValue" : [ 1, 0.870588, 0.223529, 1],
          "scalingType" : 3,
          "unitType" : 0,
          "userInterfaceType" : 6
        },
        {
          "name" : "Color1",
          "type" : "Color",
          "defaultValue" : [ 0.929412, 0.392157, 0.172549, 1],
          "scalingType" : 3,
          "unitType" : 0,
          "userInterfaceType" : 6
        },
        {
          "name" : "Color2",
          "type" : "Color",
          "defaultValue" : [ 0.435294, 0, 1, 1],
          "scalingType" : 3,
          "unitType" : 0,
          "userInterfaceType" : 6
        },
        {
          "name" : "Color3",
          "type" : "Color",
          "defaultValue" : [ 0.0980392, 0.168627, 0.392157, 1],
          "scalingType" : 3,
          "unitType" : 0,
          "userInterfaceType" : 6
        },
        {
          "name" : "sourceFileType",
          "type" : "string",
          "defaultValue" : "tscshadervid",
          "maxValue" : "",
          "minValue" : "",
          "scalingType" : 0,
          "unitType" : 0,
          "userInterfaceType" : 0
        }    ]
,
      "metadata" : {
        "timeAdded" : "20250508T200522.133337"
      }
    },
    {
      "id" : 3,
      "src" : "C:\\Users\\14044\\Downloads\\ElevenLabs_2025-05-10T00_22_57_Cassidy_pvc_sp94_s100_sb75_se0_b_m2.mp3",
      "rect" : [0, 0, 0, 0],
      "lastMod" : "20250510T002311",
      "loudnessNormalization" : true,
      "sourceTracks" : [
        {
          "range" : [0, 656195625],
          "type" : 2,
          "editRate" : 10000000,
          "trackRect" : [0, 0, 0, 0],
          "sampleRate" : 44100,
          "bitDepth" : 0,
          "numChannels" : 1,
          "integratedLUFS" : -22.0028138821816,
          "peakLevel" : 0.612474858760834,
          "metaData" : "ElevenLabs_2025-05-10T00_22_57_Cassidy_pvc_sp94_s100_sb75_se0_b_m2.mp3;"
        }
      ],
      "metadata" : {
        "timeAdded" : "20250510T002322.532566"
      }
    }
  ],
  "timeline" : {
    "id" : 4,
    "sceneTrack" : {
      "scenes" : [
        {
          "csml" : {
            "tracks" : [
              {
                "trackIndex" : 0,
                "medias" : [
                ]
              },
              {
                "trackIndex" : 1,
                "medias" : [
                  {
                    "id" : 5,
                    "_type" : "AMFile",
                    "src" : 3,
                    "trackNumber" : 0,
                    "attributes" : {
                      "ident" : "ElevenLabs_2025-05-10T00_22_57_Cassidy_pvc_sp94_s100_sb75_se0_b_m2",
                      "gain" : 1.0,
                      "mixToMono" : false,
                      "loudnessNormalization" : true,
                      "sourceFileOffset" : 0
                    },
                      "channelNumber" : "0",
                    "effects" : [

                    ],
                    "start" : 0,
                    "duration" : 15382080000,
                    "mediaStart" : 0,
                    "mediaDuration" : 15382080000,
                    "scalar" : 1,
                    "metadata" : {
                      "audiateLinkedSession" : "",
                      "clipSpeedAttribute" : false
                    },
                    "animationTracks" : {

                    }
                  },
                  {
                    "id" : 6,
                    "_type" : "AMFile",
                    "src" : 3,
                    "trackNumber" : 0,
                    "attributes" : {
                      "ident" : "ElevenLabs_2025-05-10T00_22_57_Cassidy_pvc_sp94_s100_sb75_se0_b_m2",
                      "gain" : 1.0,
                      "mixToMono" : false,
                      "loudnessNormalization" : true,
                      "sourceFileOffset" : 0
                    },
                      "channelNumber" : "0",
                    "effects" : [

                    ],
                    "start" : 17122560000,
                    "duration" : 22344000000,
                    "mediaStart" : 15382080000,
                    "mediaDuration" : 22344000000,
                    "scalar" : 1,
                    "metadata" : {
                      "audiateLinkedSession" : "",
                      "clipSpeedAttribute" : false
                    },
                    "animationTracks" : {

                    }
                  },
                  {
                    "id" : 7,
                    "_type" : "AMFile",
                    "src" : 3,
                    "trackNumber" : 0,
                    "attributes" : {
                      "ident" : "ElevenLabs_2025-05-10T00_22_57_Cassidy_pvc_sp94_s100_sb75_se0_b_m2",
                      "gain" : 1.0,
                      "mixToMono" : false,
                      "loudnessNormalization" : true,
                      "sourceFileOffset" : 0
                    },
                      "channelNumber" : "0",
                    "effects" : [

                    ],
                    "start" : 39466560000,
                    "duration" : 6820800000,
                    "mediaStart" : 39466560000,
                    "mediaDuration" : 6820800000,
                    "scalar" : 1,
                    "metadata" : {
                      "audiateLinkedSession" : "",
                      "clipSpeedAttribute" : false
                    },
                    "animationTracks" : {

                    }
                  }
                ]
              },
              {
                "trackIndex" : 2,
                "medias" : [
                  {
                    "id" : 8,
                    "_type" : "StitchedMedia",
                    "minMediaStart" : 0,
                    "attributes" : {
                      "ident" : "Rec 5-8-2025-4-05-20-PM",
                      "gain" : 1.0,
                      "mixToMono" : false,
                      "loudnessNormalization" : true,
                      "sourceFileOffset" : 0
                    },
                    "parameters" : {
                      "translation0" : {
                        "type" : "double",
                        "defaultValue" : 0.0,
                        "keyframes" : [
                          {
                            "endTime" : 14841120000,
                            "time" : 13124160000,
                            "value" : -9.84595992576942e-05,
                            "duration" : 1716960000
                          },
                          {
                            "endTime" : 24484320000,
                            "time" : 22767360000,
                            "value" : 524.076755311606,
                            "duration" : 1716960000
                          },
                          {
                            "endTime" : 30129120000,
                            "time" : "4860854880000/167",
                            "value" : -9.84595992576942e-05,
                            "duration" : "170708160000/167"
                          }
                        ]
                      },
                      "translation1" : {
                        "type" : "double",
                        "defaultValue" : 0.0,
                        "keyframes" : [
                          {
                            "endTime" : 14841120000,
                            "time" : 13124160000,
                            "value" : -61.3002127462282,
                            "duration" : 1716960000
                          },
                          {
                            "endTime" : 24484320000,
                            "time" : 22767360000,
                            "value" : 228.328084016326,
                            "duration" : 1716960000
                          },
                          {
                            "endTime" : 30129120000,
                            "time" : "4860854880000/167",
                            "value" : -61.3002127462282,
                            "duration" : "170708160000/167"
                          }
                        ]
                      },
                      "scale0" : {
                        "type" : "double",
                        "defaultValue" : 0.96,
                        "keyframes" : [
                          {
                            "endTime" : 14841120000,
                            "time" : 13124160000,
                            "value" : 1.04783304014661,
                            "duration" : 1716960000
                          },
                          {
                            "endTime" : 24484320000,
                            "time" : 22767360000,
                            "value" : 1.5312604311785,
                            "duration" : 1716960000
                          },
                          {
                            "endTime" : 30129120000,
                            "time" : "4860854880000/167",
                            "value" : 1.04783304014661,
                            "duration" : "170708160000/167"
                          }
                        ]
                      },
                      "scale1" : {
                        "type" : "double",
                        "defaultValue" : 0.96,
                        "keyframes" : [
                          {
                            "endTime" : 14841120000,
                            "time" : 13124160000,
                            "value" : 1.04783311713857,
                            "duration" : 1716960000
                          },
                          {
                            "endTime" : 24484320000,
                            "time" : 22767360000,
                            "value" : 1.53126042086905,
                            "duration" : 1716960000
                          },
                          {
                            "endTime" : 30129120000,
                            "time" : "4860854880000/167",
                            "value" : 1.04783311713857,
                            "duration" : "170708160000/167"
                          }
                        ]
                      },
                      "geometryCrop0" : 0.0,
                      "geometryCrop1" : 18.75,
                      "geometryCrop2" : 0.0,
                      "geometryCrop3" : 18.75,
                      "volume" : {
                        "type" : "double",
                        "keyframes" : [
                          {
                            "endTime" : 0,
                            "time" : 0,
                            "value" : 1.0,
                            "duration" : 0
                          },
                          {
                            "endTime" : 36832320000,
                            "time" : 36832320000,
                            "value" : 1.0,
                            "duration" : 0
                          }
                        ]
                      },
                      "cursorOpacity" : 1.0,
                      "cursorScale" : 2.25,
                      "smoothCursorAcrossEditDuration" : 0
                    },
                    "medias" : [
                        {
                          "id" : 9,
                          "_type" : "UnifiedMedia",
                          "video" : 
                              {
                                "id" : 10,
                                "_type" : "ScreenVMFile",
                                "src" : 1,
                                "trackNumber" : 0,
                                "attributes" : {
                                  "ident" : "Rec 5-8-2025-4-05-20-PM"
                                },
                                "parameters" : {
                                  "geometryCrop0" : {
                                    "type" : "double",
                                    "defaultValue" : 0.0,
                                    "interp" : "eioe"
                                  },
                                  "geometryCrop1" : {
                                    "type" : "double",
                                    "defaultValue" : 0.0,
                                    "interp" : "eioe"
                                  },
                                  "geometryCrop2" : {
                                    "type" : "double",
                                    "defaultValue" : 0.0,
                                    "interp" : "eioe"
                                  },
                                  "geometryCrop3" : {
                                    "type" : "double",
                                    "defaultValue" : 0.0,
                                    "interp" : "eioe"
                                  },
                                  "cursorScale" : {
                                    "type" : "double",
                                    "defaultValue" : 0.0,
                                    "interp" : "linr"
                                  },
                                  "cursorOpacity" : {
                                    "type" : "double",
                                    "defaultValue" : 0.0,
                                    "interp" : "linr"
                                  },
                                  "smoothCursorAcrossEditDuration" : 0
                                },
                                "effects" : [

                                ],
                                "start" : 0,
                                "duration" : 14747040000,
                                "mediaStart" : 0,
                                "mediaDuration" : 14747040000,
                                "scalar" : 1,
                                "animationTracks" : {

                                }
                              },
                          "audio" : 
                              {
                                "id" : 11,
                                "_type" : "AMFile",
                                "src" : 1,
                                "trackNumber" : 2,
                                "attributes" : {
                                  "ident" : "",
                                  "gain" : 1.0,
                                  "mixToMono" : false,
                                  "loudnessNormalization" : true,
                                  "sourceFileOffset" : 0
                                },
                                  "channelNumber" : "0,1",
                                "effects" : [

                                ],
                                "start" : 0,
                                "duration" : 14747040000,
                                "mediaStart" : 0,
                                "mediaDuration" : 14747040000,
                                "scalar" : 1,
                                "animationTracks" : {

                                }
                              }
,
                          "start" : 0,
                          "duration" : 14747040000,
                          "mediaStart" : 0,
                          "mediaDuration" : 14747040000,
                          "scalar" : 1,
                          "metadata" : {
                            "AutoAppliedSmartFocus" : "False",
                            "audiateLinkedSession" : "",
                            "clipSpeedAttribute" : false
                          }
                        },
                        {
                          "id" : 12,
                          "_type" : "ScreenIMFile",
                          "src" : 1,
                          "trackNumber" : 0,
                          "trimStartSum" : 0,
                          "attributes" : {
                            "ident" : "Rec 5-8-2025-4-05-20-PM",
                            "isPathEdited" : false
                          },
                          "parameters" : {
                            "geometryCrop0" : {
                              "type" : "double",
                              "defaultValue" : 0.0,
                              "interp" : "eioe"
                            },
                            "geometryCrop1" : {
                              "type" : "double",
                              "defaultValue" : 0.0,
                              "interp" : "eioe"
                            },
                            "geometryCrop2" : {
                              "type" : "double",
                              "defaultValue" : 0.0,
                              "interp" : "eioe"
                            },
                            "geometryCrop3" : {
                              "type" : "double",
                              "defaultValue" : 0.0,
                              "interp" : "eioe"
                            },
                            "cursorOpacity" : {
                              "type" : "double",
                              "defaultValue" : 0.0,
                              "interp" : "linr"
                            },
                            "cursorScale" : {
                              "type" : "double",
                              "defaultValue" : 0.0,
                              "interp" : "linr"
                            },
                            "cursorImagePath" : "2b7b6af1-7a1f-11e2-83d0-0017f200be7f/0",
                            "smoothCursorAcrossEditDuration" : 0,
                            "cursorLocation" : {
                              "type" : "point",
                              "keyframes" : [
                                {
                                  "endTime" : 0,
                                  "time" : 0,
                                  "value" : [ 307, 244, 0],
                                  "duration" : 0
                                }
                              ]
                            }
                          },
                          "effects" : [

                          ],
                          "start" : 14747040000,
                          "duration" : 3857280000,
                          "mediaStart" : 14723520000,
                          "mediaDuration" : 1,
                          "scalar" : 1,
                          "metadata" : {
                            "AutoAppliedSmartFocus" : "False",
                            "audiateLinkedSession" : ""
                          },
                          "animationTracks" : {

                          }
                        },
                        {
                          "id" : 13,
                          "_type" : "UnifiedMedia",
                          "video" : 
                              {
                                "id" : 14,
                                "_type" : "ScreenVMFile",
                                "src" : 1,
                                "trackNumber" : 0,
                                "attributes" : {
                                  "ident" : "Rec 5-8-2025-4-05-20-PM"
                                },
                                "parameters" : {
                                  "geometryCrop0" : {
                                    "type" : "double",
                                    "defaultValue" : 0.0,
                                    "interp" : "eioe"
                                  },
                                  "geometryCrop1" : {
                                    "type" : "double",
                                    "defaultValue" : 0.0,
                                    "interp" : "eioe"
                                  },
                                  "geometryCrop2" : {
                                    "type" : "double",
                                    "defaultValue" : 0.0,
                                    "interp" : "eioe"
                                  },
                                  "geometryCrop3" : {
                                    "type" : "double",
                                    "defaultValue" : 0.0,
                                    "interp" : "eioe"
                                  },
                                  "cursorScale" : {
                                    "type" : "double",
                                    "defaultValue" : 0.0,
                                    "interp" : "linr"
                                  },
                                  "cursorOpacity" : {
                                    "type" : "double",
                                    "defaultValue" : 0.0,
                                    "interp" : "linr"
                                  },
                                  "smoothCursorAcrossEditDuration" : 0
                                },
                                "effects" : [

                                ],
                                "start" : 18604320000,
                                "duration" : 8114400000,
                                "mediaStart" : 14747040000,
                                "mediaDuration" : 8114400000,
                                "scalar" : 1,
                                "animationTracks" : {

                                }
                              },
                          "audio" : 
                              {
                                "id" : 15,
                                "_type" : "AMFile",
                                "src" : 1,
                                "trackNumber" : 2,
                                "attributes" : {
                                  "ident" : "",
                                  "gain" : 1.0,
                                  "mixToMono" : false,
                                  "loudnessNormalization" : true,
                                  "sourceFileOffset" : 0
                                },
                                  "channelNumber" : "0,1",
                                "effects" : [

                                ],
                                "start" : 18604320000,
                                "duration" : 8114400000,
                                "mediaStart" : 14747040000,
                                "mediaDuration" : 8114400000,
                                "scalar" : 1,
                                "animationTracks" : {

                                }
                              }
,
                          "start" : 18604320000,
                          "duration" : 8114400000,
                          "mediaStart" : 14747040000,
                          "mediaDuration" : 8114400000,
                          "scalar" : 1,
                          "metadata" : {
                            "AutoAppliedSmartFocus" : "False",
                            "audiateLinkedSession" : "",
                            "clipSpeedAttribute" : false
                          }
                        },
                        {
                          "id" : 16,
                          "_type" : "UnifiedMedia",
                          "video" : 
                              {
                                "id" : 17,
                                "_type" : "ScreenVMFile",
                                "src" : 1,
                                "trackNumber" : 0,
                                "attributes" : {
                                  "ident" : "Rec 5-8-2025-4-05-20-PM"
                                },
                                "parameters" : {
                                  "geometryCrop0" : {
                                    "type" : "double",
                                    "defaultValue" : 0.0,
                                    "interp" : "eioe"
                                  },
                                  "geometryCrop1" : {
                                    "type" : "double",
                                    "defaultValue" : 0.0,
                                    "interp" : "eioe"
                                  },
                                  "geometryCrop2" : {
                                    "type" : "double",
                                    "defaultValue" : 0.0,
                                    "interp" : "eioe"
                                  },
                                  "geometryCrop3" : {
                                    "type" : "double",
                                    "defaultValue" : 0.0,
                                    "interp" : "eioe"
                                  },
                                  "cursorScale" : {
                                    "type" : "double",
                                    "defaultValue" : 0.0,
                                    "interp" : "linr"
                                  },
                                  "cursorOpacity" : {
                                    "type" : "double",
                                    "defaultValue" : 0.0,
                                    "interp" : "linr"
                                  },
                                  "smoothCursorAcrossEditDuration" : 0
                                },
                                "effects" : [

                                ],
                                "start" : 26718720000,
                                "duration" : 10043040000,
                                "mediaStart" : 27048000000,
                                "mediaDuration" : 10043040000,
                                "scalar" : 1,
                                "animationTracks" : {

                                }
                              },
                          "audio" : 
                              {
                                "id" : 18,
                                "_type" : "AMFile",
                                "src" : 1,
                                "trackNumber" : 2,
                                "attributes" : {
                                  "ident" : "",
                                  "gain" : 1.0,
                                  "mixToMono" : false,
                                  "loudnessNormalization" : true,
                                  "sourceFileOffset" : 0
                                },
                                  "channelNumber" : "0,1",
                                "effects" : [

                                ],
                                "start" : 26718720000,
                                "duration" : 10043040000,
                                "mediaStart" : 27048000000,
                                "mediaDuration" : 10043040000,
                                "scalar" : 1,
                                "animationTracks" : {

                                }
                              }
,
                          "start" : 26718720000,
                          "duration" : 10043040000,
                          "mediaStart" : 27048000000,
                          "mediaDuration" : 10043040000,
                          "scalar" : 1,
                          "metadata" : {
                            "AutoAppliedSmartFocus" : "False",
                            "audiateLinkedSession" : "",
                            "clipSpeedAttribute" : false
                          }
                        },
                        {
                          "id" : 19,
                          "_type" : "ScreenIMFile",
                          "src" : 1,
                          "trackNumber" : 0,
                          "trimStartSum" : -70560000,
                          "attributes" : {
                            "ident" : "Rec 5-8-2025-4-05-20-PM",
                            "isPathEdited" : false
                          },
                          "parameters" : {
                            "geometryCrop0" : {
                              "type" : "double",
                              "defaultValue" : 0.0,
                              "interp" : "eioe"
                            },
                            "geometryCrop1" : {
                              "type" : "double",
                              "defaultValue" : 0.0,
                              "interp" : "eioe"
                            },
                            "geometryCrop2" : {
                              "type" : "double",
                              "defaultValue" : 0.0,
                              "interp" : "eioe"
                            },
                            "geometryCrop3" : {
                              "type" : "double",
                              "defaultValue" : 0.0,
                              "interp" : "eioe"
                            },
                            "cursorOpacity" : {
                              "type" : "double",
                              "defaultValue" : 0.0,
                              "interp" : "linr"
                            },
                            "cursorScale" : {
                              "type" : "double",
                              "defaultValue" : 0.0,
                              "interp" : "linr"
                            },
                            "cursorImagePath" : "2b7b6af1-7a1f-11e2-83d0-0017f200be7f/0",
                            "smoothCursorAcrossEditDuration" : 0,
                            "cursorLocation" : {
                              "type" : "point",
                              "keyframes" : [
                                {
                                  "endTime" : 0,
                                  "time" : 0,
                                  "value" : [ 1356, 376, 0],
                                  "duration" : 0
                                }
                              ]
                            }
                          },
                          "effects" : [

                          ],
                          "start" : 36761760000,
                          "duration" : 7832160000,
                          "mediaStart" : 40524960000,
                          "mediaDuration" : 1,
                          "scalar" : 1,
                          "metadata" : {
                            "AutoAppliedSmartFocus" : "False",
                            "audiateLinkedSession" : "",
                            "clipSpeedAttribute" : false
                          },
                          "animationTracks" : {

                          }
                        },
                        {
                          "id" : 20,
                          "_type" : "UnifiedMedia",
                          "video" : 
                              {
                                "id" : 21,
                                "_type" : "ScreenVMFile",
                                "src" : 1,
                                "trackNumber" : 0,
                                "attributes" : {
                                  "ident" : "Rec 5-8-2025-4-05-20-PM"
                                },
                                "parameters" : {
                                  "geometryCrop0" : {
                                    "type" : "double",
                                    "defaultValue" : 0.0,
                                    "interp" : "eioe"
                                  },
                                  "geometryCrop1" : {
                                    "type" : "double",
                                    "defaultValue" : 0.0,
                                    "interp" : "eioe"
                                  },
                                  "geometryCrop2" : {
                                    "type" : "double",
                                    "defaultValue" : 0.0,
                                    "interp" : "eioe"
                                  },
                                  "geometryCrop3" : {
                                    "type" : "double",
                                    "defaultValue" : 0.0,
                                    "interp" : "eioe"
                                  },
                                  "cursorScale" : {
                                    "type" : "double",
                                    "defaultValue" : 0.0,
                                    "interp" : "linr"
                                  },
                                  "cursorOpacity" : {
                                    "type" : "double",
                                    "defaultValue" : 0.0,
                                    "interp" : "linr"
                                  },
                                  "smoothCursorAcrossEditDuration" : 0
                                },
                                "effects" : [

                                ],
                                "start" : 44593920000,
                                "duration" : 1622880000,
                                "mediaStart" : 40524960000,
                                "mediaDuration" : 1622880000,
                                "scalar" : 1,
                                "animationTracks" : {

                                }
                              },
                          "audio" : 
                              {
                                "id" : 22,
                                "_type" : "AMFile",
                                "src" : 1,
                                "trackNumber" : 2,
                                "attributes" : {
                                  "ident" : "",
                                  "gain" : 1.0,
                                  "mixToMono" : false,
                                  "loudnessNormalization" : true,
                                  "sourceFileOffset" : 0
                                },
                                  "channelNumber" : "0,1",
                                "effects" : [

                                ],
                                "start" : 44593920000,
                                "duration" : 1622880000,
                                "mediaStart" : 40524960000,
                                "mediaDuration" : 1622880000,
                                "scalar" : 1,
                                "animationTracks" : {

                                }
                              }
,
                          "start" : 44593920000,
                          "duration" : 1622880000,
                          "mediaStart" : 40524960000,
                          "mediaDuration" : 1622880000,
                          "scalar" : 1,
                          "metadata" : {
                            "AutoAppliedSmartFocus" : "False",
                            "audiateLinkedSession" : "",
                            "clipSpeedAttribute" : false
                          }
                        }
                    ],
                    "effects" : [
                        {
                          "effectName" : "RoundCorners",
                          "bypassed" : false,
                          "category" : "categoryVisualEffects",
                          "parameters" : {
                            "radius" : {
                              "type" : "double",
                              "defaultValue" : 83.75,
                              "interp" : "linr",
                              "uiHints" : {
                                "userInterfaceType" : 0,
                                "unitType" : 0
                              }
                            },
                            "top-left" : {
                              "type" : "double",
                              "defaultValue" : 1.0,
                              "interp" : "linr",
                              "uiHints" : {
                                "userInterfaceType" : 0,
                                "unitType" : 0
                              }
                            },
                            "top-right" : {
                              "type" : "double",
                              "defaultValue" : 1.0,
                              "interp" : "linr",
                              "uiHints" : {
                                "userInterfaceType" : 0,
                                "unitType" : 0
                              }
                            },
                            "bottom-left" : {
                              "type" : "double",
                              "defaultValue" : 1.0,
                              "interp" : "linr",
                              "uiHints" : {
                                "userInterfaceType" : 0,
                                "unitType" : 0
                              }
                            },
                            "bottom-right" : {
                              "type" : "double",
                              "defaultValue" : 1.0,
                              "interp" : "linr",
                              "uiHints" : {
                                "userInterfaceType" : 0,
                                "unitType" : 0
                              }
                            }
                          },
                          "start" : 36761760000,
                          "metadata" : {
                            "effectIndex" : "0"
                          }
                        }
                    ],
                    "start" : 23331840000,
                    "duration" : 23966880000,
                    "mediaStart" : 13806240000,
                    "mediaDuration" : 23966880000,
                    "scalar" : 1,
                    "metadata" : {
                      "AutoAppliedSmartFocus" : "False",
                      "audiateLinkedSession" : "",
                      "clipSpeedAttribute" : false
                    },
                    "animationTracks" : {
                      "visual" : [
                        {
                          "endTime" : 14841120000,
                          "duration" : 1716960000,
                          "range" : [ 13124160000, 1716960000]
                        },
                        {
                          "endTime" : 24484320000,
                          "duration" : 1716960000,
                          "range" : [ 22767360000, 1716960000]
                        },
                        {
                          "endTime" : 30129120000,
                          "duration" : "170708160000/167",
                          "range" : [ "4860854880000/167", "170708160000/167"]
                        }
                      ]
                    }
                  }
                ],
                "transitions" : [
                  {
                    "name" : "Fade",
                    "duration" : 352800000,
                    "rightMedia" : 8,
                    "attributes" : {
                      "bypass" : false,
                      "reverse" : false,
                      "trivial" : false,
                      "useAudioPreRoll" : true,
                      "useVisualPreRoll" : true
                    }

                  },
                  {
                    "name" : "FadeThroughBlack",
                    "duration" : 1011360000,
                    "leftMedia" : 8,
                    "attributes" : {
                      "Color-blue" : 0.0,
                      "Color-green" : 0.0,
                      "Color-red" : 0.0,
                      "bypass" : false,
                      "reverse" : false,
                      "trivial" : false,
                      "useAudioPreRoll" : true,
                      "useVisualPreRoll" : true
                    }

                  }
                ]
              },
              {
                "trackIndex" : 3,
                "medias" : [
                  {
                    "id" : 23,
                    "_type" : "StitchedMedia",
                    "minMediaStart" : 0,
                    "attributes" : {
                      "ident" : "Rec 5-8-2025-4-05-20-PM",
                      "gain" : 1.0,
                      "mixToMono" : false,
                      "loudnessNormalization" : true,
                      "sourceFileOffset" : 0
                    },
                    "parameters" : {
                      "translation0" : {
                        "type" : "double",
                        "defaultValue" : 0.0,
                        "keyframes" : [
                          {
                            "endTime" : 0,
                            "time" : -705600000,
                            "value" : 9.6144733561232e-05,
                            "duration" : 705600000
                          },
                          {
                            "endTime" : 10090080000,
                            "time" : 9384480000,
                            "value" : -647.908906001594,
                            "duration" : 705600000
                          },
                          {
                            "endTime" : 16416960000,
                            "time" : 15029280000,
                            "value" : 0.0,
                            "duration" : 1387680000
                          },
                          {
                            "endTime" : 18651360000,
                            "time" : 16416960000,
                            "value" : 342.272181128058,
                            "duration" : 2234400000
                          }
                        ]
                      },
                      "translation1" : {
                        "type" : "double",
                        "defaultValue" : 0.0,
                        "keyframes" : [
                          {
                            "endTime" : 0,
                            "time" : -705600000,
                            "value" : -44.1066332542218,
                            "duration" : 705600000
                          },
                          {
                            "endTime" : 10090080000,
                            "time" : 9384480000,
                            "value" : -409.620850901417,
                            "duration" : 705600000
                          },
                          {
                            "endTime" : 16416960000,
                            "time" : 15029280000,
                            "value" : 0.0,
                            "duration" : 1387680000
                          },
                          {
                            "endTime" : 18651360000,
                            "time" : 16416960000,
                            "value" : 87.9264843979061,
                            "duration" : 2234400000
                          }
                        ]
                      },
                      "scale0" : {
                        "type" : "double",
                        "defaultValue" : 0.96,
                        "keyframes" : [
                          {
                            "endTime" : 0,
                            "time" : -705600000,
                            "value" : 1.02319762500778,
                            "duration" : 705600000
                          },
                          {
                            "endTime" : 10090080000,
                            "time" : 9384480000,
                            "value" : 1.54691965931278,
                            "duration" : 705600000
                          },
                          {
                            "endTime" : 16416960000,
                            "time" : 15029280000,
                            "value" : 0.96,
                            "duration" : 1387680000
                          },
                          {
                            "endTime" : 18651360000,
                            "time" : 16416960000,
                            "value" : 1.30560018805827,
                            "duration" : 2234400000
                          }
                        ]
                      },
                      "scale1" : {
                        "type" : "double",
                        "defaultValue" : 0.96,
                        "keyframes" : [
                          {
                            "endTime" : 0,
                            "time" : -705600000,
                            "value" : 1.02319754110582,
                            "duration" : 705600000
                          },
                          {
                            "endTime" : 10090080000,
                            "time" : 9384480000,
                            "value" : 1.5469193598939,
                            "duration" : 705600000
                          },
                          {
                            "endTime" : 16416960000,
                            "time" : 15029280000,
                            "value" : 0.96,
                            "duration" : 1387680000
                          },
                          {
                            "endTime" : 18651360000,
                            "time" : 16416960000,
                            "value" : 1.30560010637687,
                            "duration" : 2234400000
                          }
                        ]
                      },
                      "geometryCrop0" : 0.0,
                      "geometryCrop1" : 18.75,
                      "geometryCrop2" : 0.0,
                      "geometryCrop3" : 18.75,
                      "volume" : 1.0,
                      "cursorOpacity" : 1.0,
                      "cursorScale" : 2.25,
                      "smoothCursorAcrossEditDuration" : 0
                    },
                    "medias" : [
                        {
                          "id" : 24,
                          "_type" : "UnifiedMedia",
                          "video" : 
                              {
                                "id" : 25,
                                "_type" : "ScreenVMFile",
                                "src" : 1,
                                "trackNumber" : 0,
                                "attributes" : {
                                  "ident" : "Rec 5-8-2025-4-05-20-PM"
                                },
                                "parameters" : {
                                  "geometryCrop0" : {
                                    "type" : "double",
                                    "defaultValue" : 0.0,
                                    "interp" : "eioe"
                                  },
                                  "geometryCrop1" : {
                                    "type" : "double",
                                    "defaultValue" : 0.0,
                                    "interp" : "eioe"
                                  },
                                  "geometryCrop2" : {
                                    "type" : "double",
                                    "defaultValue" : 0.0,
                                    "interp" : "eioe"
                                  },
                                  "geometryCrop3" : {
                                    "type" : "double",
                                    "defaultValue" : 0.0,
                                    "interp" : "eioe"
                                  },
                                  "cursorScale" : {
                                    "type" : "double",
                                    "defaultValue" : 0.0,
                                    "interp" : "linr"
                                  },
                                  "cursorOpacity" : {
                                    "type" : "double",
                                    "defaultValue" : 0.0,
                                    "interp" : "linr"
                                  },
                                  "smoothCursorAcrossEditDuration" : 0
                                },
                                "effects" : [

                                ],
                                "start" : 0,
                                "duration" : 1505280000,
                                "mediaStart" : 0,
                                "mediaDuration" : 1505280000,
                                "scalar" : 1,
                                "animationTracks" : {

                                }
                              },
                          "audio" : 
                              {
                                "id" : 26,
                                "_type" : "AMFile",
                                "src" : 1,
                                "trackNumber" : 2,
                                "attributes" : {
                                  "ident" : "",
                                  "gain" : 1.0,
                                  "mixToMono" : false,
                                  "loudnessNormalization" : true,
                                  "sourceFileOffset" : 0
                                },
                                  "channelNumber" : "0,1",
                                "effects" : [

                                ],
                                "start" : 0,
                                "duration" : 1505280000,
                                "mediaStart" : 0,
                                "mediaDuration" : 1505280000,
                                "scalar" : 1,
                                "animationTracks" : {

                                }
                              }
,
                          "start" : 0,
                          "duration" : 1505280000,
                          "mediaStart" : 0,
                          "mediaDuration" : 1505280000,
                          "scalar" : 1,
                          "metadata" : {
                            "AutoAppliedSmartFocus" : "False",
                            "audiateLinkedSession" : "",
                            "clipSpeedAttribute" : false
                          }
                        },
                        {
                          "id" : 27,
                          "_type" : "ScreenIMFile",
                          "src" : 1,
                          "trackNumber" : 0,
                          "trimStartSum" : 0,
                          "attributes" : {
                            "ident" : "Rec 5-8-2025-4-05-20-PM",
                            "isPathEdited" : false
                          },
                          "parameters" : {
                            "geometryCrop0" : {
                              "type" : "double",
                              "defaultValue" : 0.0,
                              "interp" : "eioe"
                            },
                            "geometryCrop1" : {
                              "type" : "double",
                              "defaultValue" : 0.0,
                              "interp" : "eioe"
                            },
                            "geometryCrop2" : {
                              "type" : "double",
                              "defaultValue" : 0.0,
                              "interp" : "eioe"
                            },
                            "geometryCrop3" : {
                              "type" : "double",
                              "defaultValue" : 0.0,
                              "interp" : "eioe"
                            },
                            "cursorOpacity" : {
                              "type" : "double",
                              "defaultValue" : 0.0,
                              "interp" : "linr"
                            },
                            "cursorScale" : {
                              "type" : "double",
                              "defaultValue" : 0.0,
                              "interp" : "linr"
                            },
                            "cursorImagePath" : "2b7b6af1-7a1f-11e2-83d0-0017f200be7f/1",
                            "smoothCursorAcrossEditDuration" : 0,
                            "cursorLocation" : {
                              "type" : "point",
                              "keyframes" : [
                                {
                                  "endTime" : 0,
                                  "time" : 0,
                                  "value" : [ 1640, 228, 0],
                                  "duration" : 0
                                }
                              ]
                            }
                          },
                          "effects" : [

                          ],
                          "start" : 1505280000,
                          "duration" : 13876800000,
                          "mediaStart" : 1481760000,
                          "mediaDuration" : 1,
                          "scalar" : 1,
                          "metadata" : {
                            "AutoAppliedSmartFocus" : "False",
                            "audiateLinkedSession" : ""
                          },
                          "animationTracks" : {

                          }
                        },
                        {
                          "id" : 28,
                          "_type" : "UnifiedMedia",
                          "video" : 
                              {
                                "id" : 29,
                                "_type" : "ScreenVMFile",
                                "src" : 1,
                                "trackNumber" : 0,
                                "attributes" : {
                                  "ident" : "Rec 5-8-2025-4-05-20-PM"
                                },
                                "parameters" : {
                                  "geometryCrop0" : {
                                    "type" : "double",
                                    "defaultValue" : 0.0,
                                    "interp" : "eioe"
                                  },
                                  "geometryCrop1" : {
                                    "type" : "double",
                                    "defaultValue" : 0.0,
                                    "interp" : "eioe"
                                  },
                                  "geometryCrop2" : {
                                    "type" : "double",
                                    "defaultValue" : 0.0,
                                    "interp" : "eioe"
                                  },
                                  "geometryCrop3" : {
                                    "type" : "double",
                                    "defaultValue" : 0.0,
                                    "interp" : "eioe"
                                  },
                                  "cursorScale" : {
                                    "type" : "double",
                                    "defaultValue" : 0.0,
                                    "interp" : "linr"
                                  },
                                  "cursorOpacity" : {
                                    "type" : "double",
                                    "defaultValue" : 0.0,
                                    "interp" : "linr"
                                  },
                                  "smoothCursorAcrossEditDuration" : 0
                                },
                                "effects" : [

                                ],
                                "start" : 15382080000,
                                "duration" : 38972640000,
                                "mediaStart" : 3175200000,
                                "mediaDuration" : 38972640000,
                                "scalar" : 1,
                                "animationTracks" : {

                                }
                              },
                          "audio" : 
                              {
                                "id" : 30,
                                "_type" : "AMFile",
                                "src" : 1,
                                "trackNumber" : 2,
                                "attributes" : {
                                  "ident" : "",
                                  "gain" : 1.0,
                                  "mixToMono" : false,
                                  "loudnessNormalization" : true,
                                  "sourceFileOffset" : 0
                                },
                                  "channelNumber" : "0,1",
                                "effects" : [

                                ],
                                "start" : 15382080000,
                                "duration" : 38972640000,
                                "mediaStart" : 3175200000,
                                "mediaDuration" : 38972640000,
                                "scalar" : 1,
                                "animationTracks" : {

                                }
                              }
,
                          "start" : 15382080000,
                          "duration" : 38972640000,
                          "mediaStart" : 3175200000,
                          "mediaDuration" : 38972640000,
                          "scalar" : 1,
                          "metadata" : {
                            "AutoAppliedSmartFocus" : "False",
                            "audiateLinkedSession" : "",
                            "clipSpeedAttribute" : false,
                            "default-anchor0" : 0.0,
                            "default-anchor1" : 0.0,
                            "default-anchor2" : 0.0,
                            "default-height" : 1250.4,
                            "default-rotation0" : 0.0,
                            "default-rotation1" : 0.0,
                            "default-rotation2" : 0.0,
                            "default-scale0" : 0.96,
                            "default-scale1" : 0.96,
                            "default-scale2" : 1.0,
                            "default-shear0" : 0.0,
                            "default-shear1" : 0.0,
                            "default-shear2" : 0.0,
                            "default-translation0" : 0.0,
                            "default-translation1" : 0.0,
                            "default-translation2" : 0.0,
                            "default-width" : 2150.4
                          }
                        }
                    ],
                    "effects" : [
                        {
                          "effectName" : "RoundCorners",
                          "bypassed" : false,
                          "category" : "categoryVisualEffects",
                          "parameters" : {
                            "radius" : {
                              "type" : "double",
                              "defaultValue" : 83.75,
                              "interp" : "linr",
                              "uiHints" : {
                                "userInterfaceType" : 0,
                                "unitType" : 0
                              }
                            },
                            "top-left" : {
                              "type" : "double",
                              "defaultValue" : 1.0,
                              "interp" : "linr",
                              "uiHints" : {
                                "userInterfaceType" : 0,
                                "unitType" : 0
                              }
                            },
                            "top-right" : {
                              "type" : "double",
                              "defaultValue" : 1.0,
                              "interp" : "linr",
                              "uiHints" : {
                                "userInterfaceType" : 0,
                                "unitType" : 0
                              }
                            },
                            "bottom-left" : {
                              "type" : "double",
                              "defaultValue" : 1.0,
                              "interp" : "linr",
                              "uiHints" : {
                                "userInterfaceType" : 0,
                                "unitType" : 0
                              }
                            },
                            "bottom-right" : {
                              "type" : "double",
                              "defaultValue" : 1.0,
                              "interp" : "linr",
                              "uiHints" : {
                                "userInterfaceType" : 0,
                                "unitType" : 0
                              }
                            }
                          },
                          "metadata" : {
                            "effectIndex" : "0"
                          }
                        }
                    ],
                    "start" : 0,
                    "duration" : 23331840000,
                    "mediaStart" : 0,
                    "mediaDuration" : 23331840000,
                    "scalar" : 1,
                    "metadata" : {
                      "AutoAppliedSmartFocus" : "False",
                      "audiateLinkedSession" : "",
                      "clipSpeedAttribute" : false,
                      "default-height" : 1250.4,
                      "default-rotation0" : 0.0,
                      "default-rotation1" : 0.0,
                      "default-rotation2" : 0.0,
                      "default-scale0" : 0.96,
                      "default-scale1" : 0.96,
                      "default-shear0" : 0.0,
                      "default-translation0" : 0.0,
                      "default-translation1" : 0.0,
                      "default-translation2" : 0.0,
                      "default-width" : 2150.4
                    },
                    "animationTracks" : {
                      "visual" : [
                        {
                          "endTime" : 0,
                          "duration" : 705600000,
                          "range" : [ -705600000, 705600000]
                        },
                        {
                          "endTime" : 10090080000,
                          "duration" : 705600000,
                          "range" : [ 9384480000, 705600000]
                        },
                        {
                          "endTime" : 16416960000,
                          "duration" : 1387680000,
                          "range" : [ 15029280000, 1387680000]
                        },
                        {
                          "endTime" : 18651360000,
                          "duration" : 2234400000,
                          "range" : [ 16416960000, 2234400000]
                        }
                      ]
                    }
                  }
                ],
                "transitions" : [
                  {
                    "name" : "Fade",
                    "duration" : 352800000,
                    "leftMedia" : 23,
                    "attributes" : {
                      "bypass" : false,
                      "reverse" : false,
                      "trivial" : false,
                      "useAudioPreRoll" : true,
                      "useVisualPreRoll" : true
                    }

                  }
                ]
              },
              {
                "trackIndex" : 4,
                "medias" : [
                  {
                    "id" : 31,
                    "_type" : "Callout",
                    "def" : {
                        "kind" : "TypeWinSpotlight",
                        "shape" : "",
                        "style" : "",
                        "height" : 335.0,
                        "intensity" : 0.5,
                        "width" : 560.0,
                        "filename" : "C:\\Users\\14044\\AppData\\Local\\TechSmith\\Camtasia Studio\\23.0\\Features\\Tools\\Annotations\\Defaults\\ReverseHighlight_100x100.xml",
                        "name" : "",
                        "xmlContent" : "﻿<?xml version=\"1.0\"?>\n\n<Overlay version=\"1.0.1\">\n\n<Overlay_Filename>ReverseHighlight_100x100.png</Overlay_Filename>\n<Overlay_Name>Spotlight</Overlay_Name>\n<Text_Top>0</Text_Top>\n<Text_Left>0</Text_Left>\n<Text_Bottom>0</Text_Bottom>\n<Text_Right>0</Text_Right>\n<Fill_Color>0</Fill_Color>\n<Border_Color>0</Border_Color>\n</Overlay>"
                    },
                    "attributes" : {
                      "ident" : "",
                      "autoRotateText" : true
                    },
                    "parameters" : {
                      "translation0" : 272.0,
                      "translation1" : 344.0,
                      "scale0" : 0.703968253968254,
                      "scale1" : 0.703968253968254,
                      "scale2" : 0.999999999999999,
                      "geometryCrop0" : 0.0,
                      "geometryCrop1" : 0.0,
                      "geometryCrop2" : 0.0,
                      "geometryCrop3" : 0.0
                    },
                    "effects" : [

                    ],
                    "start" : 11219040000,
                    "duration" : 3810240000,
                    "mediaStart" : 0,
                    "mediaDuration" : 3810240000,
                    "scalar" : 1,
                    "metadata" : {
                      "audiateLinkedSession" : "",
                      "clipSpeedAttribute" : false,
                      "default-height" : 335.0,
                      "default-translation0" : 0.0,
                      "default-translation1" : 0.0,
                      "default-translation2" : 0.0,
                      "default-width" : 560.0
                    },
                    "animationTracks" : {

                    }
                  },
                  {
                    "id" : 32,
                    "_type" : "Callout",
                    "def" : {
                        "kind" : "TypeWinSpotlight",
                        "shape" : "",
                        "style" : "",
                        "height" : {
                          "type" : "double",
                          "defaultValue" : 335.0,
                          "interp" : "linr"
                        },
                        "intensity" : {
                          "type" : "double",
                          "defaultValue" : 0.5,
                          "interp" : "linr"
                        },
                        "width" : {
                          "type" : "double",
                          "defaultValue" : 560.0,
                          "interp" : "linr"
                        },
                        "filename" : "C:\\Users\\14044\\AppData\\Local\\TechSmith\\Camtasia Studio\\23.0\\Features\\Tools\\Annotations\\Defaults\\ReverseHighlight_100x100.xml",
                        "name" : "",
                        "xmlContent" : "﻿<?xml version=\"1.0\"?>\n\n<Overlay version=\"1.0.1\">\n\n<Overlay_Filename>ReverseHighlight_100x100.png</Overlay_Filename>\n<Overlay_Name>Spotlight</Overlay_Name>\n<Text_Top>0</Text_Top>\n<Text_Left>0</Text_Left>\n<Text_Bottom>0</Text_Bottom>\n<Text_Right>0</Text_Right>\n<Fill_Color>0</Fill_Color>\n<Border_Color>0</Border_Color>\n</Overlay>"
                    },
                    "attributes" : {
                      "ident" : "",
                      "autoRotateText" : true
                    },
                    "parameters" : {
                      "translation0" : {
                        "type" : "double",
                        "defaultValue" : -478.0,
                        "interp" : "eioe"
                      },
                      "translation1" : {
                        "type" : "double",
                        "defaultValue" : -68.9401822687607,
                        "interp" : "eioe"
                      },
                      "scale0" : {
                        "type" : "double",
                        "defaultValue" : 1.58849206349206,
                        "interp" : "eioe"
                      },
                      "scale1" : {
                        "type" : "double",
                        "defaultValue" : 1.58849206349206,
                        "interp" : "eioe"
                      },
                      "scale2" : {
                        "type" : "double",
                        "defaultValue" : 0.999999999999999,
                        "interp" : "eioe"
                      },
                      "geometryCrop0" : {
                        "type" : "double",
                        "defaultValue" : 0.0,
                        "interp" : "eioe"
                      },
                      "geometryCrop1" : {
                        "type" : "double",
                        "defaultValue" : 0.0,
                        "interp" : "eioe"
                      },
                      "geometryCrop2" : {
                        "type" : "double",
                        "defaultValue" : 0.0,
                        "interp" : "eioe"
                      },
                      "geometryCrop3" : {
                        "type" : "double",
                        "defaultValue" : 0.0,
                        "interp" : "eioe"
                      }
                    },
                    "effects" : [

                    ],
                    "start" : 18627840000,
                    "duration" : 1952160000,
                    "mediaStart" : 0,
                    "mediaDuration" : 1952160000,
                    "scalar" : 1,
                    "metadata" : {
                      "audiateLinkedSession" : "",
                      "clipSpeedAttribute" : false,
                      "default-height" : 335.0,
                      "default-translation0" : 0.0,
                      "default-translation1" : 0.0,
                      "default-translation2" : 0.0,
                      "default-width" : 560.0
                    },
                    "animationTracks" : {

                    }
                  },
                  {
                    "id" : 33,
                    "_type" : "Callout",
                    "def" : {
                        "kind" : "TypeWinSpotlight",
                        "shape" : "",
                        "style" : "",
                        "height" : {
                          "type" : "double",
                          "defaultValue" : 335.0,
                          "interp" : "linr"
                        },
                        "intensity" : {
                          "type" : "double",
                          "defaultValue" : 0.5,
                          "interp" : "linr"
                        },
                        "width" : {
                          "type" : "double",
                          "defaultValue" : 560.0,
                          "interp" : "linr"
                        },
                        "filename" : "C:\\Users\\14044\\AppData\\Local\\TechSmith\\Camtasia Studio\\23.0\\Features\\Tools\\Annotations\\Defaults\\ReverseHighlight_100x100.xml",
                        "name" : "",
                        "xmlContent" : "﻿<?xml version=\"1.0\"?>\n\n<Overlay version=\"1.0.1\">\n\n<Overlay_Filename>ReverseHighlight_100x100.png</Overlay_Filename>\n<Overlay_Name>Spotlight</Overlay_Name>\n<Text_Top>0</Text_Top>\n<Text_Left>0</Text_Left>\n<Text_Bottom>0</Text_Bottom>\n<Text_Right>0</Text_Right>\n<Fill_Color>0</Fill_Color>\n<Border_Color>0</Border_Color>\n</Overlay>"
                    },
                    "attributes" : {
                      "ident" : "",
                      "autoRotateText" : true
                    },
                    "parameters" : {
                      "translation0" : {
                        "type" : "double",
                        "defaultValue" : 69.9999999999999,
                        "interp" : "eioe"
                      },
                      "translation1" : {
                        "type" : "double",
                        "defaultValue" : 403.0,
                        "interp" : "eioe"
                      },
                      "scale0" : {
                        "type" : "double",
                        "defaultValue" : 3.04285714285714,
                        "interp" : "eioe"
                      },
                      "scale1" : {
                        "type" : "double",
                        "defaultValue" : 0.408955223880597,
                        "interp" : "eioe"
                      },
                      "geometryCrop0" : {
                        "type" : "double",
                        "defaultValue" : 0.0,
                        "interp" : "eioe"
                      },
                      "geometryCrop1" : {
                        "type" : "double",
                        "defaultValue" : 0.0,
                        "interp" : "eioe"
                      },
                      "geometryCrop2" : {
                        "type" : "double",
                        "defaultValue" : 0.0,
                        "interp" : "eioe"
                      },
                      "geometryCrop3" : {
                        "type" : "double",
                        "defaultValue" : 0.0,
                        "interp" : "eioe"
                      }
                    },
                    "effects" : [

                    ],
                    "start" : 25636800000,
                    "duration" : 4163040000,
                    "mediaStart" : 0,
                    "mediaDuration" : 4163040000,
                    "scalar" : 1,
                    "metadata" : {
                      "audiateLinkedSession" : "",
                      "clipSpeedAttribute" : false,
                      "default-anchor0" : 0.0,
                      "default-anchor1" : 0.0,
                      "default-anchor2" : 0.0,
                      "default-height" : 335.0,
                      "default-rotation0" : 0.0,
                      "default-rotation1" : 0.0,
                      "default-rotation2" : 0.0,
                      "default-scale0" : 1.0,
                      "default-scale1" : 1.0,
                      "default-scale2" : 1.0,
                      "default-shear0" : 0.0,
                      "default-shear1" : 0.0,
                      "default-shear2" : 0.0,
                      "default-translation0" : -178.0,
                      "default-translation1" : 0.0,
                      "default-translation2" : 0.0,
                      "default-width" : 560.0
                    },
                    "animationTracks" : {

                    }
                  }
                ],
                "transitions" : [
                  {
                    "name" : "Fade",
                    "duration" : 517440000,
                    "leftMedia" : 31,
                    "attributes" : {
                      "bypass" : false,
                      "reverse" : false,
                      "trivial" : false,
                      "useAudioPreRoll" : true,
                      "useVisualPreRoll" : true
                    }

                  },
                  {
                    "name" : "Fade",
                    "duration" : 305760000,
                    "rightMedia" : 32,
                    "attributes" : {
                      "bypass" : false,
                      "reverse" : false,
                      "trivial" : false,
                      "useAudioPreRoll" : true,
                      "useVisualPreRoll" : true
                    }

                  },
                  {
                    "name" : "Fade",
                    "duration" : 517440000,
                    "leftMedia" : 32,
                    "attributes" : {
                      "bypass" : false,
                      "reverse" : false,
                      "trivial" : false,
                      "useAudioPreRoll" : true,
                      "useVisualPreRoll" : true
                    }

                  },
                  {
                    "name" : "Fade",
                    "duration" : 493920000,
                    "rightMedia" : 33,
                    "attributes" : {
                      "bypass" : false,
                      "reverse" : false,
                      "trivial" : false,
                      "useAudioPreRoll" : true,
                      "useVisualPreRoll" : true
                    }

                  },
                  {
                    "name" : "Fade",
                    "duration" : 329280000,
                    "leftMedia" : 33,
                    "attributes" : {
                      "bypass" : false,
                      "reverse" : false,
                      "trivial" : false,
                      "useAudioPreRoll" : true,
                      "useVisualPreRoll" : true
                    }

                  }
                ]
              },
              {
                "trackIndex" : 5,
                "medias" : [
                  {
                    "id" : 34,
                    "_type" : "Callout",
                    "def" : {
                        "kind" : "TypeWinSVG",
                        "shape" : "",
                        "style" : "",
                        "DrawTime" : 1.0,
                        "borderColorBlue" : 0.184313725490196,
                        "borderColorGreen" : 0.156862745098039,
                        "borderColorRed" : 0.137254901960784,
                        "borderWidth" : 8.97457627118644,
                        "enable-ligatures" : 0.0,
                        "flipOnXAxis" : 0.0,
                        "flipOnYAxis" : 0.0,
                        "height" : 335.0,
                        "width" : 560.0,
                        "filename" : "C:\\Users\\14044\\AppData\\Local\\TechSmith\\Camtasia Studio\\23.0\\Features\\Tools\\Annotations\\Defaults\\anim_drawnperfectrectangle.svg",
                        "name" : "",
                        "resize-behavior" : "resizeCallout",
                        "xmlContent" : "﻿<?xml version=\"1.0\" encoding=\"utf-8\"?>\n<!DOCTYPE svg PUBLIC \"-//W3C//DTD SVG 1.1//EN\" \"http://www.w3.org/Graphics/SVG/1.1/DTD/svg11.dtd\">\n<svg version=\"1.1\" x=\"0px\" y=\"0px\" width=\"100px\" height=\"100px\" xml:space=\"preserve\">\n<path fill=\"none\" d=\"M 10 10 L 10 90 L 90 90 L 90 10 Z\"/>\n</svg>\n"
                    },
                    "attributes" : {
                      "ident" : "",
                      "autoRotateText" : true
                    },
                    "parameters" : {
                      "translation0" : 272.0,
                      "translation1" : 344.0,
                      "scale0" : 0.703968253968254,
                      "scale1" : 0.703968253968254,
                      "scale2" : 0.999999999999999,
                      "geometryCrop0" : 0.0,
                      "geometryCrop1" : 0.0,
                      "geometryCrop2" : 0.0,
                      "geometryCrop3" : 0.0
                    },
                    "leftEdgeMods" : [
                      {
                        "group" : "DrawPercentageFade",
                        "duration" : 705600000,
                        "parameters" : [
                          {
                            "name" : "DrawTime",
                              "func" : "FadeInFunc"
                            }
                        ]
                      }
                    ],
                    "effects" : [

                    ],
                    "start" : 11242560000,
                    "duration" : 3786720000,
                    "mediaStart" : 0,
                    "mediaDuration" : 3786720000,
                    "scalar" : 1,
                    "metadata" : {
                      "audiateLinkedSession" : "",
                      "clipSpeedAttribute" : false,
                      "default-height" : 335.0,
                      "default-stroke-color-blue" : 0.0,
                      "default-stroke-color-green" : 0.0,
                      "default-stroke-color-red" : 1.0,
                      "default-stroke-width" : 5.0,
                      "default-translation0" : 40.0,
                      "default-translation1" : -40.0,
                      "default-translation2" : 0.0,
                      "default-width" : 560.0
                    },
                    "animationTracks" : {

                    }
                  },
                  {
                    "id" : 35,
                    "_type" : "Callout",
                    "def" : {
                        "kind" : "TypeWinSVG",
                        "shape" : "",
                        "style" : "",
                        "DrawTime" : {
                          "type" : "double",
                          "defaultValue" : 1.0,
                          "interp" : "linr"
                        },
                        "borderColorBlue" : {
                          "type" : "double",
                          "defaultValue" : 0.184313725490196,
                          "interp" : "linr"
                        },
                        "borderColorGreen" : {
                          "type" : "double",
                          "defaultValue" : 0.156862745098039,
                          "interp" : "linr"
                        },
                        "borderColorRed" : {
                          "type" : "double",
                          "defaultValue" : 0.137254901960784,
                          "interp" : "linr"
                        },
                        "borderWidth" : {
                          "type" : "double",
                          "defaultValue" : 8.97457627118644,
                          "interp" : "linr"
                        },
                        "enable-ligatures" : {
                          "type" : "double",
                          "defaultValue" : 0.0,
                          "interp" : "linr"
                        },
                        "flipOnXAxis" : {
                          "type" : "double",
                          "defaultValue" : 0.0,
                          "interp" : "linr"
                        },
                        "flipOnYAxis" : {
                          "type" : "double",
                          "defaultValue" : 0.0,
                          "interp" : "linr"
                        },
                        "height" : {
                          "type" : "double",
                          "defaultValue" : 335.0,
                          "interp" : "linr"
                        },
                        "width" : {
                          "type" : "double",
                          "defaultValue" : 560.0,
                          "interp" : "linr"
                        },
                        "filename" : "C:\\Users\\14044\\AppData\\Local\\TechSmith\\Camtasia Studio\\23.0\\Features\\Tools\\Annotations\\Defaults\\anim_drawnperfectrectangle.svg",
                        "name" : "",
                        "resize-behavior" : "resizeCallout",
                        "xmlContent" : "﻿<?xml version=\"1.0\" encoding=\"utf-8\"?>\n<!DOCTYPE svg PUBLIC \"-//W3C//DTD SVG 1.1//EN\" \"http://www.w3.org/Graphics/SVG/1.1/DTD/svg11.dtd\">\n<svg version=\"1.1\" x=\"0px\" y=\"0px\" width=\"100px\" height=\"100px\" xml:space=\"preserve\">\n<path fill=\"none\" d=\"M 10 10 L 10 90 L 90 90 L 90 10 Z\"/>\n</svg>\n"
                    },
                    "attributes" : {
                      "ident" : "",
                      "autoRotateText" : true
                    },
                    "parameters" : {
                      "translation0" : {
                        "type" : "double",
                        "defaultValue" : -478.0,
                        "interp" : "eioe"
                      },
                      "translation1" : {
                        "type" : "double",
                        "defaultValue" : -68.9401822687607,
                        "interp" : "eioe"
                      },
                      "scale0" : {
                        "type" : "double",
                        "defaultValue" : 1.58849206349206,
                        "interp" : "eioe"
                      },
                      "scale1" : {
                        "type" : "double",
                        "defaultValue" : 1.58849206349206,
                        "interp" : "eioe"
                      },
                      "scale2" : {
                        "type" : "double",
                        "defaultValue" : 0.999999999999999,
                        "interp" : "eioe"
                      },
                      "geometryCrop0" : {
                        "type" : "double",
                        "defaultValue" : 0.0,
                        "interp" : "eioe"
                      },
                      "geometryCrop1" : {
                        "type" : "double",
                        "defaultValue" : 0.0,
                        "interp" : "eioe"
                      },
                      "geometryCrop2" : {
                        "type" : "double",
                        "defaultValue" : 0.0,
                        "interp" : "eioe"
                      },
                      "geometryCrop3" : {
                        "type" : "double",
                        "defaultValue" : 0.0,
                        "interp" : "eioe"
                      }
                    },
                    "leftEdgeMods" : [
                      {
                        "group" : "DrawPercentageFade",
                        "duration" : 705600000,
                        "parameters" : [
                          {
                            "name" : "DrawTime",
                              "func" : "FadeInFunc"
                            }
                        ]
                      }
                    ],
                    "effects" : [

                    ],
                    "start" : 18651360000,
                    "duration" : 1928640000,
                    "mediaStart" : 0,
                    "mediaDuration" : 1928640000,
                    "scalar" : 1,
                    "metadata" : {
                      "audiateLinkedSession" : "",
                      "clipSpeedAttribute" : false,
                      "default-height" : 335.0,
                      "default-stroke-color-blue" : 0.0,
                      "default-stroke-color-green" : 0.0,
                      "default-stroke-color-red" : 1.0,
                      "default-stroke-width" : 5.0,
                      "default-translation0" : 40.0,
                      "default-translation1" : -40.0,
                      "default-translation2" : 0.0,
                      "default-width" : 560.0
                    },
                    "animationTracks" : {

                    }
                  },
                  {
                    "id" : 36,
                    "_type" : "Callout",
                    "def" : {
                        "kind" : "TypeWinSVG",
                        "shape" : "",
                        "style" : "",
                        "DrawTime" : {
                          "type" : "double",
                          "defaultValue" : 1.0,
                          "interp" : "linr"
                        },
                        "borderColorBlue" : {
                          "type" : "double",
                          "defaultValue" : 0.184313725490196,
                          "interp" : "linr"
                        },
                        "borderColorGreen" : {
                          "type" : "double",
                          "defaultValue" : 0.156862745098039,
                          "interp" : "linr"
                        },
                        "borderColorRed" : {
                          "type" : "double",
                          "defaultValue" : 0.137254901960784,
                          "interp" : "linr"
                        },
                        "borderWidth" : {
                          "type" : "double",
                          "defaultValue" : 8.97457627118644,
                          "interp" : "linr"
                        },
                        "enable-ligatures" : {
                          "type" : "double",
                          "defaultValue" : 0.0,
                          "interp" : "linr"
                        },
                        "flipOnXAxis" : {
                          "type" : "double",
                          "defaultValue" : 0.0,
                          "interp" : "linr"
                        },
                        "flipOnYAxis" : {
                          "type" : "double",
                          "defaultValue" : 0.0,
                          "interp" : "linr"
                        },
                        "height" : {
                          "type" : "double",
                          "defaultValue" : 335.0,
                          "interp" : "linr"
                        },
                        "width" : {
                          "type" : "double",
                          "defaultValue" : 560.0,
                          "interp" : "linr"
                        },
                        "filename" : "C:\\Users\\14044\\AppData\\Local\\TechSmith\\Camtasia Studio\\23.0\\Features\\Tools\\Annotations\\Defaults\\anim_drawnperfectrectangle.svg",
                        "name" : "",
                        "resize-behavior" : "resizeCallout",
                        "xmlContent" : "﻿<?xml version=\"1.0\" encoding=\"utf-8\"?>\n<!DOCTYPE svg PUBLIC \"-//W3C//DTD SVG 1.1//EN\" \"http://www.w3.org/Graphics/SVG/1.1/DTD/svg11.dtd\">\n<svg version=\"1.1\" x=\"0px\" y=\"0px\" width=\"100px\" height=\"100px\" xml:space=\"preserve\">\n<path fill=\"none\" d=\"M 10 10 L 10 90 L 90 90 L 90 10 Z\"/>\n</svg>\n"
                    },
                    "attributes" : {
                      "ident" : "",
                      "autoRotateText" : true
                    },
                    "parameters" : {
                      "translation0" : {
                        "type" : "double",
                        "defaultValue" : 69.9999999999999,
                        "interp" : "eioe"
                      },
                      "translation1" : {
                        "type" : "double",
                        "defaultValue" : 403.0,
                        "interp" : "eioe"
                      },
                      "scale0" : {
                        "type" : "double",
                        "defaultValue" : 3.04285714285714,
                        "interp" : "eioe"
                      },
                      "scale1" : {
                        "type" : "double",
                        "defaultValue" : 0.408955223880597,
                        "interp" : "eioe"
                      },
                      "geometryCrop0" : {
                        "type" : "double",
                        "defaultValue" : 0.0,
                        "interp" : "eioe"
                      },
                      "geometryCrop1" : {
                        "type" : "double",
                        "defaultValue" : 0.0,
                        "interp" : "eioe"
                      },
                      "geometryCrop2" : {
                        "type" : "double",
                        "defaultValue" : 0.0,
                        "interp" : "eioe"
                      },
                      "geometryCrop3" : {
                        "type" : "double",
                        "defaultValue" : 0.0,
                        "interp" : "eioe"
                      }
                    },
                    "leftEdgeMods" : [
                      {
                        "group" : "DrawPercentageFade",
                        "duration" : 705600000,
                        "parameters" : [
                          {
                            "name" : "DrawTime",
                              "func" : "FadeInFunc"
                            }
                        ]
                      }
                    ],
                    "effects" : [

                    ],
                    "start" : 25660320000,
                    "duration" : 2469600000,
                    "mediaStart" : 0,
                    "mediaDuration" : 2469600000,
                    "scalar" : 1,
                    "metadata" : {
                      "audiateLinkedSession" : "",
                      "clipSpeedAttribute" : false,
                      "default-anchor0" : 0.0,
                      "default-anchor1" : 0.0,
                      "default-anchor2" : 0.0,
                      "default-height" : 335.0,
                      "default-rotation0" : 0.0,
                      "default-rotation1" : 0.0,
                      "default-rotation2" : 0.0,
                      "default-scale0" : 1.0,
                      "default-scale1" : 1.0,
                      "default-scale2" : 1.0,
                      "default-shear0" : 0.0,
                      "default-shear1" : 0.0,
                      "default-shear2" : 0.0,
                      "default-translation0" : -178.0,
                      "default-translation1" : 0.0,
                      "default-translation2" : 0.0,
                      "default-width" : 560.0
                    },
                    "animationTracks" : {

                    }
                  }
                ],
                "transitions" : [
                  {
                    "name" : "Fade",
                    "duration" : 517440000,
                    "leftMedia" : 34,
                    "attributes" : {
                      "bypass" : false,
                      "reverse" : false,
                      "trivial" : false,
                      "useAudioPreRoll" : true,
                      "useVisualPreRoll" : true
                    }

                  },
                  {
                    "name" : "Fade",
                    "duration" : 282240000,
                    "rightMedia" : 35,
                    "attributes" : {
                      "bypass" : false,
                      "reverse" : false,
                      "trivial" : false,
                      "useAudioPreRoll" : true,
                      "useVisualPreRoll" : true
                    }

                  },
                  {
                    "name" : "Fade",
                    "duration" : 517440000,
                    "leftMedia" : 35,
                    "attributes" : {
                      "bypass" : false,
                      "reverse" : false,
                      "trivial" : false,
                      "useAudioPreRoll" : true,
                      "useVisualPreRoll" : true
                    }

                  },
                  {
                    "name" : "Fade",
                    "duration" : 470400000,
                    "rightMedia" : 36,
                    "attributes" : {
                      "bypass" : false,
                      "reverse" : false,
                      "trivial" : false,
                      "useAudioPreRoll" : true,
                      "useVisualPreRoll" : true
                    }

                  },
                  {
                    "name" : "Fade",
                    "duration" : 329280000,
                    "leftMedia" : 36,
                    "attributes" : {
                      "bypass" : false,
                      "reverse" : false,
                      "trivial" : false,
                      "useAudioPreRoll" : true,
                      "useVisualPreRoll" : true
                    }

                  }
                ]
              }            ]
          }
        }
      ]
    },
    "trackAttributes" : [
      {
        "ident" : "",
        "audioMuted" : false,
        "videoHidden" : false,
        "magnetic" : false,
        "matte" : 0,
        "solo" : false,
        "metadata" : {
          "IsLocked" : "False",
          "WinTrackHeight" : "56"
        }
      },
      {
        "ident" : "",
        "audioMuted" : false,
        "videoHidden" : false,
        "magnetic" : false,
        "matte" : 0,
        "solo" : false,
        "metadata" : {
          "IsLocked" : "False",
          "WinTrackHeight" : "56"
        }
      },
      {
        "ident" : "",
        "audioMuted" : false,
        "videoHidden" : false,
        "magnetic" : false,
        "matte" : 0,
        "solo" : false,
        "metadata" : {
          "IsLocked" : "False",
          "WinTrackHeight" : "56"
        }
      },
      {
        "ident" : "",
        "audioMuted" : false,
        "videoHidden" : false,
        "magnetic" : false,
        "matte" : 0,
        "solo" : false,
        "metadata" : {
          "IsLocked" : "False",
          "WinTrackHeight" : "56"
        }
      },
      {
        "ident" : "",
        "audioMuted" : false,
        "videoHidden" : false,
        "magnetic" : false,
        "matte" : 0,
        "solo" : false,
        "metadata" : {
          "IsLocked" : "False",
          "WinTrackHeight" : "56"
        }
      },
      {
        "ident" : "",
        "audioMuted" : false,
        "videoHidden" : false,
        "magnetic" : false,
        "matte" : 0,
        "solo" : false,
        "metadata" : {
          "IsLocked" : "False",
          "WinTrackHeight" : "56"
        }
      }
    ],
    "captionAttributes" : {
      "enabled" : true,
      "fontName" : "Arial",
      "fontSize" : 32,
      "backgroundColor" : [ 0, 0, 0, 191],
      "foregroundColor" : [ 255, 255, 255, 255],
      "lang" : "en",
      "alignment" : 0,
      "defaultFontSize" : true,
      "opacity" : 0.5,
      "backgroundEnabled" : true,
      "backgroundOnlyAroundText" : true
    },
    "gain" : 1.0,
    "legacyAttenuateAudioMix" : false,
    "backgroundColor" : [ 0, 0, 0, 255]
  },
  "metadata" : {
    "AutoSaveFile" : "C:\\Users\\14044\\AppData\\Local\\TechSmith\\Camtasia Studio\\23.0\\Auto-Saves\\LoginMS15b5d471.autosave.tscproj",
    "CanvasZoom" : 50,
    "Date" : "2025-05-09 08:00:33 PM",
    "Fit" : 0,
    "IsAutoSave" : false,
    "IsStandalone" : false,
    "ProfileName" : "",
    "ProjectThumbnail" : "iVBORw0KGgoAAAANSUhEUgAAAlkAAAFoCAYAAABkNu7SAAAAAXNSR0IArs4c6QAAAARnQU1BAACx\r\njwv8YQUAAAAJcEhZcwAAFiUAABYlAUlSJPAAAAYYSURBVHhe7cixEYAwAMSw7L90YABXPKV8p8bn\r\n7QIA8LucAABscgIAsMkJAMAmJwAAm5wAAGxyAgCwyQkAwCYnAACbnAAAbHICALDJCQDAJicAAJuc\r\nAABscgIAsMkJAMAmJwAAm5wAAGxyAgCwyQkAwCYnAACbnAAAbHICALDJCQDAJicAAJucAABscgIA\r\nsMkJAMAmJwAAm5wAAGxyAgCwyQkAwCYnAACbnAAAbHICALDJCQDAJicAAJucAABscgIAsMkJAMAm\r\nJwAAm5wAAGxyAgCwyQkAwCYnAACbnAAAbHICALDJCQDAJicAAJucAABscgIAsMkJAMAmJwAAm5wA\r\nAGxyAgCwyQkAwCYnAACbnAAAbHICALDJCQDAJicAAJucAABscgIAsMkJAMAmJwAAm5wAAGxyAgCw\r\nyQkAwCYnAACbnAAAbHICALDJCQDAJicAAJucAABscgIAsMkJAMAmJwAAm5wAAGxyAgCwyQkAwCYn\r\nAACbnAAAbHICALDJCQDAJicAAJucAABscgIAsMkJAMAmJwAAm5wAAGxyAgCwyQkAwCYnAACbnAAA\r\nbHICALDJCQDAJicAAJucAABscgIAsMkJAMAmJwAAm5wAAGxyAgCwyQkAwCYnAACbnAAAbHICALDJ\r\nCQDAJicAAJucAABscgIAsMkJAMAmJwAAm5wAAGxyAgCwyQkAwCYnAACbnAAAbHICALDJCQDAJicA\r\nAJucAABscgIAsMkJAMAmJwAAm5wAAGxyAgCwyQkAwCYnAACbnAAAbHICALDJCQDAJicAAJucAABs\r\ncgIAsMkJAMAmJwAAm5wAAGxyAgCwyQkAwCYnAACbnAAAbHICALDJCQDAJicAAJucAABscgIAsMkJ\r\nAMAmJwAAm5wAAGxyAgCwyQkAwCYnAACbnAAAbHICALDJCQDAJicAAJucAABscgIAsMkJAMAmJwAA\r\nm5wAAGxyAgCwyQkAwCYnAACbnAAAbHICALDJCQDAJicAAJucAABscgIAsMkJAMAmJwAAm5wAAGxy\r\nAgCwyQkAwCYnAACbnAAAbHICALDJCQDAJicAAJucAABscgIAsMkJAMAmJwAAm5wAAGxyAgCwyQkA\r\nwCYnAACbnAAAbHICALDJCQDAJicAAJucAABscgIAsMkJAMAmJwAAm5wAAGxyAgCwyQkAwCYnAACb\r\nnAAAbHICALDJCQDAJicAAJucAABscgIAsMkJAMAmJwAAm5wAAGxyAgCwyQkAwCYnAACbnAAAbHIC\r\nALDJCQDAJicAAJucAABscgIAsMkJAMAmJwAAm5wAAGxyAgCwyQkAwCYnAACbnAAAbHICALDJCQDA\r\nJicAAJucAABscgIAsMkJAMAmJwAAm5wAAGxyAgCwyQkAwCYnAACbnAAAbHICALDJCQDAJicAAJuc\r\nAABscgIAsMkJAMAmJwAAm5wAAGxyAgCwyQkAwCYnAACbnAAAbHICALDJCQDAJicAAJucAABscgIA\r\nsMkJAMAmJwAAm5wAAGxyAgCwyQkAwCYnAACbnAAAbHICALDJCQDAJicAAJucAABscgIAsMkJAMAm\r\nJwAAm5wAAGxyAgCwyQkAwCYnAACbnAAAbHICALDJCQDAJicAAJucAABscgIAsMkJAMAmJwAAm5wA\r\nAGxyAgCwyQkAwCYnAACbnAAAbHICALDJCQDAJicAAJucAABscgIAsMkJAMAmJwAAm5wAAGxyAgCw\r\nyQkAwCYnAACbnAAAbHICALDJCQDAJicAAJucAABscgIAsMkJAMAmJwAAm5wAAGxyAgCwyQkAwCYn\r\nAACbnAAAbHICALDJCQDAJicAAJucAABscgIAsMkJAMAmJwAAm5wAAGxyAgCwyQkAwCYnAACbnAAA\r\nbHICALDJCQDAJicAAJucAABscgIAsMkJAMAmJwAAm5wAAGxyAgCwyQkAwCYnAACbnAAAbHICALDJ\r\nCQDAJicAAJucAABscgIAsMkJAMAmJwAAm5wAAGxyAgCwyQkAwCYnAACbnAAAbHICALDJCQDAJicA\r\nAJucAABscgIAsMkJAMAmJwAAm5wAAGxyAgCwyQkAwCYnAACbnAAAbHICALDJCQDAZ+c+5kYML2OU\r\nxjcAAAAASUVORK5CYII=",
    "RulerGuidesX" : [],
    "RulerGuidesY" : [],
    "RulerShowing" : false,
    "Title" : "LoginMS",
    "audioNarrationNotes" : "",
    "calloutStyle" : "Basic"
  }
}
